<svg width="677" height="550" viewBox="0 0 677 550" fill="none" xmlns="http://www.w3.org/2000/svg">
<path d="M25.0781 34.4336C25.0781 30.0153 28.6598 26.4336 33.0781 26.4336H483.078C487.496 26.4336 491.078 30.0153 491.078 34.4336V334.434C491.078 338.852 487.496 342.434 483.078 342.434H33.0781C28.6599 342.434 25.0781 338.852 25.0781 334.434V34.4336Z" fill="white"/>
<path d="M74.0908 65.6336C76.9908 65.6336 79.4308 63.2136 79.8908 59.9136H77.7908C77.7308 62.6336 76.2908 64.0136 74.0908 64.0136C71.5508 64.0136 70.1508 62.4736 70.1508 59.4536V57.0736C70.1508 54.0336 71.5508 52.4936 74.0908 52.4936C76.2908 52.4936 77.7308 53.8736 77.7908 56.5936H79.8908C79.4308 53.2936 76.9908 50.8736 74.0908 50.8736C70.6708 50.8736 68.1108 54.1136 68.1108 58.2536C68.1108 62.3936 70.6708 65.6336 74.0908 65.6336Z" fill="#070707"/>
<path d="M86.0497 54.7736C83.8297 54.7736 82.0897 56.3536 81.7497 58.5136H83.5497C83.6297 56.9136 84.1697 56.3336 85.9897 56.3336C87.7297 56.3336 88.2497 56.9336 88.2497 58.5136V59.4536H85.3497C83.0897 59.4536 81.4897 60.6736 81.4897 62.3936C81.4897 64.1936 83.1497 65.6336 85.2497 65.6336C86.6097 65.6336 87.7097 65.1336 88.3497 64.2536V65.4336H90.0097V58.6136C90.0097 56.3136 88.4297 54.7736 86.0497 54.7736ZM85.6097 64.0736C84.0497 64.0736 83.3897 63.6536 83.3897 62.6736V62.1136C83.3897 61.3336 83.8697 60.9336 84.8497 60.9336H88.2497V62.2336C88.2497 63.5136 87.4497 64.0736 85.6097 64.0736Z" fill="#070707"/>
<path d="M96.6715 65.6336C99.0115 65.6336 100.811 64.0736 100.811 62.3136C100.811 60.7336 99.6915 59.6536 97.7915 59.4536L95.8715 59.2536C94.8315 59.1536 94.3915 58.7936 94.3915 58.0536V57.6536C94.3915 56.7336 95.0515 56.3336 96.5715 56.3336C98.1915 56.3336 98.7715 56.7736 98.8315 58.0936H100.691C100.431 56.0136 98.6515 54.7736 96.5315 54.7736C94.4315 54.7736 92.6115 56.3136 92.6115 58.0336C92.6115 59.6336 93.6515 60.6936 95.5315 60.8936L97.4915 61.0936C98.5915 61.2136 99.0515 61.5336 99.0515 62.2736V62.7136C99.0515 63.6336 98.3115 64.0736 96.6315 64.0736C94.8315 64.0736 94.1915 63.6536 94.1115 62.3136H92.2515C92.4715 64.2736 94.2515 65.6336 96.6715 65.6336Z" fill="#070707"/>
<path d="M108.145 54.7736C106.805 54.7736 105.665 55.3736 104.865 56.4136V51.0736H103.105V65.4336H104.865V58.7936C104.865 57.0736 105.665 56.3336 107.585 56.3336C109.405 56.3336 110.165 57.0336 110.165 58.6936V65.4336H111.925V58.8936C111.925 56.4536 110.365 54.7736 108.145 54.7736Z" fill="#070707"/>
<path d="M129.337 54.7736C128.077 54.7736 126.817 55.4336 126.057 56.4536V51.0736H124.297V65.4336H125.957V63.8336C126.817 64.9936 127.997 65.6336 129.257 65.6336C131.897 65.6336 134.017 63.1936 134.017 60.1536C134.017 57.2536 131.857 54.7736 129.337 54.7736ZM132.057 61.0136C132.057 63.1536 131.157 64.0736 129.057 64.0736C126.957 64.0736 126.057 63.1536 126.057 61.0136V59.4136C126.057 57.2536 126.957 56.3336 129.057 56.3336C131.157 56.3336 132.057 57.2536 132.057 59.4136V61.0136Z" fill="#070707"/>
<path d="M140.268 54.7736C138.048 54.7736 136.308 56.3536 135.968 58.5136H137.768C137.848 56.9136 138.388 56.3336 140.208 56.3336C141.948 56.3336 142.468 56.9336 142.468 58.5136V59.4536H139.568C137.308 59.4536 135.708 60.6736 135.708 62.3936C135.708 64.1936 137.368 65.6336 139.468 65.6336C140.828 65.6336 141.928 65.1336 142.568 64.2536V65.4336H144.228V58.6136C144.228 56.3136 142.648 54.7736 140.268 54.7736ZM139.828 64.0736C138.268 64.0736 137.608 63.6536 137.608 62.6736V62.1136C137.608 61.3336 138.088 60.9336 139.068 60.9336H142.468V62.2336C142.468 63.5136 141.668 64.0736 139.828 64.0736Z" fill="#070707"/>
<path d="M147.07 65.4336H148.83V51.0736H147.07V65.4336Z" fill="#070707"/>
<path d="M155.796 54.7736C153.576 54.7736 151.836 56.3536 151.496 58.5136H153.296C153.376 56.9136 153.916 56.3336 155.736 56.3336C157.476 56.3336 157.996 56.9336 157.996 58.5136V59.4536H155.096C152.836 59.4536 151.236 60.6736 151.236 62.3936C151.236 64.1936 152.896 65.6336 154.996 65.6336C156.356 65.6336 157.456 65.1336 158.096 64.2536V65.4336H159.756V58.6136C159.756 56.3136 158.176 54.7736 155.796 54.7736ZM155.356 64.0736C153.796 64.0736 153.136 63.6536 153.136 62.6736V62.1136C153.136 61.3336 153.616 60.9336 154.596 60.9336H157.996V62.2336C157.996 63.5136 157.196 64.0736 155.356 64.0736Z" fill="#070707"/>
<path d="M167.598 54.7736C166.238 54.7736 165.058 55.4136 164.258 56.5336V54.9736H162.598V65.4336H164.358V58.7936C164.358 57.0736 165.158 56.3336 167.058 56.3336C168.838 56.3336 169.618 57.0336 169.618 58.6936V65.4336H171.378V58.8936C171.378 56.4736 169.778 54.7736 167.598 54.7736Z" fill="#070707"/>
<path d="M178.319 65.6336C180.559 65.6336 182.539 63.8536 182.899 61.5136H181.019C180.899 63.3536 180.119 64.0736 178.279 64.0736C176.319 64.0736 175.479 63.1536 175.479 60.9936V59.3936C175.479 57.2536 176.319 56.3336 178.279 56.3336C180.119 56.3336 180.899 57.0536 181.019 58.8936H182.899C182.539 56.5536 180.559 54.7736 178.319 54.7736C175.599 54.7736 173.519 57.1336 173.519 60.1936C173.519 63.2536 175.619 65.6336 178.319 65.6336Z" fill="#070707"/>
<path d="M194.273 60.7336V59.9936C194.273 57.0536 192.213 54.7736 189.573 54.7736C186.733 54.7736 184.593 57.2536 184.593 60.4136C184.593 63.4736 186.713 65.6336 189.573 65.6336C191.533 65.6336 193.533 64.1936 194.233 62.2136H192.193C192.033 63.5136 191.253 64.0736 189.573 64.0736C187.453 64.0736 186.553 63.2336 186.553 61.1936V60.7336H194.273ZM189.593 56.3336C191.573 56.3336 192.313 57.1136 192.313 58.9936V59.2536H186.553V59.0336C186.553 57.1536 187.513 56.3336 189.593 56.3336Z" fill="#070707"/>
<path d="M206.388 54.7736C205.068 54.7736 203.748 55.5136 203.008 56.5936V54.9736H201.348V69.5736H203.108V63.9736C203.948 65.0336 205.088 65.6336 206.308 65.6336C208.948 65.6336 211.068 63.1936 211.068 60.1536C211.068 57.2536 208.908 54.7736 206.388 54.7736ZM209.108 61.0136C209.108 63.1536 208.208 64.0736 206.108 64.0736C204.008 64.0736 203.108 63.1536 203.108 61.0136V59.4136C203.108 57.2536 204.008 56.3336 206.108 56.3336C208.208 56.3336 209.108 57.2536 209.108 59.4136V61.0136Z" fill="#070707"/>
<path d="M213.359 65.4336H215.119V51.0736H213.359V65.4336Z" fill="#070707"/>
<path d="M222.085 54.7736C219.865 54.7736 218.125 56.3536 217.785 58.5136H219.585C219.665 56.9136 220.205 56.3336 222.025 56.3336C223.765 56.3336 224.285 56.9336 224.285 58.5136V59.4536H221.385C219.125 59.4536 217.525 60.6736 217.525 62.3936C217.525 64.1936 219.185 65.6336 221.285 65.6336C222.645 65.6336 223.745 65.1336 224.385 64.2536V65.4336H226.045V58.6136C226.045 56.3136 224.465 54.7736 222.085 54.7736ZM221.645 64.0736C220.085 64.0736 219.425 63.6536 219.425 62.6736V62.1136C219.425 61.3336 219.905 60.9336 220.885 60.9336H224.285V62.2336C224.285 63.5136 223.485 64.0736 221.645 64.0736Z" fill="#070707"/>
<path d="M233.887 54.7736C232.527 54.7736 231.347 55.4136 230.547 56.5336V54.9736H228.887V65.4336H230.647V58.7936C230.647 57.0736 231.447 56.3336 233.347 56.3336C235.127 56.3336 235.907 57.0336 235.907 58.6936V65.4336H237.667V58.8936C237.667 56.4736 236.067 54.7736 233.887 54.7736Z" fill="#070707"/>
<path d="M240.588 68.1736H242.168L243.048 65.2336V62.7936H241.068V65.2336L240.588 68.1736Z" fill="#070707"/>
<path d="M260.78 61.2136C260.78 59.0736 259.44 57.8536 256.64 57.4336L255.68 57.2936C253.42 56.9536 252.8 56.5136 252.8 55.2736V54.5936C252.8 53.1736 253.68 52.4936 255.52 52.4936C257.66 52.4936 258.4 53.1736 258.48 55.2336H260.58C260.26 52.8936 258.7 51.2936 256.46 50.9536V49.4736H254.9V50.9136C252.68 51.1936 250.92 52.9336 250.92 55.0136C250.92 57.0536 252.5 58.6136 255 58.9736L255.96 59.1136C258.4 59.4736 258.9 59.7936 258.9 60.9536V61.7536C258.9 63.2936 257.88 64.0136 255.76 64.0136C253.42 64.0136 252.62 63.2936 252.52 61.0736H250.42C250.72 63.5336 252.46 65.2536 254.9 65.5736V67.0336H256.46V65.5936C258.9 65.2936 260.78 63.4536 260.78 61.2136Z" fill="#070707"/>
<path d="M44.6201 109.92C43.8081 109.92 42.9961 110.284 42.4361 110.858V107.764H47.5461V106.574H41.3441V112.426H42.4221C42.6041 111.446 43.1361 111.026 44.5361 111.026C46.0201 111.026 46.6641 111.558 46.6641 112.846V113.896C46.6641 115.17 46.0201 115.646 44.5361 115.646C43.1221 115.646 42.5901 115.338 42.4361 114.246H41.0781C41.3301 115.772 42.7441 116.766 44.4941 116.766C46.8601 116.766 47.9941 115.268 47.9941 113.336C47.9941 111.516 46.6921 109.92 44.6201 109.92Z" fill="black" fill-opacity="0.5"/>
<path d="M53.6103 116.766C55.9343 116.766 57.3903 114.624 57.3903 111.614C57.3903 108.59 55.9063 106.434 53.6103 106.434C51.3143 106.434 49.8303 108.59 49.8303 111.614C49.8303 114.624 51.2863 116.766 53.6103 116.766ZM53.6103 115.66C51.9303 115.66 51.2163 114.778 51.2163 112.748V110.48C51.2163 108.408 51.9303 107.526 53.6103 107.526C55.2903 107.526 56.0043 108.408 56.0043 110.48V112.748C56.0043 114.778 55.2903 115.66 53.6103 115.66Z" fill="black" fill-opacity="0.5"/>
<path d="M62.8525 116.766C65.1765 116.766 66.6325 114.624 66.6325 111.614C66.6325 108.59 65.1485 106.434 62.8525 106.434C60.5565 106.434 59.0725 108.59 59.0725 111.614C59.0725 114.624 60.5285 116.766 62.8525 116.766ZM62.8525 115.66C61.1725 115.66 60.4585 114.778 60.4585 112.748V110.48C60.4585 108.408 61.1725 107.526 62.8525 107.526C64.5325 107.526 65.2465 108.408 65.2465 110.48V112.748C65.2465 114.778 64.5325 115.66 62.8525 115.66Z" fill="black" fill-opacity="0.5"/>
<path d="M68.6227 116.626H69.8827V111.992H70.7227L74.0547 116.626H75.6507L71.7027 111.348L75.5527 106.574H74.1107L70.7227 110.872H69.8827V106.574H68.6227V116.626Z" fill="black" fill-opacity="0.5"/>
<path d="M41.3441 154.958H47.9381V153.768H42.5761V153.208L45.6561 150.856C47.0421 149.792 47.7421 148.756 47.7421 147.622C47.7421 146.068 46.5241 144.766 44.5221 144.766C42.6601 144.766 41.3581 145.956 41.0781 147.748H42.4081C42.4081 146.432 43.0801 145.858 44.5221 145.858C45.9501 145.858 46.3981 146.334 46.3981 147.454V147.958C46.3981 148.672 45.8661 149.232 44.7321 150.128L41.3441 152.774V154.958Z" fill="black" fill-opacity="0.5"/>
<path d="M53.4385 148.252C52.6265 148.252 51.8145 148.616 51.2545 149.19V146.096H56.3645V144.906H50.1625V150.758H51.2405C51.4225 149.778 51.9545 149.358 53.3545 149.358C54.8385 149.358 55.4825 149.89 55.4825 151.178V152.228C55.4825 153.502 54.8385 153.978 53.3545 153.978C51.9405 153.978 51.4085 153.67 51.2545 152.578H49.8965C50.1485 154.104 51.5625 155.098 53.3125 155.098C55.6785 155.098 56.8125 153.6 56.8125 151.668C56.8125 149.848 55.5105 148.252 53.4385 148.252Z" fill="black" fill-opacity="0.5"/>
<path d="M62.4287 155.098C64.7527 155.098 66.2087 152.956 66.2087 149.946C66.2087 146.922 64.7247 144.766 62.4287 144.766C60.1327 144.766 58.6487 146.922 58.6487 149.946C58.6487 152.956 60.1047 155.098 62.4287 155.098ZM62.4287 153.992C60.7487 153.992 60.0347 153.11 60.0347 151.08V148.812C60.0347 146.74 60.7487 145.858 62.4287 145.858C64.1087 145.858 64.8227 146.74 64.8227 148.812V151.08C64.8227 153.11 64.1087 153.992 62.4287 153.992Z" fill="black" fill-opacity="0.5"/>
<path d="M68.1989 154.958H69.4589V150.324H70.2989L73.6309 154.958H75.2269L71.2789 149.68L75.1289 144.906H73.6869L70.2989 149.204H69.4589V144.906H68.1989V154.958Z" fill="black" fill-opacity="0.5"/>
<path d="M44.8581 193.43C47.1821 193.43 48.6381 191.288 48.6381 188.278C48.6381 185.254 47.1541 183.098 44.8581 183.098C42.5621 183.098 41.0781 185.254 41.0781 188.278C41.0781 191.288 42.5341 193.43 44.8581 193.43ZM44.8581 192.324C43.1781 192.324 42.4641 191.442 42.4641 189.412V187.144C42.4641 185.072 43.1781 184.19 44.8581 184.19C46.5381 184.19 47.2521 185.072 47.2521 187.144V189.412C47.2521 191.442 46.5381 192.324 44.8581 192.324Z" fill="black" fill-opacity="0.5"/>
<path d="M41.0781 228.472H45.6001V227.436H41.0781V228.472Z" fill="black" fill-opacity="0.5"/>
<path d="M47.5468 231.622H54.1408V230.432H48.7788V229.872L51.8588 227.52C53.2448 226.456 53.9448 225.42 53.9448 224.286C53.9448 222.732 52.7268 221.43 50.7248 221.43C48.8628 221.43 47.5608 222.62 47.2808 224.412H48.6108C48.6108 223.096 49.2828 222.522 50.7248 222.522C52.1528 222.522 52.6008 222.998 52.6008 224.118V224.622C52.6008 225.336 52.0688 225.896 50.9348 226.792L47.5468 229.438V231.622Z" fill="black" fill-opacity="0.5"/>
<path d="M59.6411 224.916C58.8291 224.916 58.0171 225.28 57.4571 225.854V222.76H62.5671V221.57H56.3651V227.422H57.4431C57.6251 226.442 58.1571 226.022 59.5571 226.022C61.0411 226.022 61.6851 226.554 61.6851 227.842V228.892C61.6851 230.166 61.0411 230.642 59.5571 230.642C58.1431 230.642 57.6111 230.334 57.4571 229.242H56.0991C56.3511 230.768 57.7651 231.762 59.5151 231.762C61.8811 231.762 63.0151 230.264 63.0151 228.332C63.0151 226.512 61.7131 224.916 59.6411 224.916Z" fill="black" fill-opacity="0.5"/>
<path d="M68.6313 231.762C70.9553 231.762 72.4113 229.62 72.4113 226.61C72.4113 223.586 70.9273 221.43 68.6313 221.43C66.3353 221.43 64.8513 223.586 64.8513 226.61C64.8513 229.62 66.3073 231.762 68.6313 231.762ZM68.6313 230.656C66.9513 230.656 66.2373 229.774 66.2373 227.744V225.476C66.2373 223.404 66.9513 222.522 68.6313 222.522C70.3113 222.522 71.0253 223.404 71.0253 225.476V227.744C71.0253 229.774 70.3113 230.656 68.6313 230.656Z" fill="black" fill-opacity="0.5"/>
<path d="M74.4015 231.622H75.6615V226.988H76.5015L79.8335 231.622H81.4295L77.4815 226.344L81.3315 221.57H79.8895L76.5015 225.868H75.6615V221.57H74.4015V231.622Z" fill="black" fill-opacity="0.5"/>
<path d="M41.0781 266.804H45.6001V265.768H41.0781V266.804Z" fill="black" fill-opacity="0.5"/>
<path d="M50.8228 263.248C50.0108 263.248 49.1988 263.612 48.6388 264.186V261.092H53.7488V259.902H47.5468V265.754H48.6248C48.8068 264.774 49.3388 264.354 50.7388 264.354C52.2228 264.354 52.8668 264.886 52.8668 266.174V267.224C52.8668 268.498 52.2228 268.974 50.7388 268.974C49.3248 268.974 48.7928 268.666 48.6388 267.574H47.2808C47.5328 269.1 48.9468 270.094 50.6968 270.094C53.0628 270.094 54.1968 268.596 54.1968 266.664C54.1968 264.844 52.8948 263.248 50.8228 263.248Z" fill="black" fill-opacity="0.5"/>
<path d="M59.813 270.094C62.137 270.094 63.593 267.952 63.593 264.942C63.593 261.918 62.109 259.762 59.813 259.762C57.517 259.762 56.033 261.918 56.033 264.942C56.033 267.952 57.489 270.094 59.813 270.094ZM59.813 268.988C58.133 268.988 57.419 268.106 57.419 266.076V263.808C57.419 261.736 58.133 260.854 59.813 260.854C61.493 260.854 62.207 261.736 62.207 263.808V266.076C62.207 268.106 61.493 268.988 59.813 268.988Z" fill="black" fill-opacity="0.5"/>
<path d="M69.0552 270.094C71.3792 270.094 72.8352 267.952 72.8352 264.942C72.8352 261.918 71.3512 259.762 69.0552 259.762C66.7592 259.762 65.2752 261.918 65.2752 264.942C65.2752 267.952 66.7312 270.094 69.0552 270.094ZM69.0552 268.988C67.3752 268.988 66.6612 268.106 66.6612 266.076V263.808C66.6612 261.736 67.3752 260.854 69.0552 260.854C70.7352 260.854 71.4492 261.736 71.4492 263.808V266.076C71.4492 268.106 70.7352 268.988 69.0552 268.988Z" fill="black" fill-opacity="0.5"/>
<path d="M74.8253 269.954H76.0853V265.32H76.9253L80.2573 269.954H81.8533L77.9053 264.676L81.7553 259.902H80.3133L76.9253 264.2H76.0853V259.902H74.8253V269.954Z" fill="black" fill-opacity="0.5"/>
<path opacity="0.1" d="M110.328 161.434H427.828V162.434H110.328V161.434Z" fill="#070707"/>
<path opacity="0.1" d="M110.328 209.434H427.828V210.434H110.328V209.434Z" fill="#070707"/>
<path opacity="0.1" d="M110.328 113.434H427.828V114.434H110.328V113.434Z" fill="#070707"/>
<path opacity="0.1" d="M110.328 257.434H427.828V258.434H110.328V257.434Z" fill="#070707"/>
<path opacity="0.1" d="M110.328 305.434H427.828V306.434H110.328V305.434Z" fill="#070707"/>
<path d="M427.828 131.434H411.828V209.434H427.828V131.434Z" fill="#E6E6E6"/>
<path d="M367.828 160.434H351.828V209.434H367.828V160.434Z" fill="#E6E6E6"/>
<path d="M397.828 170.434H381.828V209.434H397.828V170.434Z" fill="#E6E6E6"/>
<path d="M307.828 197.206H291.828V209.434H307.828V197.206Z" fill="#E6E6E6"/>
<path d="M337.828 177.942H321.828V209.434H337.828V177.942Z" fill="#E6E6E6"/>
<path d="M247.828 209.434H231.828V270.434H247.828V209.434Z" fill="#E6E6E6"/>
<path d="M277.078 209.434H261.078V238.434H277.078V209.434Z" fill="#E6E6E6"/>
<path d="M187.828 209.434H171.828V266.434H187.828V209.434Z" fill="#E6E6E6"/>
<path d="M217.828 209.434H201.828V259.434H217.828V209.434Z" fill="#E6E6E6"/>
<path d="M127.828 209.434H111.828V295.434H127.828V209.434Z" fill="#E6E6E6"/>
<path d="M157.828 209.434H141.828V287.257H157.828V209.434Z" fill="#E6E6E6"/>
<path fill-rule="evenodd" clip-rule="evenodd" d="M421.904 130.248C423.006 131.08 423.226 132.647 422.394 133.75L392.823 172.949C392.166 173.82 391.018 174.164 389.99 173.799L360.193 163.204L330.964 181.805C330.943 181.818 330.922 181.831 330.901 181.844L302.396 198.811L268.977 239.732C268.96 239.753 268.942 239.773 268.925 239.794L240.729 272.116C240.014 272.935 238.852 273.199 237.854 272.768L208.423 260.059L180.413 268.258L150.174 289.038C149.938 289.2 149.677 289.32 149.4 289.394L119.485 297.345C118.151 297.7 116.781 296.905 116.427 295.571C116.072 294.237 116.866 292.867 118.201 292.513L147.698 284.672L177.911 263.91C178.129 263.76 178.37 263.646 178.624 263.572L207.883 255.007C208.443 254.843 209.042 254.88 209.577 255.111L238.16 267.454L265.13 236.537L298.802 195.307C298.986 195.081 299.209 194.889 299.46 194.74L328.311 177.566L358.539 158.33C359.188 157.917 359.993 157.826 360.718 158.084L389.936 168.473L418.403 130.738C419.234 129.636 420.802 129.417 421.904 130.248Z" fill="#ED56C4"/>
<path d="M41.0781 48.4336C41.0781 45.1199 43.7644 42.4336 47.0781 42.4336C50.3918 42.4336 53.0781 45.1199 53.0781 48.4336V68.4336C53.0781 71.7473 50.3918 74.4336 47.0781 74.4336C43.7644 74.4336 41.0781 71.7473 41.0781 68.4336V48.4336Z" fill="#E069C0"/>
<path d="M542.958 427.108H510.958V492.434H542.958V427.108Z" fill="#864DFE"/>
<path d="M542.958 444.439H510.958V492.434H542.958V444.439Z" fill="#F2753A"/>
<path d="M542.958 444.439H510.958V452.551H542.958V444.439Z" fill="#EC4862"/>
<path d="M105.078 262.478C105.078 266.896 108.66 270.478 113.078 270.478H313.828C318.246 270.478 321.828 266.896 321.828 262.478V219.586C321.828 215.168 318.246 211.586 313.828 211.586H113.078C108.66 211.586 105.078 215.168 105.078 219.586V262.478Z" fill="#2F2F2F"/>
<path d="M129.714 240.586H131.934L127.734 234.686C129.734 234.066 131.114 232.486 131.114 230.586C131.114 228.146 129.014 226.226 126.334 226.226H122.014V240.586H123.814V234.946H125.914L129.714 240.586ZM123.814 227.826H126.394C128.214 227.826 129.154 228.566 129.154 230.006V231.166C129.154 232.606 128.214 233.346 126.394 233.346H123.814V227.826Z" fill="white"/>
<path d="M142.964 235.886V235.146C142.964 232.206 140.904 229.926 138.264 229.926C135.424 229.926 133.284 232.406 133.284 235.566C133.284 238.626 135.404 240.786 138.264 240.786C140.224 240.786 142.224 239.346 142.924 237.366H140.884C140.724 238.666 139.944 239.226 138.264 239.226C136.144 239.226 135.244 238.386 135.244 236.346V235.886H142.964ZM138.284 231.486C140.264 231.486 141.004 232.266 141.004 234.146V234.406H135.244V234.186C135.244 232.306 136.204 231.486 138.284 231.486Z" fill="white"/>
<path d="M147.373 240.586H150.713L153.673 230.126H151.753L149.433 239.106H148.633L146.293 230.126H144.373L147.373 240.586Z" fill="white"/>
<path d="M164.761 235.886V235.146C164.761 232.206 162.701 229.926 160.061 229.926C157.221 229.926 155.081 232.406 155.081 235.566C155.081 238.626 157.201 240.786 160.061 240.786C162.021 240.786 164.021 239.346 164.721 237.366H162.681C162.521 238.666 161.741 239.226 160.061 239.226C157.941 239.226 157.041 238.386 157.041 236.346V235.886H164.761ZM160.081 231.486C162.061 231.486 162.801 232.266 162.801 234.146V234.406H157.041V234.186C157.041 232.306 158.001 231.486 160.081 231.486Z" fill="white"/>
<path d="M172.07 229.926C170.71 229.926 169.53 230.566 168.73 231.686V230.126H167.07V240.586H168.83V233.946C168.83 232.226 169.63 231.486 171.53 231.486C173.31 231.486 174.09 232.186 174.09 233.846V240.586H175.85V234.046C175.85 231.626 174.25 229.926 172.07 229.926Z" fill="white"/>
<path d="M185.271 230.126V236.786C185.271 238.486 184.491 239.226 182.691 239.226C181.011 239.226 180.291 238.526 180.291 236.886V230.126H178.531V236.466C178.531 239.046 180.111 240.786 182.431 240.786C183.611 240.786 184.691 240.206 185.371 239.246V240.586H187.031V230.126H185.271Z" fill="white"/>
<path d="M199.018 235.886V235.146C199.018 232.206 196.958 229.926 194.318 229.926C191.478 229.926 189.338 232.406 189.338 235.566C189.338 238.626 191.458 240.786 194.318 240.786C196.278 240.786 198.278 239.346 198.978 237.366H196.938C196.778 238.666 195.998 239.226 194.318 239.226C192.198 239.226 191.298 238.386 191.298 236.346V235.886H199.018ZM194.338 231.486C196.318 231.486 197.058 232.266 197.058 234.146V234.406H191.298V234.186C191.298 232.306 192.258 231.486 194.338 231.486Z" fill="white"/>
<path d="M211.133 229.926C209.873 229.926 208.613 230.586 207.853 231.606V226.226H206.093V240.586H207.753V238.986C208.613 240.146 209.793 240.786 211.053 240.786C213.693 240.786 215.813 238.346 215.813 235.306C215.813 232.406 213.653 229.926 211.133 229.926ZM213.853 236.166C213.853 238.306 212.953 239.226 210.853 239.226C208.753 239.226 207.853 238.306 207.853 236.166V234.566C207.853 232.406 208.753 231.486 210.853 231.486C212.953 231.486 213.853 232.406 213.853 234.566V236.166Z" fill="white"/>
<path d="M224.685 230.126V236.786C224.685 238.486 223.905 239.226 222.105 239.226C220.425 239.226 219.705 238.526 219.705 236.886V230.126H217.945V236.466C217.945 239.046 219.525 240.786 221.845 240.786C223.025 240.786 224.105 240.206 224.785 239.246V240.586H226.445V230.126H224.685Z" fill="white"/>
<path d="M239.258 229.926C237.938 229.926 236.618 230.666 235.878 231.746V230.126H234.218V244.726H235.978V239.126C236.818 240.186 237.958 240.786 239.178 240.786C241.818 240.786 243.938 238.346 243.938 235.306C243.938 232.406 241.778 229.926 239.258 229.926ZM241.978 236.166C241.978 238.306 241.078 239.226 238.978 239.226C236.878 239.226 235.978 238.306 235.978 236.166V234.566C235.978 232.406 236.878 231.486 238.978 231.486C241.078 231.486 241.978 232.406 241.978 234.566V236.166Z" fill="white"/>
<path d="M247.89 232.086V230.126H246.23V240.586H247.99V234.206C247.99 232.786 248.63 232.146 250.05 232.146H251.67V229.926C250.05 230.126 248.71 230.886 247.89 232.086Z" fill="white"/>
<path d="M257.58 240.786C260.38 240.786 262.54 238.406 262.54 235.346C262.54 232.286 260.38 229.926 257.58 229.926C254.78 229.926 252.62 232.286 252.62 235.346C252.62 238.406 254.78 240.786 257.58 240.786ZM257.58 239.226C255.48 239.226 254.58 238.306 254.58 236.146V234.546C254.58 232.406 255.48 231.486 257.58 231.486C259.68 231.486 260.58 232.406 260.58 234.546V236.146C260.58 238.306 259.68 239.226 257.58 239.226Z" fill="white"/>
<path d="M272.201 226.226V231.586C271.361 230.526 270.221 229.926 269.001 229.926C266.361 229.926 264.241 232.366 264.241 235.406C264.241 238.306 266.401 240.786 268.921 240.786C270.241 240.786 271.561 240.046 272.301 238.966V240.586H273.961V226.226H272.201ZM272.201 236.146C272.201 238.306 271.301 239.226 269.201 239.226C267.101 239.226 266.201 238.306 266.201 236.146V234.546C266.201 232.406 267.101 231.486 269.201 231.486C271.301 231.486 272.201 232.406 272.201 234.546V236.146Z" fill="white"/>
<path d="M283.533 230.126V236.786C283.533 238.486 282.753 239.226 280.953 239.226C279.273 239.226 278.553 238.526 278.553 236.886V230.126H276.793V236.466C276.793 239.046 278.373 240.786 280.693 240.786C281.873 240.786 282.953 240.206 283.633 239.246V240.586H285.293V230.126H283.533Z" fill="white"/>
<path d="M292.4 240.786C294.64 240.786 296.62 239.006 296.98 236.666H295.1C294.98 238.506 294.2 239.226 292.36 239.226C290.4 239.226 289.56 238.306 289.56 236.146V234.546C289.56 232.406 290.4 231.486 292.36 231.486C294.2 231.486 294.98 232.206 295.1 234.046H296.98C296.62 231.706 294.64 229.926 292.4 229.926C289.68 229.926 287.6 232.286 287.6 235.346C287.6 238.406 289.7 240.786 292.4 240.786Z" fill="white"/>
<path d="M303.321 240.686H304.721V239.106H303.121C302.321 239.106 301.921 238.706 301.921 237.906V231.606H304.921V230.126H301.921V226.226H300.161V230.126H297.881V231.606H300.161V237.706C300.161 239.486 301.421 240.686 303.321 240.686Z" fill="white"/>
<path d="M542.958 466.991H510.958V452.55H542.958V466.991Z" fill="#2BBC62"/>
<g filter="url(#filter0_f_1303_3441)">
<path d="M79.0781 263.434C79.0781 259.016 82.6598 255.434 87.0781 255.434H524.959C529.377 255.434 532.958 259.016 532.958 263.434V517.434C532.958 521.852 529.377 525.434 524.958 525.434H87.0781C82.6598 525.434 79.0781 521.852 79.0781 517.434V263.434Z" fill="black" fill-opacity="0.1"/>
</g>
<path d="M89.0781 263.434C89.0781 259.016 92.6598 255.434 97.0781 255.434H534.959C539.377 255.434 542.958 259.016 542.958 263.434V517.434C542.958 521.852 539.377 525.434 534.958 525.434H97.0781C92.6598 525.434 89.0781 521.852 89.0781 517.434V263.434Z" fill="white"/>
<path d="M135.898 280.074H131.218V294.434H133.018V289.294H135.958C138.518 289.294 140.638 287.234 140.638 284.694C140.638 282.134 138.518 280.074 135.898 280.074ZM138.698 285.314C138.698 286.874 137.718 287.694 135.818 287.694H133.018V281.674H135.778C137.698 281.674 138.698 282.494 138.698 284.054V285.314Z" fill="#070707"/>
<path d="M144.593 285.934V283.974H142.933V294.434H144.693V288.054C144.693 286.634 145.333 285.994 146.753 285.994H148.373V283.774C146.753 283.974 145.413 284.734 144.593 285.934Z" fill="#070707"/>
<path d="M154.283 294.634C157.083 294.634 159.243 292.254 159.243 289.194C159.243 286.134 157.083 283.774 154.283 283.774C151.483 283.774 149.323 286.134 149.323 289.194C149.323 292.254 151.483 294.634 154.283 294.634ZM154.283 293.074C152.183 293.074 151.283 292.154 151.283 289.994V288.394C151.283 286.254 152.183 285.334 154.283 285.334C156.383 285.334 157.283 286.254 157.283 288.394V289.994C157.283 292.154 156.383 293.074 154.283 293.074Z" fill="#070707"/>
<path d="M168.904 280.074V285.434C168.064 284.374 166.924 283.774 165.704 283.774C163.064 283.774 160.944 286.214 160.944 289.254C160.944 292.154 163.104 294.634 165.624 294.634C166.944 294.634 168.264 293.894 169.004 292.814V294.434H170.664V280.074H168.904ZM168.904 289.994C168.904 292.154 168.004 293.074 165.904 293.074C163.804 293.074 162.904 292.154 162.904 289.994V288.394C162.904 286.254 163.804 285.334 165.904 285.334C168.004 285.334 168.904 286.254 168.904 288.394V289.994Z" fill="#070707"/>
<path d="M180.236 283.974V290.634C180.236 292.334 179.456 293.074 177.656 293.074C175.976 293.074 175.256 292.374 175.256 290.734V283.974H173.496V290.314C173.496 292.894 175.076 294.634 177.396 294.634C178.576 294.634 179.656 294.054 180.336 293.094V294.434H181.996V283.974H180.236Z" fill="#070707"/>
<path d="M189.104 294.634C191.344 294.634 193.324 292.854 193.684 290.514H191.804C191.684 292.354 190.904 293.074 189.064 293.074C187.104 293.074 186.264 292.154 186.264 289.994V288.394C186.264 286.254 187.104 285.334 189.064 285.334C190.904 285.334 191.684 286.054 191.804 287.894H193.684C193.324 285.554 191.344 283.774 189.104 283.774C186.384 283.774 184.304 286.134 184.304 289.194C184.304 292.254 186.404 294.634 189.104 294.634Z" fill="#070707"/>
<path d="M200.025 294.534H201.425V292.954H199.825C199.025 292.954 198.625 292.554 198.625 291.754V285.454H201.625V283.974H198.625V280.074H196.865V283.974H194.585V285.454H196.865V291.554C196.865 293.334 198.125 294.534 200.025 294.534Z" fill="#070707"/>
<path d="M208.475 294.434H218.635V292.734H214.435V280.074H208.935V281.774H212.675V292.734H208.475V294.434Z" fill="#070707"/>
<path d="M281.398 280.074H276.718V294.434H278.518V289.294H281.458C284.018 289.294 286.138 287.234 286.138 284.694C286.138 282.134 284.018 280.074 281.398 280.074ZM284.198 285.314C284.198 286.874 283.218 287.694 281.318 287.694H278.518V281.674H281.278C283.198 281.674 284.198 282.494 284.198 284.054V285.314Z" fill="#070707"/>
<path d="M290.093 285.934V283.974H288.433V294.434H290.193V288.054C290.193 286.634 290.833 285.994 292.253 285.994H293.873V283.774C292.253 283.974 290.913 284.734 290.093 285.934Z" fill="#070707"/>
<path d="M299.783 294.634C302.583 294.634 304.743 292.254 304.743 289.194C304.743 286.134 302.583 283.774 299.783 283.774C296.983 283.774 294.823 286.134 294.823 289.194C294.823 292.254 296.983 294.634 299.783 294.634ZM299.783 293.074C297.683 293.074 296.783 292.154 296.783 289.994V288.394C296.783 286.254 297.683 285.334 299.783 285.334C301.883 285.334 302.783 286.254 302.783 288.394V289.994C302.783 292.154 301.883 293.074 299.783 293.074Z" fill="#070707"/>
<path d="M314.404 280.074V285.434C313.564 284.374 312.424 283.774 311.204 283.774C308.564 283.774 306.444 286.214 306.444 289.254C306.444 292.154 308.604 294.634 311.124 294.634C312.444 294.634 313.764 293.894 314.504 292.814V294.434H316.164V280.074H314.404ZM314.404 289.994C314.404 292.154 313.504 293.074 311.404 293.074C309.304 293.074 308.404 292.154 308.404 289.994V288.394C308.404 286.254 309.304 285.334 311.404 285.334C313.504 285.334 314.404 286.254 314.404 288.394V289.994Z" fill="#070707"/>
<path d="M325.736 283.974V290.634C325.736 292.334 324.956 293.074 323.156 293.074C321.476 293.074 320.756 292.374 320.756 290.734V283.974H318.996V290.314C318.996 292.894 320.576 294.634 322.896 294.634C324.076 294.634 325.156 294.054 325.836 293.094V294.434H327.496V283.974H325.736Z" fill="#070707"/>
<path d="M334.604 294.634C336.844 294.634 338.824 292.854 339.184 290.514H337.304C337.184 292.354 336.404 293.074 334.564 293.074C332.604 293.074 331.764 292.154 331.764 289.994V288.394C331.764 286.254 332.604 285.334 334.564 285.334C336.404 285.334 337.184 286.054 337.304 287.894H339.184C338.824 285.554 336.844 283.774 334.604 283.774C331.884 283.774 329.804 286.134 329.804 289.194C329.804 292.254 331.904 294.634 334.604 294.634Z" fill="#070707"/>
<path d="M345.525 294.534H346.925V292.954H345.325C344.525 292.954 344.125 292.554 344.125 291.754V285.454H347.125V283.974H344.125V280.074H342.365V283.974H340.085V285.454H342.365V291.554C342.365 293.334 343.625 294.534 345.525 294.534Z" fill="#070707"/>
<path d="M353.975 294.434H364.135V292.734H359.935V280.074H354.435V281.774H358.175V292.734H353.975V294.434Z" fill="#070707"/>
<path d="M110.496 347.626H111.896L115.648 339.254V337.574H108.578V338.764H114.416V339.324L110.496 347.626Z" fill="#646464"/>
<path d="M121.719 340.92C120.907 340.92 120.095 341.284 119.535 341.858V338.764H124.645V337.574H118.443V343.426H119.521C119.703 342.446 120.235 342.026 121.635 342.026C123.119 342.026 123.763 342.558 123.763 343.846V344.896C123.763 346.17 123.119 346.646 121.635 346.646C120.221 346.646 119.689 346.338 119.535 345.246H118.177C118.429 346.772 119.843 347.766 121.593 347.766C123.959 347.766 125.093 346.268 125.093 344.336C125.093 342.516 123.791 340.92 121.719 340.92Z" fill="#646464"/>
<path d="M130.709 347.766C133.033 347.766 134.489 345.624 134.489 342.614C134.489 339.59 133.005 337.434 130.709 337.434C128.413 337.434 126.929 339.59 126.929 342.614C126.929 345.624 128.385 347.766 130.709 347.766ZM130.709 346.66C129.029 346.66 128.315 345.778 128.315 343.748V341.48C128.315 339.408 129.029 338.526 130.709 338.526C132.389 338.526 133.103 339.408 133.103 341.48V343.748C133.103 345.778 132.389 346.66 130.709 346.66Z" fill="#646464"/>
<path d="M136.479 347.626H137.739V342.992H138.579L141.911 347.626H143.507L139.559 342.348L143.409 337.574H141.967L138.579 341.872H137.739V337.574H136.479V347.626Z" fill="#646464"/>
<path d="M112.12 379.252C111.308 379.252 110.496 379.616 109.936 380.19V377.096H115.046V375.906H108.844V381.758H109.922C110.104 380.778 110.636 380.358 112.036 380.358C113.52 380.358 114.164 380.89 114.164 382.178V383.228C114.164 384.502 113.52 384.978 112.036 384.978C110.622 384.978 110.09 384.67 109.936 383.578H108.578C108.83 385.104 110.244 386.098 111.994 386.098C114.36 386.098 115.494 384.6 115.494 382.668C115.494 380.848 114.192 379.252 112.12 379.252Z" fill="#646464"/>
<path d="M121.11 386.098C123.434 386.098 124.89 383.956 124.89 380.946C124.89 377.922 123.406 375.766 121.11 375.766C118.814 375.766 117.33 377.922 117.33 380.946C117.33 383.956 118.786 386.098 121.11 386.098ZM121.11 384.992C119.43 384.992 118.716 384.11 118.716 382.08V379.812C118.716 377.74 119.43 376.858 121.11 376.858C122.79 376.858 123.504 377.74 123.504 379.812V382.08C123.504 384.11 122.79 384.992 121.11 384.992Z" fill="#646464"/>
<path d="M130.353 386.098C132.677 386.098 134.132 383.956 134.132 380.946C134.132 377.922 132.649 375.766 130.353 375.766C128.057 375.766 126.573 377.922 126.573 380.946C126.573 383.956 128.029 386.098 130.353 386.098ZM130.353 384.992C128.673 384.992 127.958 384.11 127.958 382.08V379.812C127.958 377.74 128.673 376.858 130.353 376.858C132.033 376.858 132.747 377.74 132.747 379.812V382.08C132.747 384.11 132.033 384.992 130.353 384.992Z" fill="#646464"/>
<path d="M136.123 385.958H137.383V381.324H138.223L141.555 385.958H143.151L139.203 380.68L143.053 375.906H141.611L138.223 380.204H137.383V375.906H136.123V385.958Z" fill="#646464"/>
<path d="M108.844 424.29H115.438V423.1H110.076V422.54L113.156 420.188C114.542 419.124 115.242 418.088 115.242 416.954C115.242 415.4 114.024 414.098 112.022 414.098C110.16 414.098 108.858 415.288 108.578 417.08H109.908C109.908 415.764 110.58 415.19 112.022 415.19C113.45 415.19 113.898 415.666 113.898 416.786V417.29C113.898 418.004 113.366 418.564 112.232 419.46L108.844 422.106V424.29Z" fill="#646464"/>
<path d="M120.938 417.584C120.126 417.584 119.314 417.948 118.754 418.522V415.428H123.864V414.238H117.662V420.09H118.74C118.922 419.11 119.454 418.69 120.854 418.69C122.338 418.69 122.982 419.222 122.982 420.51V421.56C122.982 422.834 122.338 423.31 120.854 423.31C119.44 423.31 118.908 423.002 118.754 421.91H117.396C117.648 423.436 119.062 424.43 120.812 424.43C123.178 424.43 124.312 422.932 124.312 421C124.312 419.18 123.01 417.584 120.938 417.584Z" fill="#646464"/>
<path d="M129.929 424.43C132.253 424.43 133.709 422.288 133.709 419.278C133.709 416.254 132.225 414.098 129.929 414.098C127.633 414.098 126.149 416.254 126.149 419.278C126.149 422.288 127.605 424.43 129.929 424.43ZM129.929 423.324C128.249 423.324 127.535 422.442 127.535 420.412V418.144C127.535 416.072 128.249 415.19 129.929 415.19C131.609 415.19 132.323 416.072 132.323 418.144V420.412C132.323 422.442 131.609 423.324 129.929 423.324Z" fill="#646464"/>
<path d="M135.699 424.29H136.959V419.656H137.799L141.131 424.29H142.727L138.779 419.012L142.629 414.238H141.187L137.799 418.536H136.959V414.238H135.699V424.29Z" fill="#646464"/>
<path d="M112.358 462.762C114.682 462.762 116.138 460.62 116.138 457.61C116.138 454.586 114.654 452.43 112.358 452.43C110.062 452.43 108.578 454.586 108.578 457.61C108.578 460.62 110.034 462.762 112.358 462.762ZM112.358 461.656C110.678 461.656 109.964 460.774 109.964 458.744V456.476C109.964 454.404 110.678 453.522 112.358 453.522C114.038 453.522 114.752 454.404 114.752 456.476V458.744C114.752 460.774 114.038 461.656 112.358 461.656Z" fill="#646464"/>
<path opacity="0.1" d="M182.578 395.434H518.561V396.434H182.578V395.434Z" fill="#070707"/>
<path opacity="0.1" d="M182.578 443.434H518.561V444.434H182.578V443.434Z" fill="#070707"/>
<path opacity="0.1" d="M182.578 491.434H518.561V492.434H182.578V491.434Z" fill="#070707"/>
<path opacity="0.1" d="M182.578 347.434H518.561V348.434H182.578V347.434Z" fill="#070707"/>
<path d="M231.578 396.434H199.578V491.434H231.578V396.434Z" fill="#864DFE"/>
<path d="M231.578 421.638H199.578V491.434H231.578V421.638Z" fill="#F2753A"/>
<path d="M231.578 421.638H199.578V433.434H231.578V421.638Z" fill="#EC4862"/>
<path d="M231.578 454.434H199.578V433.434H231.578V454.434Z" fill="#2BBC62"/>
<path d="M206.474 514.574C208.266 514.574 209.582 513.258 209.582 511.452V504.382H208.322V511.312C208.322 512.88 207.832 513.44 206.474 513.44C204.99 513.44 204.556 512.964 204.556 511.312H203.254C203.254 513.202 204.598 514.574 206.474 514.574Z" fill="#646464"/>
<path d="M214.476 506.972C212.922 506.972 211.704 508.078 211.466 509.59H212.726C212.782 508.47 213.16 508.064 214.434 508.064C215.652 508.064 216.016 508.484 216.016 509.59V510.248H213.986C212.404 510.248 211.284 511.102 211.284 512.306C211.284 513.566 212.446 514.574 213.916 514.574C214.868 514.574 215.638 514.224 216.086 513.608V514.434H217.248V509.66C217.248 508.05 216.142 506.972 214.476 506.972ZM214.168 513.482C213.076 513.482 212.614 513.188 212.614 512.502V512.11C212.614 511.564 212.95 511.284 213.636 511.284H216.016V512.194C216.016 513.09 215.456 513.482 214.168 513.482Z" fill="#646464"/>
<path d="M222.738 506.972C221.786 506.972 220.96 507.42 220.4 508.204V507.112H219.238V514.434H220.47V509.786C220.47 508.582 221.03 508.064 222.36 508.064C223.606 508.064 224.152 508.554 224.152 509.716V514.434H225.384V509.856C225.384 508.162 224.264 506.972 222.738 506.972Z" fill="#646464"/>
<path d="M249.626 514.434H250.886V510.08H254.708V508.96H250.886V505.488H255.128V504.382H249.626V514.434Z" fill="#646464"/>
<path d="M262.704 511.144V510.626C262.704 508.568 261.262 506.972 259.414 506.972C257.426 506.972 255.928 508.708 255.928 510.92C255.928 513.062 257.412 514.574 259.414 514.574C260.786 514.574 262.186 513.566 262.676 512.18H261.248C261.136 513.09 260.59 513.482 259.414 513.482C257.93 513.482 257.3 512.894 257.3 511.466V511.144H262.704ZM259.428 508.064C260.814 508.064 261.332 508.61 261.332 509.926V510.108H257.3V509.954C257.3 508.638 257.972 508.064 259.428 508.064Z" fill="#646464"/>
<path d="M267.849 506.972C266.967 506.972 266.085 507.434 265.553 508.148V504.382H264.321V514.434H265.483V513.314C266.085 514.126 266.911 514.574 267.793 514.574C269.641 514.574 271.125 512.866 271.125 510.738C271.125 508.708 269.613 506.972 267.849 506.972ZM269.753 511.34C269.753 512.838 269.123 513.482 267.653 513.482C266.183 513.482 265.553 512.838 265.553 511.34V510.22C265.553 508.708 266.183 508.064 267.653 508.064C269.123 508.064 269.753 508.708 269.753 510.22V511.34Z" fill="#646464"/>
<path d="M292.616 514.434H293.764V505.502H294.394L296.494 514.434H298.79L300.918 505.502H301.548V514.434H302.724V504.382H299.966L297.922 513.314H297.418L295.374 504.382H292.616V514.434Z" fill="#646464"/>
<path d="M307.69 506.972C306.136 506.972 304.918 508.078 304.68 509.59H305.94C305.996 508.47 306.374 508.064 307.648 508.064C308.866 508.064 309.23 508.484 309.23 509.59V510.248H307.2C305.618 510.248 304.498 511.102 304.498 512.306C304.498 513.566 305.66 514.574 307.13 514.574C308.082 514.574 308.852 514.224 309.3 513.608V514.434H310.462V509.66C310.462 508.05 309.356 506.972 307.69 506.972ZM307.382 513.482C306.29 513.482 305.828 513.188 305.828 512.502V512.11C305.828 511.564 306.164 511.284 306.85 511.284H309.23V512.194C309.23 513.09 308.67 513.482 307.382 513.482Z" fill="#646464"/>
<path d="M313.613 508.484V507.112H312.451V514.434H313.683V509.968C313.683 508.974 314.131 508.526 315.125 508.526H316.259V506.972C315.125 507.112 314.187 507.644 313.613 508.484Z" fill="#646464"/>
<path d="M345.407 514.434H346.751L343.811 504.382H341.571L338.589 514.434H339.877L340.731 511.34H344.539L345.407 514.434ZM341.053 510.22L342.355 505.502H342.915L344.231 510.22H341.053Z" fill="#646464"/>
<path d="M351.89 506.972C350.966 506.972 350.042 507.49 349.524 508.246V507.112H348.362V517.332H349.594V513.412C350.182 514.154 350.98 514.574 351.834 514.574C353.682 514.574 355.166 512.866 355.166 510.738C355.166 508.708 353.654 506.972 351.89 506.972ZM353.794 511.34C353.794 512.838 353.164 513.482 351.694 513.482C350.224 513.482 349.594 512.838 349.594 511.34V510.22C349.594 508.708 350.224 508.064 351.694 508.064C353.164 508.064 353.794 508.708 353.794 510.22V511.34Z" fill="#646464"/>
<path d="M357.932 508.484V507.112H356.77V514.434H358.002V509.968C358.002 508.974 358.45 508.526 359.444 508.526H360.578V506.972C359.444 507.112 358.506 507.644 357.932 508.484Z" fill="#646464"/>
<path d="M380.699 514.434H381.847V505.502H382.477L384.577 514.434H386.873L389.001 505.502H389.631V514.434H390.807V504.382H388.049L386.005 513.314H385.501L383.457 504.382H380.699V514.434Z" fill="#646464"/>
<path d="M395.774 506.972C394.22 506.972 393.002 508.078 392.764 509.59H394.024C394.08 508.47 394.458 508.064 395.732 508.064C396.95 508.064 397.314 508.484 397.314 509.59V510.248H395.284C393.702 510.248 392.582 511.102 392.582 512.306C392.582 513.566 393.744 514.574 395.214 514.574C396.166 514.574 396.936 514.224 397.384 513.608V514.434H398.546V509.66C398.546 508.05 397.44 506.972 395.774 506.972ZM395.466 513.482C394.374 513.482 393.912 513.188 393.912 512.502V512.11C393.912 511.564 394.248 511.284 394.934 511.284H397.314V512.194C397.314 513.09 396.754 513.482 395.466 513.482Z" fill="#646464"/>
<path d="M402.203 517.332H403.533L406.585 507.112H405.241L403.435 513.398H402.875L401.181 507.112H399.837L402.007 514.434H403.113L402.203 517.332Z" fill="#646464"/>
<path d="M429.689 514.574C431.481 514.574 432.797 513.258 432.797 511.452V504.382H431.537V511.312C431.537 512.88 431.047 513.44 429.689 513.44C428.205 513.44 427.771 512.964 427.771 511.312H426.469C426.469 513.202 427.813 514.574 429.689 514.574Z" fill="#646464"/>
<path d="M439.526 507.112V511.774C439.526 512.964 438.98 513.482 437.72 513.482C436.544 513.482 436.04 512.992 436.04 511.844V507.112H434.808V511.55C434.808 513.356 435.914 514.574 437.538 514.574C438.364 514.574 439.12 514.168 439.596 513.496V514.434H440.758V507.112H439.526Z" fill="#646464"/>
<path d="M446.363 506.972C445.411 506.972 444.585 507.42 444.025 508.204V507.112H442.863V514.434H444.095V509.786C444.095 508.582 444.655 508.064 445.985 508.064C447.231 508.064 447.777 508.554 447.777 509.716V514.434H449.009V509.856C449.009 508.162 447.889 506.972 446.363 506.972Z" fill="#646464"/>
<path d="M476.569 514.574C478.361 514.574 479.677 513.258 479.677 511.452V504.382H478.417V511.312C478.417 512.88 477.927 513.44 476.569 513.44C475.085 513.44 474.651 512.964 474.651 511.312H473.349C473.349 513.202 474.693 514.574 476.569 514.574Z" fill="#646464"/>
<path d="M486.405 507.112V511.774C486.405 512.964 485.859 513.482 484.599 513.482C483.423 513.482 482.919 512.992 482.919 511.844V507.112H481.687V511.55C481.687 513.356 482.793 514.574 484.417 514.574C485.243 514.574 485.999 514.168 486.475 513.496V514.434H487.637V507.112H486.405Z" fill="#646464"/>
<path d="M489.743 514.434H490.975V504.382H489.743V514.434Z" fill="#646464"/>
<path d="M276.078 364.723H244.078V492.434H276.078V364.723Z" fill="#864DFE"/>
<path d="M276.078 398.606H244.078V492.434H276.078V398.606Z" fill="#F2753A"/>
<path d="M276.078 398.606H244.078V414.463H276.078V398.606Z" fill="#EC4862"/>
<path d="M276.078 442.694H244.078V414.463H276.078V442.694Z" fill="#2BBC62"/>
<path d="M320.559 449.434H288.559V492.434H320.559V449.434Z" fill="#864DFE"/>
<path d="M320.559 460.842H288.559V492.434H320.559V460.842Z" fill="#F2753A"/>
<path d="M320.559 460.842H288.559V466.181H320.559V460.842Z" fill="#EC4862"/>
<path d="M320.559 475.687H288.559V466.181H320.559V475.687Z" fill="#2BBC62"/>
<path d="M365.039 421.638H333.039V492.434H365.039V421.638Z" fill="#864DFE"/>
<path d="M365.039 440.421H333.039V492.434H365.039V440.421Z" fill="#F2753A"/>
<path d="M365.039 440.421H333.039V449.211H365.039V440.421Z" fill="#EC4862"/>
<path d="M365.039 464.861H333.039V449.211H365.039V464.861Z" fill="#2BBC62"/>
<path d="M409.519 470.333H377.519V492.434H409.519V470.333Z" fill="#864DFE"/>
<path d="M409.519 476.197H377.519V492.434H409.519V476.197Z" fill="#F2753A"/>
<path d="M409.519 476.197H377.519V478.941H409.519V476.197Z" fill="#EC4862"/>
<path d="M409.519 483.826H377.519V478.941H409.519V483.826Z" fill="#2BBC62"/>
<path d="M453.999 449.434H421.999V492.434H453.999V449.434Z" fill="#864DFE"/>
<path d="M453.999 460.842H421.999V492.434H453.999V460.842Z" fill="#F2753A"/>
<path d="M453.999 460.842H421.999V466.181H453.999V460.842Z" fill="#EC4862"/>
<path d="M453.999 475.687H421.999V466.181H453.999V475.687Z" fill="#2BBC62"/>
<path d="M498.479 385.434H466.479V492.434H498.479V385.434Z" fill="#864DFE"/>
<path d="M498.479 413.822H466.479V492.434H498.479V413.822Z" fill="#F2753A"/>
<path d="M498.479 413.822H466.479V427.108H498.479V413.822Z" fill="#EC4862"/>
<path d="M498.479 450.76H466.479V427.107H498.479V450.76Z" fill="#2BBC62"/>
<path d="M105.078 277.434C105.078 274.12 107.764 271.434 111.078 271.434C114.392 271.434 117.078 274.12 117.078 277.434V297.434C117.078 300.748 114.392 303.434 111.078 303.434C107.764 303.434 105.078 300.748 105.078 297.434V277.434Z" fill="#F2753A"/>
<path d="M250.578 277.434C250.578 274.12 253.264 271.434 256.578 271.434C259.892 271.434 262.578 274.12 262.578 277.434V297.434C262.578 300.748 259.892 303.434 256.578 303.434C253.264 303.434 250.578 300.748 250.578 297.434V277.434Z" fill="#864DFE"/>
<g filter="url(#filter1_f_1303_3441)">
<path d="M331.039 221.906C331.039 217.487 334.62 213.906 339.039 213.906H632.459C636.877 213.906 640.459 217.487 640.459 221.906V422.961C640.459 427.38 636.877 430.961 632.459 430.961H339.039C334.62 430.961 331.039 427.38 331.039 422.961V221.906Z" fill="black" fill-opacity="0.1"/>
</g>
<path d="M341.039 211.906C341.039 207.487 344.62 203.906 349.039 203.906H642.459C646.877 203.906 650.459 207.487 650.459 211.906V412.961C650.459 417.38 646.877 420.961 642.459 420.961H349.039C344.62 420.961 341.039 417.38 341.039 412.961V211.906Z" fill="white"/>
<path d="M375.936 244.086C378.546 244.086 380.742 241.908 381.156 238.938H379.266C379.212 241.386 377.916 242.628 375.936 242.628C373.65 242.628 372.39 241.242 372.39 238.524V236.382C372.39 233.646 373.65 232.26 375.936 232.26C377.916 232.26 379.212 233.502 379.266 235.95H381.156C380.742 232.98 378.546 230.802 375.936 230.802C372.858 230.802 370.554 233.718 370.554 237.444C370.554 241.17 372.858 244.086 375.936 244.086Z" fill="black"/>
<path d="M386.699 234.312C384.701 234.312 383.135 235.734 382.829 237.678H384.449C384.521 236.238 385.007 235.716 386.645 235.716C388.211 235.716 388.679 236.256 388.679 237.678V238.524H386.069C384.035 238.524 382.595 239.622 382.595 241.17C382.595 242.79 384.089 244.086 385.979 244.086C387.203 244.086 388.193 243.636 388.769 242.844V243.906H390.263V237.768C390.263 235.698 388.841 234.312 386.699 234.312ZM386.303 242.682C384.899 242.682 384.305 242.304 384.305 241.422V240.918C384.305 240.216 384.737 239.856 385.619 239.856H388.679V241.026C388.679 242.178 387.959 242.682 386.303 242.682Z" fill="black"/>
<path d="M396.258 244.086C398.364 244.086 399.984 242.682 399.984 241.098C399.984 239.676 398.976 238.704 397.266 238.524L395.538 238.344C394.602 238.254 394.206 237.93 394.206 237.264V236.904C394.206 236.076 394.8 235.716 396.168 235.716C397.626 235.716 398.148 236.112 398.202 237.3H399.876C399.642 235.428 398.04 234.312 396.132 234.312C394.242 234.312 392.604 235.698 392.604 237.246C392.604 238.686 393.54 239.64 395.232 239.82L396.996 240C397.986 240.108 398.4 240.396 398.4 241.062V241.458C398.4 242.286 397.734 242.682 396.222 242.682C394.602 242.682 394.026 242.304 393.954 241.098H392.28C392.478 242.862 394.08 244.086 396.258 244.086Z" fill="black"/>
<path d="M406.585 234.312C405.379 234.312 404.353 234.852 403.633 235.788V230.982H402.049V243.906H403.633V237.93C403.633 236.382 404.353 235.716 406.081 235.716C407.719 235.716 408.403 236.346 408.403 237.84V243.906H409.987V238.02C409.987 235.824 408.583 234.312 406.585 234.312Z" fill="black"/>
<path d="M421.368 234.312C420.234 234.312 419.1 234.906 418.416 235.824V230.982H416.832V243.906H418.326V242.466C419.1 243.51 420.162 244.086 421.296 244.086C423.672 244.086 425.58 241.89 425.58 239.154C425.58 236.544 423.636 234.312 421.368 234.312ZM423.816 239.928C423.816 241.854 423.006 242.682 421.116 242.682C419.226 242.682 418.416 241.854 418.416 239.928V238.488C418.416 236.544 419.226 235.716 421.116 235.716C423.006 235.716 423.816 236.544 423.816 238.488V239.928Z" fill="black"/>
<path d="M431.207 234.312C429.209 234.312 427.643 235.734 427.337 237.678H428.957C429.029 236.238 429.515 235.716 431.153 235.716C432.719 235.716 433.187 236.256 433.187 237.678V238.524H430.577C428.543 238.524 427.103 239.622 427.103 241.17C427.103 242.79 428.597 244.086 430.487 244.086C431.711 244.086 432.701 243.636 433.277 242.844V243.906H434.771V237.768C434.771 235.698 433.349 234.312 431.207 234.312ZM430.811 242.682C429.407 242.682 428.813 242.304 428.813 241.422V240.918C428.813 240.216 429.245 239.856 430.127 239.856H433.187V241.026C433.187 242.178 432.467 242.682 430.811 242.682Z" fill="black"/>
<path d="M437.328 243.906H438.912V230.982H437.328V243.906Z" fill="black"/>
<path d="M445.181 234.312C443.183 234.312 441.617 235.734 441.311 237.678H442.931C443.003 236.238 443.489 235.716 445.127 235.716C446.693 235.716 447.161 236.256 447.161 237.678V238.524H444.551C442.517 238.524 441.077 239.622 441.077 241.17C441.077 242.79 442.571 244.086 444.461 244.086C445.685 244.086 446.675 243.636 447.251 242.844V243.906H448.745V237.768C448.745 235.698 447.323 234.312 445.181 234.312ZM444.785 242.682C443.381 242.682 442.787 242.304 442.787 241.422V240.918C442.787 240.216 443.219 239.856 444.101 239.856H447.161V241.026C447.161 242.178 446.441 242.682 444.785 242.682Z" fill="black"/>
<path d="M455.803 234.312C454.579 234.312 453.517 234.888 452.797 235.896V234.492H451.303V243.906H452.887V237.93C452.887 236.382 453.607 235.716 455.317 235.716C456.919 235.716 457.621 236.346 457.621 237.84V243.906H459.205V238.02C459.205 235.842 457.765 234.312 455.803 234.312Z" fill="black"/>
<path d="M465.452 244.086C467.468 244.086 469.25 242.484 469.574 240.378H467.882C467.774 242.034 467.072 242.682 465.416 242.682C463.652 242.682 462.896 241.854 462.896 239.91V238.47C462.896 236.544 463.652 235.716 465.416 235.716C467.072 235.716 467.774 236.364 467.882 238.02H469.574C469.25 235.914 467.468 234.312 465.452 234.312C463.004 234.312 461.132 236.436 461.132 239.19C461.132 241.944 463.022 244.086 465.452 244.086Z" fill="black"/>
<path d="M479.81 239.676V239.01C479.81 236.364 477.956 234.312 475.58 234.312C473.024 234.312 471.098 236.544 471.098 239.388C471.098 242.142 473.006 244.086 475.58 244.086C477.344 244.086 479.144 242.79 479.774 241.008H477.938C477.794 242.178 477.092 242.682 475.58 242.682C473.672 242.682 472.862 241.926 472.862 240.09V239.676H479.81ZM475.598 235.716C477.38 235.716 478.046 236.418 478.046 238.11V238.344H472.862V238.146C472.862 236.454 473.726 235.716 475.598 235.716Z" fill="black"/>
<path d="M377.484 287.192C378.726 286.634 379.554 285.554 379.554 284.402C379.554 282.476 377.772 280.982 375.486 280.982H371.22V293.906H375.666C378.042 293.906 379.968 292.268 379.968 290.216C379.968 288.902 378.978 287.714 377.484 287.192ZM375.504 282.422C376.854 282.422 377.808 283.088 377.808 284.042V284.888C377.808 285.842 376.854 286.508 375.504 286.508H372.84V282.422H375.504ZM378.222 290.684C378.222 291.71 377.178 292.466 375.72 292.466H372.84V287.948H375.72C377.178 287.948 378.222 288.704 378.222 289.73V290.684Z" fill="black"/>
<path d="M386.318 294.086C388.838 294.086 390.782 291.944 390.782 289.19C390.782 286.436 388.838 284.312 386.318 284.312C383.798 284.312 381.854 286.436 381.854 289.19C381.854 291.944 383.798 294.086 386.318 294.086ZM386.318 292.682C384.428 292.682 383.618 291.854 383.618 289.91V288.47C383.618 286.544 384.428 285.716 386.318 285.716C388.208 285.716 389.018 286.544 389.018 288.47V289.91C389.018 291.854 388.208 292.682 386.318 292.682Z" fill="black"/>
<path d="M400.728 293.906H402.456L398.676 280.982H395.796L391.962 293.906H393.618L394.716 289.928H399.612L400.728 293.906ZM395.13 288.488L396.804 282.422H397.524L399.216 288.488H395.13Z" fill="black"/>
<path d="M419.148 284.312C417.87 284.312 416.754 284.978 416.052 286.112C415.566 284.996 414.504 284.312 413.172 284.312C412.02 284.312 410.994 284.888 410.31 285.878V284.492H408.816V293.906H410.4V287.93C410.4 286.382 411.084 285.716 412.704 285.716C414.162 285.716 414.792 286.346 414.792 287.84V293.906H416.376V287.93C416.376 286.382 417.06 285.716 418.68 285.716C420.138 285.716 420.768 286.346 420.768 287.84V293.906H422.352V288.02C422.352 285.824 421.038 284.312 419.148 284.312Z" fill="black"/>
<path d="M428.464 284.312C426.466 284.312 424.9 285.734 424.594 287.678H426.214C426.286 286.238 426.772 285.716 428.41 285.716C429.976 285.716 430.444 286.256 430.444 287.678V288.524H427.834C425.8 288.524 424.36 289.622 424.36 291.17C424.36 292.79 425.854 294.086 427.744 294.086C428.968 294.086 429.958 293.636 430.534 292.844V293.906H432.028V287.768C432.028 285.698 430.606 284.312 428.464 284.312ZM428.068 292.682C426.664 292.682 426.07 292.304 426.07 291.422V290.918C426.07 290.216 426.502 289.856 427.384 289.856H430.444V291.026C430.444 292.178 429.724 292.682 428.068 292.682Z" fill="black"/>
<path d="M435.378 283.322C436.062 283.322 436.584 282.8 436.584 282.098C436.584 281.378 436.062 280.874 435.378 280.874C434.676 280.874 434.154 281.378 434.154 282.098C434.154 282.8 434.676 283.322 435.378 283.322ZM434.586 293.906H436.17V284.492H434.586V293.906Z" fill="black"/>
<path d="M443.375 284.312C442.151 284.312 441.089 284.888 440.369 285.896V284.492H438.875V293.906H440.459V287.93C440.459 286.382 441.179 285.716 442.889 285.716C444.491 285.716 445.193 286.346 445.193 287.84V293.906H446.777V288.02C446.777 285.842 445.337 284.312 443.375 284.312Z" fill="black"/>
<path d="M375.936 319.086C378.546 319.086 380.742 316.908 381.156 313.938H379.266C379.212 316.386 377.916 317.628 375.936 317.628C373.65 317.628 372.39 316.242 372.39 313.524V311.382C372.39 308.646 373.65 307.26 375.936 307.26C377.916 307.26 379.212 308.502 379.266 310.95H381.156C380.742 307.98 378.546 305.802 375.936 305.802C372.858 305.802 370.554 308.718 370.554 312.444C370.554 316.17 372.858 319.086 375.936 319.086Z" fill="black"/>
<path d="M384.629 311.256V309.492H383.135V318.906H384.719V313.164C384.719 311.886 385.295 311.31 386.573 311.31H388.031V309.312C386.573 309.492 385.367 310.176 384.629 311.256Z" fill="black"/>
<path d="M397.598 314.676V314.01C397.598 311.364 395.744 309.312 393.368 309.312C390.812 309.312 388.886 311.544 388.886 314.388C388.886 317.142 390.794 319.086 393.368 319.086C395.132 319.086 396.932 317.79 397.562 316.008H395.726C395.582 317.178 394.88 317.682 393.368 317.682C391.46 317.682 390.65 316.926 390.65 315.09V314.676H397.598ZM393.386 310.716C395.168 310.716 395.834 311.418 395.834 313.11V313.344H390.65V313.146C390.65 311.454 391.514 310.716 393.386 310.716Z" fill="black"/>
<path d="M406.298 305.982V310.806C405.542 309.852 404.516 309.312 403.418 309.312C401.042 309.312 399.134 311.508 399.134 314.244C399.134 316.854 401.078 319.086 403.346 319.086C404.534 319.086 405.722 318.42 406.388 317.448V318.906H407.882V305.982H406.298ZM406.298 314.91C406.298 316.854 405.488 317.682 403.598 317.682C401.708 317.682 400.898 316.854 400.898 314.91V313.47C400.898 311.544 401.708 310.716 403.598 310.716C405.488 310.716 406.298 311.544 406.298 313.47V314.91Z" fill="black"/>
<path d="M411.366 308.322C412.05 308.322 412.572 307.8 412.572 307.098C412.572 306.378 412.05 305.874 411.366 305.874C410.664 305.874 410.142 306.378 410.142 307.098C410.142 307.8 410.664 308.322 411.366 308.322ZM410.574 318.906H412.158V309.492H410.574V318.906Z" fill="black"/>
<path d="M418.679 318.996H419.939V317.574H418.499C417.779 317.574 417.419 317.214 417.419 316.494V310.824H420.119V309.492H417.419V305.982H415.835V309.492H413.783V310.824H415.835V316.314C415.835 317.916 416.969 318.996 418.679 318.996Z" fill="black"/>
<path d="M430.172 319.086C432.188 319.086 433.97 317.484 434.294 315.378H432.602C432.494 317.034 431.792 317.682 430.136 317.682C428.372 317.682 427.616 316.854 427.616 314.91V313.47C427.616 311.544 428.372 310.716 430.136 310.716C431.792 310.716 432.494 311.364 432.602 313.02H434.294C433.97 310.914 432.188 309.312 430.172 309.312C427.724 309.312 425.852 311.436 425.852 314.19C425.852 316.944 427.742 319.086 430.172 319.086Z" fill="black"/>
<path d="M439.925 309.312C437.927 309.312 436.361 310.734 436.055 312.678H437.675C437.747 311.238 438.233 310.716 439.871 310.716C441.437 310.716 441.905 311.256 441.905 312.678V313.524H439.295C437.261 313.524 435.821 314.622 435.821 316.17C435.821 317.79 437.315 319.086 439.205 319.086C440.429 319.086 441.419 318.636 441.995 317.844V318.906H443.489V312.768C443.489 310.698 442.067 309.312 439.925 309.312ZM439.529 317.682C438.125 317.682 437.531 317.304 437.531 316.422V315.918C437.531 315.216 437.963 314.856 438.845 314.856H441.905V316.026C441.905 317.178 441.185 317.682 439.529 317.682Z" fill="black"/>
<path d="M447.541 311.256V309.492H446.047V318.906H447.631V313.164C447.631 311.886 448.207 311.31 449.485 311.31H450.943V309.312C449.485 309.492 448.279 310.176 447.541 311.256Z" fill="black"/>
<path d="M458.962 305.982V310.806C458.206 309.852 457.18 309.312 456.082 309.312C453.706 309.312 451.798 311.508 451.798 314.244C451.798 316.854 453.742 319.086 456.01 319.086C457.198 319.086 458.386 318.42 459.052 317.448V318.906H460.546V305.982H458.962ZM458.962 314.91C458.962 316.854 458.152 317.682 456.262 317.682C454.372 317.682 453.562 316.854 453.562 314.91V313.47C453.562 311.544 454.372 310.716 456.262 310.716C458.152 310.716 458.962 311.544 458.962 313.47V314.91Z" fill="black"/>
<path d="M467.329 318.906H476.473V317.376H472.693V305.982H467.743V307.512H471.109V317.376H467.329V318.906Z" fill="black"/>
<path d="M375.936 344.086C378.546 344.086 380.742 341.908 381.156 338.938H379.266C379.212 341.386 377.916 342.628 375.936 342.628C373.65 342.628 372.39 341.242 372.39 338.524V336.382C372.39 333.646 373.65 332.26 375.936 332.26C377.916 332.26 379.212 333.502 379.266 335.95H381.156C380.742 332.98 378.546 330.802 375.936 330.802C372.858 330.802 370.554 333.718 370.554 337.444C370.554 341.17 372.858 344.086 375.936 344.086Z" fill="black"/>
<path d="M384.629 336.256V334.492H383.135V343.906H384.719V338.164C384.719 336.886 385.295 336.31 386.573 336.31H388.031V334.312C386.573 334.492 385.367 335.176 384.629 336.256Z" fill="black"/>
<path d="M397.598 339.676V339.01C397.598 336.364 395.744 334.312 393.368 334.312C390.812 334.312 388.886 336.544 388.886 339.388C388.886 342.142 390.794 344.086 393.368 344.086C395.132 344.086 396.932 342.79 397.562 341.008H395.726C395.582 342.178 394.88 342.682 393.368 342.682C391.46 342.682 390.65 341.926 390.65 340.09V339.676H397.598ZM393.386 335.716C395.168 335.716 395.834 336.418 395.834 338.11V338.344H390.65V338.146C390.65 336.454 391.514 335.716 393.386 335.716Z" fill="black"/>
<path d="M406.298 330.982V335.806C405.542 334.852 404.516 334.312 403.418 334.312C401.042 334.312 399.134 336.508 399.134 339.244C399.134 341.854 401.078 344.086 403.346 344.086C404.534 344.086 405.722 343.42 406.388 342.448V343.906H407.882V330.982H406.298ZM406.298 339.91C406.298 341.854 405.488 342.682 403.598 342.682C401.708 342.682 400.898 341.854 400.898 339.91V338.47C400.898 336.544 401.708 335.716 403.598 335.716C405.488 335.716 406.298 336.544 406.298 338.47V339.91Z" fill="black"/>
<path d="M411.366 333.322C412.05 333.322 412.572 332.8 412.572 332.098C412.572 331.378 412.05 330.874 411.366 330.874C410.664 330.874 410.142 331.378 410.142 332.098C410.142 332.8 410.664 333.322 411.366 333.322ZM410.574 343.906H412.158V334.492H410.574V343.906Z" fill="black"/>
<path d="M418.679 343.996H419.939V342.574H418.499C417.779 342.574 417.419 342.214 417.419 341.494V335.824H420.119V334.492H417.419V330.982H415.835V334.492H413.783V335.824H415.835V341.314C415.835 342.916 416.969 343.996 418.679 343.996Z" fill="black"/>
<path d="M430.172 344.086C432.188 344.086 433.97 342.484 434.294 340.378H432.602C432.494 342.034 431.792 342.682 430.136 342.682C428.372 342.682 427.616 341.854 427.616 339.91V338.47C427.616 336.544 428.372 335.716 430.136 335.716C431.792 335.716 432.494 336.364 432.602 338.02H434.294C433.97 335.914 432.188 334.312 430.172 334.312C427.724 334.312 425.852 336.436 425.852 339.19C425.852 341.944 427.742 344.086 430.172 344.086Z" fill="black"/>
<path d="M439.925 334.312C437.927 334.312 436.361 335.734 436.055 337.678H437.675C437.747 336.238 438.233 335.716 439.871 335.716C441.437 335.716 441.905 336.256 441.905 337.678V338.524H439.295C437.261 338.524 435.821 339.622 435.821 341.17C435.821 342.79 437.315 344.086 439.205 344.086C440.429 344.086 441.419 343.636 441.995 342.844V343.906H443.489V337.768C443.489 335.698 442.067 334.312 439.925 334.312ZM439.529 342.682C438.125 342.682 437.531 342.304 437.531 341.422V340.918C437.531 340.216 437.963 339.856 438.845 339.856H441.905V341.026C441.905 342.178 441.185 342.682 439.529 342.682Z" fill="black"/>
<path d="M447.541 336.256V334.492H446.047V343.906H447.631V338.164C447.631 336.886 448.207 336.31 449.485 336.31H450.943V334.312C449.485 334.492 448.279 335.176 447.541 336.256Z" fill="black"/>
<path d="M458.962 330.982V335.806C458.206 334.852 457.18 334.312 456.082 334.312C453.706 334.312 451.798 336.508 451.798 339.244C451.798 341.854 453.742 344.086 456.01 344.086C457.198 344.086 458.386 343.42 459.052 342.448V343.906H460.546V330.982H458.962ZM458.962 339.91C458.962 341.854 458.152 342.682 456.262 342.682C454.372 342.682 453.562 341.854 453.562 339.91V338.47C453.562 336.544 454.372 335.716 456.262 335.716C458.152 335.716 458.962 336.544 458.962 338.47V339.91Z" fill="black"/>
<path d="M468.229 343.906H476.707V342.376H469.813V341.656L473.773 338.632C475.555 337.264 476.455 335.932 476.455 334.474C476.455 332.476 474.889 330.802 472.315 330.802C469.921 330.802 468.247 332.332 467.887 334.636H469.597C469.597 332.944 470.461 332.206 472.315 332.206C474.151 332.206 474.727 332.818 474.727 334.258V334.906C474.727 335.824 474.043 336.544 472.585 337.696L468.229 341.098V343.906Z" fill="black"/>
<path d="M375.432 355.982H371.22V368.906H372.84V364.28H375.486C377.79 364.28 379.698 362.426 379.698 360.14C379.698 357.836 377.79 355.982 375.432 355.982ZM377.952 360.698C377.952 362.102 377.07 362.84 375.36 362.84H372.84V357.422H375.324C377.052 357.422 377.952 358.16 377.952 359.564V360.698Z" fill="black"/>
<path d="M384.976 359.312C382.978 359.312 381.412 360.734 381.106 362.678H382.726C382.798 361.238 383.284 360.716 384.922 360.716C386.488 360.716 386.956 361.256 386.956 362.678V363.524H384.346C382.312 363.524 380.872 364.622 380.872 366.17C380.872 367.79 382.366 369.086 384.256 369.086C385.48 369.086 386.47 368.636 387.046 367.844V368.906H388.54V362.768C388.54 360.698 387.118 359.312 384.976 359.312ZM384.58 367.682C383.176 367.682 382.582 367.304 382.582 366.422V365.918C382.582 365.216 383.014 364.856 383.896 364.856H386.956V366.026C386.956 367.178 386.236 367.682 384.58 367.682Z" fill="black"/>
<path d="M393.242 372.632H394.952L398.876 359.492H397.148L394.826 367.574H394.106L391.928 359.492H390.2L392.99 368.906H394.412L393.242 372.632Z" fill="black"/>
<path d="M405.016 355.982H400.804V368.906H402.424V364.28H405.07C407.374 364.28 409.282 362.426 409.282 360.14C409.282 357.836 407.374 355.982 405.016 355.982ZM407.536 360.698C407.536 362.102 406.654 362.84 404.944 362.84H402.424V357.422H404.908C406.636 357.422 407.536 358.16 407.536 359.564V360.698Z" fill="black"/>
<path d="M414.56 359.312C412.562 359.312 410.996 360.734 410.69 362.678H412.31C412.382 361.238 412.868 360.716 414.506 360.716C416.072 360.716 416.54 361.256 416.54 362.678V363.524H413.93C411.896 363.524 410.456 364.622 410.456 366.17C410.456 367.79 411.95 369.086 413.84 369.086C415.064 369.086 416.054 368.636 416.63 367.844V368.906H418.124V362.768C418.124 360.698 416.702 359.312 414.56 359.312ZM414.164 367.682C412.76 367.682 412.166 367.304 412.166 366.422V365.918C412.166 365.216 412.598 364.856 413.48 364.856H416.54V366.026C416.54 367.178 415.82 367.682 414.164 367.682Z" fill="black"/>
<path d="M420.682 368.906H422.266V355.982H420.682V368.906Z" fill="black"/>
<path d="M371.22 393.906H375.252C378.366 393.906 380.796 391.062 380.796 387.444C380.796 383.826 378.366 380.982 375.252 380.982H371.22V393.906ZM372.84 392.466V382.422H375.234C377.502 382.422 378.96 383.97 378.96 386.382V388.524C378.96 390.918 377.502 392.466 375.234 392.466H372.84Z" fill="black"/>
<path d="M391.041 389.676V389.01C391.041 386.364 389.187 384.312 386.811 384.312C384.255 384.312 382.329 386.544 382.329 389.388C382.329 392.142 384.237 394.086 386.811 394.086C388.575 394.086 390.375 392.79 391.005 391.008H389.169C389.025 392.178 388.323 392.682 386.811 392.682C384.903 392.682 384.093 391.926 384.093 390.09V389.676H391.041ZM386.829 385.716C388.611 385.716 389.277 386.418 389.277 388.11V388.344H384.093V388.146C384.093 386.454 384.957 385.716 386.829 385.716Z" fill="black"/>
<path d="M397.655 384.312C396.467 384.312 395.279 384.978 394.613 385.95V384.492H393.119V397.632H394.703V392.592C395.459 393.546 396.485 394.086 397.583 394.086C399.959 394.086 401.867 391.89 401.867 389.154C401.867 386.544 399.923 384.312 397.655 384.312ZM400.103 389.928C400.103 391.854 399.293 392.682 397.403 392.682C395.513 392.682 394.703 391.854 394.703 389.928V388.488C394.703 386.544 395.513 385.716 397.403 385.716C399.293 385.716 400.103 386.544 400.103 388.488V389.928Z" fill="black"/>
<path d="M407.852 394.086C410.372 394.086 412.316 391.944 412.316 389.19C412.316 386.436 410.372 384.312 407.852 384.312C405.332 384.312 403.388 386.436 403.388 389.19C403.388 391.944 405.332 394.086 407.852 394.086ZM407.852 392.682C405.962 392.682 405.152 391.854 405.152 389.91V388.47C405.152 386.544 405.962 385.716 407.852 385.716C409.742 385.716 410.552 386.544 410.552 388.47V389.91C410.552 391.854 409.742 392.682 407.852 392.682Z" fill="black"/>
<path d="M417.827 394.086C419.933 394.086 421.553 392.682 421.553 391.098C421.553 389.676 420.545 388.704 418.835 388.524L417.107 388.344C416.171 388.254 415.775 387.93 415.775 387.264V386.904C415.775 386.076 416.369 385.716 417.737 385.716C419.195 385.716 419.717 386.112 419.771 387.3H421.445C421.211 385.428 419.609 384.312 417.701 384.312C415.811 384.312 414.173 385.698 414.173 387.246C414.173 388.686 415.109 389.64 416.801 389.82L418.565 390C419.555 390.108 419.969 390.396 419.969 391.062V391.458C419.969 392.286 419.303 392.682 417.791 392.682C416.171 392.682 415.595 392.304 415.523 391.098H413.849C414.047 392.862 415.649 394.086 417.827 394.086Z" fill="black"/>
<path d="M424.409 383.322C425.093 383.322 425.615 382.8 425.615 382.098C425.615 381.378 425.093 380.874 424.409 380.874C423.707 380.874 423.185 381.378 423.185 382.098C423.185 382.8 423.707 383.322 424.409 383.322ZM423.617 393.906H425.201V384.492H423.617V393.906Z" fill="black"/>
<path d="M431.722 393.996H432.982V392.574H431.542C430.822 392.574 430.462 392.214 430.462 391.494V385.824H433.162V384.492H430.462V380.982H428.878V384.492H426.826V385.824H428.878V391.314C428.878 392.916 430.012 393.996 431.722 393.996Z" fill="black"/>
<path d="M514.866 237.174C516.072 236.598 516.792 235.626 516.792 234.42C516.792 232.584 515.262 230.802 512.724 230.802C510.51 230.802 508.8 232.404 508.584 234.42H510.276C510.276 232.872 510.834 232.206 512.724 232.206C514.38 232.206 515.082 232.728 515.082 233.97V234.87C515.082 236.058 514.38 236.598 512.742 236.598H510.654V237.93H512.796C514.704 237.93 515.514 238.524 515.514 239.838V240.738C515.514 242.07 514.686 242.664 512.76 242.664C510.582 242.664 509.952 241.944 509.952 240.288H508.224C508.404 242.502 510.114 244.086 512.76 244.086C515.37 244.086 517.224 242.178 517.224 240.288C517.224 238.866 516.306 237.732 514.866 237.174Z" fill="black" fill-opacity="0.5"/>
<path d="M526.573 237.174C527.779 236.598 528.499 235.626 528.499 234.42C528.499 232.584 526.969 230.802 524.431 230.802C522.217 230.802 520.507 232.404 520.291 234.42H521.983C521.983 232.872 522.541 232.206 524.431 232.206C526.087 232.206 526.789 232.728 526.789 233.97V234.87C526.789 236.058 526.087 236.598 524.449 236.598H522.361V237.93H524.503C526.411 237.93 527.221 238.524 527.221 239.838V240.738C527.221 242.07 526.393 242.664 524.467 242.664C522.289 242.664 521.659 241.944 521.659 240.288H519.931C520.111 242.502 521.821 244.086 524.467 244.086C527.077 244.086 528.931 242.178 528.931 240.288C528.931 238.866 528.013 237.732 526.573 237.174Z" fill="black" fill-opacity="0.5"/>
<path d="M538.28 237.174C539.486 236.598 540.206 235.626 540.206 234.42C540.206 232.584 538.676 230.802 536.138 230.802C533.924 230.802 532.214 232.404 531.998 234.42H533.69C533.69 232.872 534.248 232.206 536.138 232.206C537.794 232.206 538.496 232.728 538.496 233.97V234.87C538.496 236.058 537.794 236.598 536.156 236.598H534.068V237.93H536.21C538.118 237.93 538.928 238.524 538.928 239.838V240.738C538.928 242.07 538.1 242.664 536.174 242.664C533.996 242.664 533.366 241.944 533.366 240.288H531.638C531.818 242.502 533.528 244.086 536.174 244.086C538.784 244.086 540.638 242.178 540.638 240.288C540.638 238.866 539.72 237.732 538.28 237.174Z" fill="black" fill-opacity="0.5"/>
<path d="M543.471 246.372H544.893L545.685 243.726V241.53H543.903V243.726L543.471 246.372Z" fill="black" fill-opacity="0.5"/>
<path d="M552.927 235.356C552.657 235.356 552.387 235.392 552.135 235.446L555.951 230.982H553.953L549.867 235.806C548.841 237.03 548.175 238.128 548.175 239.658C548.175 242.214 550.155 244.086 552.909 244.086C555.663 244.086 557.625 242.214 557.625 239.658C557.625 237.192 555.609 235.356 552.927 235.356ZM555.915 240.054C555.915 241.908 555.033 242.664 552.909 242.664C550.785 242.664 549.903 241.908 549.903 240.054V239.262C549.903 237.39 550.785 236.598 552.909 236.598C555.033 236.598 555.915 237.39 555.915 239.262V240.054Z" fill="black" fill-opacity="0.5"/>
<path d="M564.882 244.086C567.87 244.086 569.742 241.332 569.742 237.462C569.742 233.574 567.834 230.802 564.882 230.802C561.93 230.802 560.022 233.574 560.022 237.462C560.022 241.332 561.894 244.086 564.882 244.086ZM564.882 242.664C562.722 242.664 561.804 241.53 561.804 238.92V236.004C561.804 233.34 562.722 232.206 564.882 232.206C567.042 232.206 567.96 233.34 567.96 236.004V238.92C567.96 241.53 567.042 242.664 564.882 242.664Z" fill="black" fill-opacity="0.5"/>
<path d="M518.61 259.312C517.332 259.312 516.216 259.978 515.514 261.112C515.028 259.996 513.966 259.312 512.634 259.312C511.482 259.312 510.456 259.888 509.772 260.878V259.492H508.278V268.906H509.862V262.93C509.862 261.382 510.546 260.716 512.166 260.716C513.624 260.716 514.254 261.346 514.254 262.84V268.906H515.838V262.93C515.838 261.382 516.522 260.716 518.142 260.716C519.6 260.716 520.23 261.346 520.23 262.84V268.906H521.814V263.02C521.814 260.824 520.5 259.312 518.61 259.312Z" fill="black" fill-opacity="0.5"/>
<path d="M525.154 258.322C525.838 258.322 526.36 257.8 526.36 257.098C526.36 256.378 525.838 255.874 525.154 255.874C524.452 255.874 523.93 256.378 523.93 257.098C523.93 257.8 524.452 258.322 525.154 258.322ZM524.362 268.906H525.946V259.492H524.362V268.906Z" fill="black" fill-opacity="0.5"/>
<path d="M533.151 259.312C531.927 259.312 530.865 259.888 530.145 260.896V259.492H528.651V268.906H530.235V262.93C530.235 261.382 530.955 260.716 532.665 260.716C534.267 260.716 534.969 261.346 534.969 262.84V268.906H536.553V263.02C536.553 260.842 535.113 259.312 533.151 259.312Z" fill="black" fill-opacity="0.5"/>
<path d="M543.201 268.906H552.345V267.376H548.565V255.982H543.615V257.512H546.981V267.376H543.201V268.906Z" fill="black" fill-opacity="0.5"/>
<path d="M554.718 268.906H563.196V267.376H556.302V266.656L560.262 263.632C562.044 262.264 562.944 260.932 562.944 259.474C562.944 257.476 561.378 255.802 558.804 255.802C556.41 255.802 554.736 257.332 554.376 259.636H556.086C556.086 257.944 556.95 257.206 558.804 257.206C560.64 257.206 561.216 257.818 561.216 259.258V259.906C561.216 260.824 560.532 261.544 559.074 262.696L554.718 266.098V268.906Z" fill="black" fill-opacity="0.5"/>
<path d="M570.489 269.086C573.477 269.086 575.349 266.332 575.349 262.462C575.349 258.574 573.441 255.802 570.489 255.802C567.537 255.802 565.629 258.574 565.629 262.462C565.629 266.332 567.501 269.086 570.489 269.086ZM570.489 267.664C568.329 267.664 567.411 266.53 567.411 263.92V261.004C567.411 258.34 568.329 257.206 570.489 257.206C572.649 257.206 573.567 258.34 573.567 261.004V263.92C573.567 266.53 572.649 267.664 570.489 267.664Z" fill="black" fill-opacity="0.5"/>
<path d="M577.766 271.372H579.188L579.98 268.726V266.53H578.198V268.726L577.766 271.372Z" fill="black" fill-opacity="0.5"/>
<path d="M587.206 269.086C590.194 269.086 592.066 266.332 592.066 262.462C592.066 258.574 590.158 255.802 587.206 255.802C584.254 255.802 582.346 258.574 582.346 262.462C582.346 266.332 584.218 269.086 587.206 269.086ZM587.206 267.664C585.046 267.664 584.128 266.53 584.128 263.92V261.004C584.128 258.34 585.046 257.206 587.206 257.206C589.366 257.206 590.284 258.34 590.284 261.004V263.92C590.284 266.53 589.366 267.664 587.206 267.664Z" fill="black" fill-opacity="0.5"/>
<path d="M599.089 269.086C602.077 269.086 603.949 266.332 603.949 262.462C603.949 258.574 602.041 255.802 599.089 255.802C596.137 255.802 594.229 258.574 594.229 262.462C594.229 266.332 596.101 269.086 599.089 269.086ZM599.089 267.664C596.929 267.664 596.011 266.53 596.011 263.92V261.004C596.011 258.34 596.929 257.206 599.089 257.206C601.249 257.206 602.167 258.34 602.167 261.004V263.92C602.167 266.53 601.249 267.664 599.089 267.664Z" fill="black" fill-opacity="0.5"/>
<path d="M610.972 269.086C613.96 269.086 615.832 266.332 615.832 262.462C615.832 258.574 613.924 255.802 610.972 255.802C608.02 255.802 606.112 258.574 606.112 262.462C606.112 266.332 607.984 269.086 610.972 269.086ZM610.972 267.664C608.812 267.664 607.894 266.53 607.894 263.92V261.004C607.894 258.34 608.812 257.206 610.972 257.206C613.132 257.206 614.05 258.34 614.05 261.004V263.92C614.05 266.53 613.132 267.664 610.972 267.664Z" fill="black" fill-opacity="0.5"/>
<path d="M508.08 293.906H517.224V292.376H513.444V280.982H508.494V282.512H511.86V292.376H508.08V293.906Z" fill="black" fill-opacity="0.5"/>
<path d="M519.597 293.906H528.075V292.376H521.181V291.656L525.141 288.632C526.923 287.264 527.823 285.932 527.823 284.474C527.823 282.476 526.257 280.802 523.683 280.802C521.289 280.802 519.615 282.332 519.255 284.636H520.965C520.965 282.944 521.829 282.206 523.683 282.206C525.519 282.206 526.095 282.818 526.095 284.258V284.906C526.095 285.824 525.411 286.544 523.953 287.696L519.597 291.098V293.906Z" fill="black" fill-opacity="0.5"/>
<path d="M535.147 285.284C534.103 285.284 533.059 285.752 532.339 286.49V282.512H538.909V280.982H530.935V288.506H532.321C532.555 287.246 533.239 286.706 535.039 286.706C536.947 286.706 537.775 287.39 537.775 289.046V290.396C537.775 292.034 536.947 292.646 535.039 292.646C533.221 292.646 532.537 292.25 532.339 290.846H530.593C530.917 292.808 532.735 294.086 534.985 294.086C538.027 294.086 539.485 292.16 539.485 289.676C539.485 287.336 537.811 285.284 535.147 285.284Z" fill="black" fill-opacity="0.5"/>
<path d="M542.188 296.372H543.61L544.402 293.726V291.53H542.62V293.726L542.188 296.372Z" fill="black" fill-opacity="0.5"/>
<path d="M547.828 293.906H556.306V292.376H549.412V291.656L553.372 288.632C555.154 287.264 556.054 285.932 556.054 284.474C556.054 282.476 554.488 280.802 551.914 280.802C549.52 280.802 547.846 282.332 547.486 284.636H549.196C549.196 282.944 550.06 282.206 551.914 282.206C553.75 282.206 554.326 282.818 554.326 284.258V284.906C554.326 285.824 553.642 286.544 552.184 287.696L547.828 291.098V293.906Z" fill="black" fill-opacity="0.5"/>
<path d="M563.599 294.086C566.587 294.086 568.459 291.332 568.459 287.462C568.459 283.574 566.551 280.802 563.599 280.802C560.647 280.802 558.739 283.574 558.739 287.462C558.739 291.332 560.611 294.086 563.599 294.086ZM563.599 292.664C561.439 292.664 560.521 291.53 560.521 288.92V286.004C560.521 283.34 561.439 282.206 563.599 282.206C565.759 282.206 566.677 283.34 566.677 286.004V288.92C566.677 291.53 565.759 292.664 563.599 292.664Z" fill="black" fill-opacity="0.5"/>
<path d="M575.481 294.086C578.469 294.086 580.341 291.332 580.341 287.462C580.341 283.574 578.433 280.802 575.481 280.802C572.529 280.802 570.621 283.574 570.621 287.462C570.621 291.332 572.493 294.086 575.481 294.086ZM575.481 292.664C573.321 292.664 572.403 291.53 572.403 288.92V286.004C572.403 283.34 573.321 282.206 575.481 282.206C577.641 282.206 578.559 283.34 578.559 286.004V288.92C578.559 291.53 577.641 292.664 575.481 292.664Z" fill="black" fill-opacity="0.5"/>
<path d="M508.08 318.906H517.224V317.376H513.444V305.982H508.494V307.512H511.86V317.376H508.08V318.906Z" fill="black" fill-opacity="0.5"/>
<path d="M524.772 318.906H526.356V314.586H528.696V313.254H526.356V308.934H524.772V313.254H520.47V305.982H518.886V314.586H524.772V318.906Z" fill="black" fill-opacity="0.5"/>
<path d="M530.938 321.372H532.36L533.152 318.726V316.53H531.37V318.726L530.938 321.372Z" fill="black" fill-opacity="0.5"/>
<path d="M540.487 318.906H542.071V314.586H544.411V313.254H542.071V308.934H540.487V313.254H536.185V305.982H534.601V314.586H540.487V318.906Z" fill="black" fill-opacity="0.5"/>
<path d="M553.169 312.174C554.375 311.598 555.095 310.626 555.095 309.42C555.095 307.584 553.565 305.802 551.027 305.802C548.813 305.802 547.103 307.404 546.887 309.42H548.579C548.579 307.872 549.137 307.206 551.027 307.206C552.683 307.206 553.385 307.728 553.385 308.97V309.87C553.385 311.058 552.683 311.598 551.045 311.598H548.957V312.93H551.099C553.007 312.93 553.817 313.524 553.817 314.838V315.738C553.817 317.07 552.989 317.664 551.063 317.664C548.885 317.664 548.255 316.944 548.255 315.288H546.527C546.707 317.502 548.417 319.086 551.063 319.086C553.673 319.086 555.527 317.178 555.527 315.288C555.527 313.866 554.609 312.732 553.169 312.174Z" fill="black" fill-opacity="0.5"/>
<path d="M559.407 318.906H561.207L566.031 308.142V305.982H556.941V307.512H564.447V308.232L559.407 318.906Z" fill="black" fill-opacity="0.5"/>
<path d="M514.506 343.906H516.09V339.586H518.43V338.254H516.09V333.934H514.506V338.254H510.204V330.982H508.62V339.586H514.506V343.906Z" fill="black" fill-opacity="0.5"/>
<path d="M525.163 335.284C524.119 335.284 523.075 335.752 522.355 336.49V332.512H528.925V330.982H520.951V338.506H522.337C522.571 337.246 523.255 336.706 525.055 336.706C526.963 336.706 527.791 337.39 527.791 339.046V340.396C527.791 342.034 526.963 342.646 525.055 342.646C523.237 342.646 522.553 342.25 522.355 340.846H520.609C520.933 342.808 522.751 344.086 525.001 344.086C528.043 344.086 529.501 342.16 529.501 339.676C529.501 337.336 527.827 335.284 525.163 335.284Z" fill="black" fill-opacity="0.5"/>
<path d="M532.204 346.372H533.626L534.418 343.726V341.53H532.636V343.726L532.204 346.372Z" fill="black" fill-opacity="0.5"/>
<path d="M541.643 344.086C544.631 344.086 546.503 341.332 546.503 337.462C546.503 333.574 544.595 330.802 541.643 330.802C538.691 330.802 536.783 333.574 536.783 337.462C536.783 341.332 538.655 344.086 541.643 344.086ZM541.643 342.664C539.483 342.664 538.565 341.53 538.565 338.92V336.004C538.565 333.34 539.483 332.206 541.643 332.206C543.803 332.206 544.721 333.34 544.721 336.004V338.92C544.721 341.53 543.803 342.664 541.643 342.664Z" fill="black" fill-opacity="0.5"/>
<path d="M553.526 344.086C556.514 344.086 558.386 341.332 558.386 337.462C558.386 333.574 556.478 330.802 553.526 330.802C550.574 330.802 548.666 333.574 548.666 337.462C548.666 341.332 550.538 344.086 553.526 344.086ZM553.526 342.664C551.366 342.664 550.448 341.53 550.448 338.92V336.004C550.448 333.34 551.366 332.206 553.526 332.206C555.686 332.206 556.604 333.34 556.604 336.004V338.92C556.604 341.53 555.686 342.664 553.526 342.664Z" fill="black" fill-opacity="0.5"/>
<path d="M565.409 344.086C568.397 344.086 570.269 341.332 570.269 337.462C570.269 333.574 568.361 330.802 565.409 330.802C562.457 330.802 560.549 333.574 560.549 337.462C560.549 341.332 562.421 344.086 565.409 344.086ZM565.409 342.664C563.249 342.664 562.331 341.53 562.331 338.92V336.004C562.331 333.34 563.249 332.206 565.409 332.206C567.569 332.206 568.487 333.34 568.487 336.004V338.92C568.487 341.53 567.569 342.664 565.409 342.664Z" fill="black" fill-opacity="0.5"/>
<path d="M512.76 355.802C510.06 355.802 508.134 357.638 508.134 360.14C508.134 362.534 510.114 364.28 512.796 364.28C513.084 364.28 513.39 364.244 513.66 364.172L509.7 368.906H511.68L515.712 363.902C516.702 362.678 517.404 361.778 517.404 360.14C517.404 357.638 515.424 355.802 512.76 355.802ZM515.694 360.536C515.694 362.354 514.83 363.128 512.814 363.128C510.744 363.128 509.844 362.354 509.844 360.536V359.762C509.844 357.98 510.744 357.206 512.814 357.206C514.83 357.206 515.694 357.98 515.694 359.762V360.536Z" fill="black" fill-opacity="0.5"/>
<path d="M518.071 371.372H519.493L520.285 368.726V366.53H518.503V368.726L518.071 371.372Z" fill="black" fill-opacity="0.5"/>
<path d="M527.511 369.086C530.499 369.086 532.371 366.332 532.371 362.462C532.371 358.574 530.463 355.802 527.511 355.802C524.559 355.802 522.651 358.574 522.651 362.462C522.651 366.332 524.523 369.086 527.511 369.086ZM527.511 367.664C525.351 367.664 524.433 366.53 524.433 363.92V361.004C524.433 358.34 525.351 357.206 527.511 357.206C529.671 357.206 530.589 358.34 530.589 361.004V363.92C530.589 366.53 529.671 367.664 527.511 367.664Z" fill="black" fill-opacity="0.5"/>
<path d="M539.393 369.086C542.381 369.086 544.253 366.332 544.253 362.462C544.253 358.574 542.345 355.802 539.393 355.802C536.441 355.802 534.533 358.574 534.533 362.462C534.533 366.332 536.405 369.086 539.393 369.086ZM539.393 367.664C537.233 367.664 536.315 366.53 536.315 363.92V361.004C536.315 358.34 537.233 357.206 539.393 357.206C541.553 357.206 542.471 358.34 542.471 361.004V363.92C542.471 366.53 541.553 367.664 539.393 367.664Z" fill="black" fill-opacity="0.5"/>
<path d="M546.488 368.906H555.632V367.376H551.852V355.982H546.902V357.512H550.268V367.376H546.488V368.906Z" fill="black" fill-opacity="0.5"/>
<path d="M508.08 393.906H517.224V392.376H513.444V380.982H508.494V382.512H511.86V392.376H508.08V393.906Z" fill="black" fill-opacity="0.5"/>
<path d="M523.809 385.284C522.765 385.284 521.721 385.752 521.001 386.49V382.512H527.571V380.982H519.597V388.506H520.983C521.217 387.246 521.901 386.706 523.701 386.706C525.609 386.706 526.437 387.39 526.437 389.046V390.396C526.437 392.034 525.609 392.646 523.701 392.646C521.883 392.646 521.199 392.25 521.001 390.846H519.255C519.579 392.808 521.397 394.086 523.647 394.086C526.689 394.086 528.147 392.16 528.147 389.676C528.147 387.336 526.473 385.284 523.809 385.284Z" fill="black" fill-opacity="0.5"/>
<path d="M535.368 394.086C538.356 394.086 540.228 391.332 540.228 387.462C540.228 383.574 538.32 380.802 535.368 380.802C532.416 380.802 530.508 383.574 530.508 387.462C530.508 391.332 532.38 394.086 535.368 394.086ZM535.368 392.664C533.208 392.664 532.29 391.53 532.29 388.92V386.004C532.29 383.34 533.208 382.206 535.368 382.206C537.528 382.206 538.446 383.34 538.446 386.004V388.92C538.446 391.53 537.528 392.664 535.368 392.664Z" fill="black" fill-opacity="0.5"/>
<path d="M542.645 396.372H544.067L544.859 393.726V391.53H543.077V393.726L542.645 396.372Z" fill="black" fill-opacity="0.5"/>
<path d="M552.085 394.086C555.073 394.086 556.945 391.332 556.945 387.462C556.945 383.574 555.037 380.802 552.085 380.802C549.133 380.802 547.225 383.574 547.225 387.462C547.225 391.332 549.097 394.086 552.085 394.086ZM552.085 392.664C549.925 392.664 549.007 391.53 549.007 388.92V386.004C549.007 383.34 549.925 382.206 552.085 382.206C554.245 382.206 555.163 383.34 555.163 386.004V388.92C555.163 391.53 554.245 392.664 552.085 392.664Z" fill="black" fill-opacity="0.5"/>
<path d="M563.968 394.086C566.956 394.086 568.828 391.332 568.828 387.462C568.828 383.574 566.92 380.802 563.968 380.802C561.016 380.802 559.108 383.574 559.108 387.462C559.108 391.332 560.98 394.086 563.968 394.086ZM563.968 392.664C561.808 392.664 560.89 391.53 560.89 388.92V386.004C560.89 383.34 561.808 382.206 563.968 382.206C566.128 382.206 567.046 383.34 567.046 386.004V388.92C567.046 391.53 566.128 392.664 563.968 392.664Z" fill="black" fill-opacity="0.5"/>
<path d="M575.851 394.086C578.839 394.086 580.711 391.332 580.711 387.462C580.711 383.574 578.803 380.802 575.851 380.802C572.899 380.802 570.991 383.574 570.991 387.462C570.991 391.332 572.863 394.086 575.851 394.086ZM575.851 392.664C573.691 392.664 572.772 391.53 572.772 388.92V386.004C572.772 383.34 573.691 382.206 575.851 382.206C578.011 382.206 578.928 383.34 578.928 386.004V388.92C578.928 391.53 578.011 392.664 575.851 392.664Z" fill="black" fill-opacity="0.5"/>
<defs>
<filter id="filter0_f_1303_3441" x="59.0781" y="235.434" width="493.88" height="310" filterUnits="userSpaceOnUse" color-interpolation-filters="sRGB">
<feFlood flood-opacity="0" result="BackgroundImageFix"/>
<feBlend mode="normal" in="SourceGraphic" in2="BackgroundImageFix" result="shape"/>
<feGaussianBlur stdDeviation="10" result="effect1_foregroundBlur_1303_3441"/>
</filter>
<filter id="filter1_f_1303_3441" x="311.039" y="193.906" width="349.42" height="257.056" filterUnits="userSpaceOnUse" color-interpolation-filters="sRGB">
<feFlood flood-opacity="0" result="BackgroundImageFix"/>
<feBlend mode="normal" in="SourceGraphic" in2="BackgroundImageFix" result="shape"/>
<feGaussianBlur stdDeviation="10" result="effect1_foregroundBlur_1303_3441"/>
</filter>
</defs>
</svg>
