<svg width="677" height="551" viewBox="0 0 677 551" fill="none" xmlns="http://www.w3.org/2000/svg">
<rect x="83.5" y="122.378" width="202.143" height="60.3747" rx="15.5" fill="white" stroke="white"/>
<path d="M119.208 161.565H121.872L116.832 154.485C119.232 153.741 120.888 151.845 120.888 149.565C120.888 146.637 118.368 144.333 115.152 144.333H109.968V161.565H112.128V154.797H114.648L119.208 161.565ZM112.128 146.253H115.224C117.408 146.253 118.536 147.141 118.536 148.869V150.261C118.536 151.989 117.408 152.877 115.224 152.877H112.128V146.253ZM136.27 157.437L139.318 152.853H136.918L134.59 156.453H134.11L131.23 153.141C133.126 152.349 134.734 150.549 134.734 148.509C134.734 146.181 132.838 144.093 129.958 144.093C127.078 144.093 125.086 146.181 125.086 148.509C125.086 149.853 125.638 151.077 126.934 152.085C124.846 152.853 123.022 154.317 123.022 156.765C123.022 159.885 125.662 161.805 128.446 161.805C131.374 161.805 132.886 160.101 134.134 158.469H134.614L137.23 161.565H139.75L136.27 157.437ZM127.366 147.957C127.366 146.661 128.134 145.965 129.91 145.965C131.686 145.965 132.454 146.517 132.454 147.813V149.205C132.454 150.429 131.83 151.173 130.27 151.629H129.31C127.942 151.173 127.366 150.429 127.366 149.205V147.957ZM128.446 159.933C126.406 159.933 125.302 159.261 125.302 157.701V155.829C125.302 154.629 126.118 153.861 127.966 153.501H128.926L132.526 157.581C131.398 159.285 130.294 159.933 128.446 159.933ZM142.241 161.565H147.617C151.769 161.565 155.009 157.773 155.009 152.949C155.009 148.125 151.769 144.333 147.617 144.333H142.241V161.565ZM144.401 159.645V146.253H147.593C150.617 146.253 152.561 148.317 152.561 151.533V154.389C152.561 157.581 150.617 159.645 147.593 159.645H144.401Z" fill="black"/>
<rect x="351.643" y="122.378" width="191.857" height="60.3747" rx="15.5" fill="white" stroke="white"/>
<path d="M386.543 160.805C389.879 160.805 392.567 158.453 392.567 155.501C392.567 152.933 390.959 151.469 387.599 150.965L386.447 150.797C383.735 150.389 382.991 149.861 382.991 148.373V147.557C382.991 145.853 384.047 145.037 386.255 145.037C388.823 145.037 389.711 145.853 389.807 148.325H392.327C391.895 145.133 389.543 143.093 386.255 143.093C383.255 143.093 380.735 145.349 380.735 148.061C380.735 150.509 382.631 152.381 385.631 152.813L386.783 152.981C389.711 153.413 390.311 153.797 390.311 155.189V156.149C390.311 157.997 389.087 158.861 386.543 158.861C383.735 158.861 382.775 157.997 382.655 155.333H380.135C380.543 158.621 383.087 160.805 386.543 160.805ZM400.298 147.773C397.634 147.773 395.546 149.669 395.138 152.261H397.298C397.394 150.341 398.042 149.645 400.226 149.645C402.314 149.645 402.938 150.365 402.938 152.261V153.389H399.458C396.746 153.389 394.826 154.853 394.826 156.917C394.826 159.077 396.818 160.805 399.338 160.805C400.97 160.805 402.29 160.205 403.058 159.149V160.565H405.05V152.381C405.05 149.621 403.154 147.773 400.298 147.773ZM399.77 158.933C397.898 158.933 397.106 158.429 397.106 157.253V156.581C397.106 155.645 397.682 155.165 398.858 155.165H402.938V156.725C402.938 158.261 401.978 158.933 399.77 158.933ZM408.46 160.565H410.572V143.333H408.46V160.565ZM424.954 154.925V154.037C424.954 150.509 422.482 147.773 419.314 147.773C415.906 147.773 413.338 150.749 413.338 154.541C413.338 158.213 415.882 160.805 419.314 160.805C421.666 160.805 424.066 159.077 424.906 156.701H422.458C422.266 158.261 421.33 158.933 419.314 158.933C416.77 158.933 415.69 157.925 415.69 155.477V154.925H424.954ZM419.338 149.645C421.714 149.645 422.602 150.581 422.602 152.837V153.149H415.69V152.885C415.69 150.629 416.842 149.645 419.338 149.645ZM432.309 160.805C435.117 160.805 437.277 158.933 437.277 156.821C437.277 154.925 435.933 153.629 433.653 153.389L431.349 153.149C430.101 153.029 429.573 152.597 429.573 151.709V151.229C429.573 150.125 430.365 149.645 432.189 149.645C434.133 149.645 434.829 150.173 434.901 151.757H437.133C436.821 149.261 434.685 147.773 432.141 147.773C429.621 147.773 427.437 149.621 427.437 151.685C427.437 153.605 428.685 154.877 430.941 155.117L433.293 155.357C434.613 155.501 435.165 155.885 435.165 156.773V157.301C435.165 158.405 434.277 158.933 432.261 158.933C430.101 158.933 429.333 158.429 429.237 156.821H427.005C427.269 159.173 429.405 160.805 432.309 160.805Z" fill="black"/>
<path d="M315.646 238.417C315.842 238.612 316.158 238.612 316.354 238.417L319.536 235.235C319.731 235.04 319.731 234.723 319.536 234.528C319.34 234.333 319.024 234.333 318.828 234.528L316 237.356L313.172 234.528C312.976 234.333 312.66 234.333 312.464 234.528C312.269 234.723 312.269 235.04 312.464 235.235L315.646 238.417ZM185.327 182.964C185.327 189.958 187.397 195.25 191.052 199.229C194.697 203.197 199.879 205.815 206.031 207.551C218.316 211.018 234.667 211.014 250.914 211.014C267.21 211.014 283.402 211.018 295.525 214.439C301.577 216.146 306.565 218.694 310.038 222.474C313.502 226.244 315.5 231.283 315.5 238.063H316.5C316.5 231.069 314.431 225.777 310.775 221.798C307.13 217.83 301.948 215.212 295.796 213.476C283.511 210.009 267.161 210.014 250.914 210.014C234.617 210.014 218.425 210.009 206.302 206.589C200.25 204.881 195.262 202.334 191.789 198.553C188.326 194.783 186.327 189.744 186.327 182.964H185.327Z" fill="white"/>
<path d="M315.646 301.201C315.842 301.005 316.158 301.005 316.354 301.201L319.536 304.383C319.731 304.578 319.731 304.894 319.536 305.09C319.34 305.285 319.024 305.285 318.828 305.09L316 302.261L313.172 305.09C312.976 305.285 312.66 305.285 312.464 305.09C312.269 304.894 312.269 304.578 312.464 304.383L315.646 301.201ZM185.327 356.654C185.327 349.659 187.397 344.367 191.052 340.388C194.697 336.421 199.879 333.802 206.031 332.066C218.316 328.6 234.667 328.604 250.914 328.604C267.21 328.604 283.402 328.6 295.525 325.179C301.577 323.471 306.565 320.924 310.038 317.143C313.502 313.374 315.5 308.334 315.5 301.554H316.5C316.5 308.549 314.431 313.841 310.775 317.82C307.13 321.787 301.948 324.406 295.796 326.141C283.511 329.608 267.161 329.604 250.914 329.604C234.617 329.604 218.425 329.608 206.302 333.029C200.25 334.737 195.262 337.284 191.789 341.065C188.326 344.834 186.327 349.874 186.327 356.654H185.327Z" fill="white"/>
<path d="M316.354 238.417C316.158 238.612 315.842 238.612 315.646 238.417L312.464 235.235C312.269 235.04 312.269 234.723 312.464 234.528C312.66 234.333 312.976 234.333 313.172 234.528L316 237.356L318.828 234.528C319.024 234.333 319.34 234.333 319.536 234.528C319.731 234.723 319.731 235.04 319.536 235.235L316.354 238.417ZM457.5 182.964C457.5 189.97 455.254 195.267 451.296 199.244C447.352 203.206 441.749 205.82 435.095 207.554C421.8 211.017 404.102 211.014 386.5 211.014C368.852 211.014 351.3 211.017 338.157 214.441C331.592 216.151 326.181 218.703 322.413 222.489C318.66 226.26 316.5 231.295 316.5 238.063H315.5C315.5 231.057 317.746 225.76 321.704 221.784C325.648 217.821 331.251 215.207 337.905 213.474C351.2 210.01 368.898 210.014 386.5 210.014C404.148 210.014 421.7 210.01 434.843 206.586C441.408 204.876 446.819 202.324 450.587 198.538C454.34 194.767 456.5 189.733 456.5 182.964H457.5Z" fill="white"/>
<path d="M316.354 301.201C316.158 301.005 315.842 301.005 315.646 301.201L312.464 304.383C312.269 304.578 312.269 304.894 312.464 305.09C312.66 305.285 312.976 305.285 313.172 305.09L316 302.261L318.828 305.09C319.024 305.285 319.34 305.285 319.536 305.09C319.731 304.894 319.731 304.578 319.536 304.383L316.354 301.201ZM457.5 356.654C457.5 349.648 455.254 344.351 451.296 340.374C447.352 336.411 441.749 333.797 435.095 332.064C421.8 328.6 404.102 328.604 386.5 328.604C368.852 328.604 351.3 328.6 338.157 325.176C331.592 323.466 326.181 320.915 322.413 317.129C318.66 313.357 316.5 308.323 316.5 301.554H315.5C315.5 308.56 317.746 313.857 321.704 317.834C325.648 321.797 331.251 324.411 337.905 326.144C351.2 329.608 368.898 329.604 386.5 329.604C404.148 329.604 421.7 329.608 434.843 333.032C441.408 334.742 446.819 337.293 450.587 341.079C454.34 344.851 456.5 349.885 456.5 356.654H457.5Z" fill="white"/>
<rect x="42.2349" y="357.154" width="254.872" height="60.3747" rx="15.5" fill="white" stroke="white"/>
<path d="M63.8755 396.341H65.8435V381.029H66.9235L70.5235 396.341H74.4595L78.1075 381.029H79.1875V396.341H81.2035V379.109H76.4755L72.9715 394.421H72.1075L68.6035 379.109H63.8755V396.341ZM89.7173 383.549C87.0533 383.549 84.9653 385.445 84.5573 388.037H86.7173C86.8133 386.117 87.4613 385.421 89.6453 385.421C91.7333 385.421 92.3573 386.141 92.3573 388.037V389.165H88.8773C86.1653 389.165 84.2453 390.629 84.2453 392.693C84.2453 394.853 86.2373 396.581 88.7573 396.581C90.3893 396.581 91.7093 395.981 92.4773 394.925V396.341H94.4693V388.157C94.4693 385.397 92.5733 383.549 89.7173 383.549ZM89.1893 394.709C87.3173 394.709 86.5253 394.205 86.5253 393.029V392.357C86.5253 391.421 87.1013 390.941 88.2773 390.941H92.3573V392.501C92.3573 394.037 91.3973 394.709 89.1893 394.709ZM99.8713 386.141V383.789H97.8793V396.341H99.9913V388.685C99.9913 386.981 100.759 386.213 102.463 386.213H104.407V383.549C102.463 383.789 100.855 384.701 99.8713 386.141ZM106.739 396.341H108.851V390.941H110.531L114.395 396.341H117.083L112.259 389.957L117.083 383.789H114.587L110.531 389.165H108.851V379.109H106.739V396.341ZM130.077 390.701V389.813C130.077 386.285 127.605 383.549 124.437 383.549C121.029 383.549 118.461 386.525 118.461 390.317C118.461 393.989 121.005 396.581 124.437 396.581C126.789 396.581 129.189 394.853 130.029 392.477H127.581C127.389 394.037 126.453 394.709 124.437 394.709C121.893 394.709 120.813 393.701 120.813 391.253V390.701H130.077ZM124.461 385.421C126.837 385.421 127.725 386.357 127.725 388.613V388.925H120.813V388.661C120.813 386.405 121.965 385.421 124.461 385.421ZM137.702 396.461H139.382V394.565H137.462C136.502 394.565 136.022 394.085 136.022 393.125V385.565H139.622V383.789H136.022V379.109H133.91V383.789H131.174V385.565H133.91V392.885C133.91 395.021 135.422 396.461 137.702 396.461ZM143.443 382.229C144.355 382.229 145.051 381.533 145.051 380.597C145.051 379.637 144.355 378.965 143.443 378.965C142.507 378.965 141.811 379.637 141.811 380.597C141.811 381.533 142.507 382.229 143.443 382.229ZM142.387 396.341H144.499V383.789H142.387V396.341ZM154.106 383.549C152.474 383.549 151.058 384.317 150.098 385.661V383.789H148.106V396.341H150.218V388.373C150.218 386.309 151.178 385.421 153.458 385.421C155.594 385.421 156.53 386.261 156.53 388.253V396.341H158.642V388.493C158.642 385.589 156.722 383.549 154.106 383.549ZM170.883 383.789V385.565C170.043 384.389 168.459 383.573 166.899 383.573C163.707 383.573 161.331 386.165 161.331 389.669C161.331 393.197 163.731 395.861 166.875 395.861C168.339 395.861 169.683 395.237 170.763 394.037V396.461C170.763 398.813 169.851 399.677 167.355 399.677C164.787 399.677 163.923 398.957 163.899 396.821H161.739C161.787 399.317 164.163 401.549 167.355 401.549C170.643 401.549 172.875 399.341 172.875 396.701V383.789H170.883ZM167.235 394.013C164.739 394.013 163.659 392.933 163.659 390.413V388.925C163.659 386.477 164.739 385.445 167.235 385.445C169.707 385.445 170.763 386.477 170.763 388.925V390.413C170.763 392.933 169.707 394.013 167.235 394.013Z" fill="black"/>
<rect x="216.953" y="240.065" width="203.805" height="60.3747" rx="15.5" fill="white" stroke="white"/>
<path d="M249.266 262.02H243.65V279.252H245.81V273.084H249.338C252.41 273.084 254.954 270.612 254.954 267.564C254.954 264.492 252.41 262.02 249.266 262.02ZM252.626 268.308C252.626 270.18 251.45 271.164 249.17 271.164H245.81V263.94H249.122C251.426 263.94 252.626 264.924 252.626 266.796V268.308ZM270.117 275.124L273.165 270.54H270.765L268.437 274.14H267.957L265.077 270.828C266.973 270.036 268.581 268.236 268.581 266.196C268.581 263.868 266.685 261.78 263.805 261.78C260.925 261.78 258.933 263.868 258.933 266.196C258.933 267.54 259.485 268.764 260.781 269.772C258.693 270.54 256.869 272.004 256.869 274.452C256.869 277.572 259.509 279.492 262.293 279.492C265.221 279.492 266.733 277.788 267.981 276.156H268.461L271.077 279.252H273.597L270.117 275.124ZM261.213 265.644C261.213 264.348 261.981 263.652 263.757 263.652C265.533 263.652 266.301 264.204 266.301 265.5V266.892C266.301 268.116 265.677 268.86 264.117 269.316H263.157C261.789 268.86 261.213 268.116 261.213 266.892V265.644ZM262.293 277.62C260.253 277.62 259.149 276.948 259.149 275.388V273.516C259.149 272.316 259.965 271.548 261.813 271.188H262.773L266.373 275.268C265.245 276.972 264.141 277.62 262.293 277.62ZM276.088 279.252H285.424V277.284H278.248V262.02H276.088V279.252Z" fill="black"/>
<rect x="351.643" y="357.154" width="279.815" height="60.3747" rx="15.5" fill="white" stroke="white"/>
<path d="M387.015 396.581C391.263 396.581 394.623 392.669 394.623 387.725C394.623 382.781 391.263 378.869 387.015 378.869C382.767 378.869 379.407 382.781 379.407 387.725C379.407 392.669 382.767 396.581 387.015 396.581ZM387.015 394.637C383.895 394.637 381.855 392.477 381.855 389.165V386.309C381.855 382.949 383.871 380.813 387.015 380.813C390.159 380.813 392.175 382.949 392.175 386.309V389.165C392.175 392.477 390.135 394.637 387.015 394.637ZM403.542 383.549C401.958 383.549 400.374 384.437 399.486 385.733V383.789H397.494V401.309H399.606V394.589C400.614 395.861 401.982 396.581 403.446 396.581C406.614 396.581 409.158 393.653 409.158 390.005C409.158 386.525 406.566 383.549 403.542 383.549ZM406.806 391.037C406.806 393.605 405.726 394.709 403.206 394.709C400.686 394.709 399.606 393.605 399.606 391.037V389.117C399.606 386.525 400.686 385.421 403.206 385.421C405.726 385.421 406.806 386.525 406.806 389.117V391.037ZM422.801 390.701V389.813C422.801 386.285 420.329 383.549 417.161 383.549C413.753 383.549 411.185 386.525 411.185 390.317C411.185 393.989 413.729 396.581 417.161 396.581C419.513 396.581 421.913 394.853 422.753 392.477H420.305C420.113 394.037 419.177 394.709 417.161 394.709C414.617 394.709 413.537 393.701 413.537 391.253V390.701H422.801ZM417.185 385.421C419.561 385.421 420.449 386.357 420.449 388.613V388.925H413.537V388.661C413.537 386.405 414.689 385.421 417.185 385.421ZM427.564 386.141V383.789H425.572V396.341H427.684V388.685C427.684 386.981 428.452 386.213 430.156 386.213H432.1V383.549C430.156 383.789 428.548 384.701 427.564 386.141ZM439.066 383.549C436.402 383.549 434.314 385.445 433.906 388.037H436.066C436.162 386.117 436.81 385.421 438.994 385.421C441.082 385.421 441.706 386.141 441.706 388.037V389.165H438.226C435.514 389.165 433.594 390.629 433.594 392.693C433.594 394.853 435.586 396.581 438.106 396.581C439.738 396.581 441.058 395.981 441.826 394.925V396.341H443.818V388.157C443.818 385.397 441.922 383.549 439.066 383.549ZM438.538 394.709C436.666 394.709 435.874 394.205 435.874 393.029V392.357C435.874 391.421 436.45 390.941 437.626 390.941H441.706V392.501C441.706 394.037 440.746 394.709 438.538 394.709ZM452.082 396.461H453.762V394.565H451.842C450.882 394.565 450.402 394.085 450.402 393.125V385.565H454.002V383.789H450.402V379.109H448.29V383.789H445.554V385.565H448.29V392.885C448.29 395.021 449.802 396.461 452.082 396.461ZM457.824 382.229C458.736 382.229 459.432 381.533 459.432 380.597C459.432 379.637 458.736 378.965 457.824 378.965C456.888 378.965 456.192 379.637 456.192 380.597C456.192 381.533 456.888 382.229 457.824 382.229ZM456.768 396.341H458.88V383.789H456.768V396.341ZM467.598 396.581C470.958 396.581 473.55 393.725 473.55 390.053C473.55 386.381 470.958 383.549 467.598 383.549C464.238 383.549 461.646 386.381 461.646 390.053C461.646 393.725 464.238 396.581 467.598 396.581ZM467.598 394.709C465.078 394.709 463.998 393.605 463.998 391.013V389.093C463.998 386.525 465.078 385.421 467.598 385.421C470.118 385.421 471.198 386.525 471.198 389.093V391.013C471.198 393.605 470.118 394.709 467.598 394.709ZM482.314 383.549C480.682 383.549 479.266 384.317 478.306 385.661V383.789H476.314V396.341H478.426V388.373C478.426 386.309 479.386 385.421 481.666 385.421C483.802 385.421 484.738 386.261 484.738 388.253V396.341H486.85V388.493C486.85 385.589 484.93 383.549 482.314 383.549ZM494.844 396.581C497.652 396.581 499.812 394.709 499.812 392.597C499.812 390.701 498.468 389.405 496.188 389.165L493.884 388.925C492.636 388.805 492.108 388.373 492.108 387.485V387.005C492.108 385.901 492.9 385.421 494.724 385.421C496.668 385.421 497.364 385.949 497.436 387.533H499.668C499.356 385.037 497.22 383.549 494.676 383.549C492.156 383.549 489.972 385.397 489.972 387.461C489.972 389.381 491.22 390.653 493.476 390.893L495.828 391.133C497.148 391.277 497.7 391.661 497.7 392.549V393.077C497.7 394.181 496.812 394.709 494.796 394.709C492.636 394.709 491.868 394.205 491.772 392.597H489.54C489.804 394.949 491.94 396.581 494.844 396.581Z" fill="black"/>
<rect x="186.913" y="139.777" width="78" height="24" rx="12" fill="#864DFE"/>
<path d="M200.469 155.777H201.617V146.845H202.247L204.347 155.777H206.643L208.771 146.845H209.401V155.777H210.577V145.725H207.819L205.775 154.657H205.271L203.227 145.725H200.469V155.777ZM215.753 155.917C217.713 155.917 219.225 154.251 219.225 152.109C219.225 149.967 217.713 148.315 215.753 148.315C213.793 148.315 212.281 149.967 212.281 152.109C212.281 154.251 213.793 155.917 215.753 155.917ZM215.753 154.825C214.283 154.825 213.653 154.181 213.653 152.669V151.549C213.653 150.051 214.283 149.407 215.753 149.407C217.223 149.407 217.853 150.051 217.853 151.549V152.669C217.853 154.181 217.223 154.825 215.753 154.825ZM224.338 148.315C223.386 148.315 222.56 148.763 222 149.547V148.455H220.838V155.777H222.07V151.129C222.07 149.925 222.63 149.407 223.96 149.407C225.206 149.407 225.752 149.897 225.752 151.059V155.777H226.984V151.199C226.984 149.505 225.864 148.315 224.338 148.315ZM231.804 155.847H232.784V154.741H231.664C231.104 154.741 230.824 154.461 230.824 153.901V149.491H232.924V148.455H230.824V145.725H229.592V148.455H227.996V149.491H229.592V153.761C229.592 155.007 230.474 155.847 231.804 155.847ZM238.065 148.315C237.127 148.315 236.329 148.735 235.769 149.463V145.725H234.537V155.777H235.769V151.129C235.769 149.925 236.329 149.407 237.673 149.407C238.947 149.407 239.479 149.897 239.479 151.059V155.777H240.711V151.199C240.711 149.491 239.619 148.315 238.065 148.315ZM242.699 155.777H243.931V145.725H242.699V155.777ZM247.771 158.675H249.101L252.153 148.455H250.809L249.003 154.741H248.443L246.749 148.455H245.405L247.575 155.777H248.681L247.771 158.675Z" fill="black"/>
<rect x="469" y="140.065" width="55" height="24" rx="12" fill="#EEC30A"/>
<path d="M482.171 156.065H485.307C487.729 156.065 489.619 153.853 489.619 151.039C489.619 148.225 487.729 146.013 485.307 146.013H482.171V156.065ZM483.431 154.945V147.133H485.293C487.057 147.133 488.191 148.337 488.191 150.213V151.879C488.191 153.741 487.057 154.945 485.293 154.945H483.431ZM494.074 148.603C492.52 148.603 491.302 149.709 491.064 151.221H492.324C492.38 150.101 492.758 149.695 494.032 149.695C495.25 149.695 495.614 150.115 495.614 151.221V151.879H493.584C492.002 151.879 490.882 152.733 490.882 153.937C490.882 155.197 492.044 156.205 493.514 156.205C494.466 156.205 495.236 155.855 495.684 155.239V156.065H496.846V151.291C496.846 149.681 495.74 148.603 494.074 148.603ZM493.766 155.113C492.674 155.113 492.212 154.819 492.212 154.133V153.741C492.212 153.195 492.548 152.915 493.234 152.915H495.614V153.825C495.614 154.721 495.054 155.113 493.766 155.113ZM499.451 147.833C499.983 147.833 500.389 147.427 500.389 146.881C500.389 146.321 499.983 145.929 499.451 145.929C498.905 145.929 498.499 146.321 498.499 146.881C498.499 147.427 498.905 147.833 499.451 147.833ZM498.835 156.065H500.067V148.743H498.835V156.065ZM502.171 156.065H503.403V146.013H502.171V156.065ZM507.243 158.963H508.573L511.625 148.743H510.281L508.475 155.029H507.915L506.221 148.743H504.877L507.047 156.065H508.153L507.243 158.963Z" fill="black"/>
<rect x="203.741" y="375.841" width="71" height="24" rx="12" fill="#2BBC62"/>
<path d="M218.179 391.841H220.881L222.155 382.909H222.659L223.891 391.841H226.607L228.161 381.789H226.957L225.641 390.721H224.941L223.583 381.789H221.259L219.901 390.721H219.201L217.871 381.789H216.625L218.179 391.841ZM235.838 388.551V388.033C235.838 385.975 234.396 384.379 232.548 384.379C230.56 384.379 229.062 386.115 229.062 388.327C229.062 390.469 230.546 391.981 232.548 391.981C233.92 391.981 235.32 390.973 235.81 389.587H234.382C234.27 390.497 233.724 390.889 232.548 390.889C231.064 390.889 230.434 390.301 230.434 388.873V388.551H235.838ZM232.562 385.471C233.948 385.471 234.466 386.017 234.466 387.333V387.515H230.434V387.361C230.434 386.045 231.106 385.471 232.562 385.471ZM243.808 388.551V388.033C243.808 385.975 242.366 384.379 240.518 384.379C238.53 384.379 237.032 386.115 237.032 388.327C237.032 390.469 238.516 391.981 240.518 391.981C241.89 391.981 243.29 390.973 243.78 389.587H242.352C242.24 390.497 241.694 390.889 240.518 390.889C239.034 390.889 238.404 390.301 238.404 388.873V388.551H243.808ZM240.532 385.471C241.918 385.471 242.436 386.017 242.436 387.333V387.515H238.404V387.361C238.404 386.045 239.076 385.471 240.532 385.471ZM245.425 391.841H246.657V388.691H247.637L249.891 391.841H251.459L248.645 388.117L251.459 384.519H250.003L247.637 387.655H246.657V381.789H245.425V391.841ZM252.821 391.841H254.053V381.789H252.821V391.841ZM257.893 394.739H259.223L262.275 384.519H260.931L259.125 390.805H258.565L256.871 384.519H255.527L257.697 391.841H258.803L257.893 394.739Z" fill="black"/>
<rect x="534" y="374.529" width="78" height="24" rx="12" fill="#864DFE"/>
<path d="M547.556 390.529H548.704V381.597H549.334L551.434 390.529H553.73L555.858 381.597H556.488V390.529H557.664V380.477H554.906L552.862 389.409H552.358L550.314 380.477H547.556V390.529ZM562.841 390.669C564.801 390.669 566.313 389.003 566.313 386.861C566.313 384.719 564.801 383.067 562.841 383.067C560.881 383.067 559.369 384.719 559.369 386.861C559.369 389.003 560.881 390.669 562.841 390.669ZM562.841 389.577C561.371 389.577 560.741 388.933 560.741 387.421V386.301C560.741 384.803 561.371 384.159 562.841 384.159C564.311 384.159 564.941 384.803 564.941 386.301V387.421C564.941 388.933 564.311 389.577 562.841 389.577ZM571.425 383.067C570.473 383.067 569.647 383.515 569.087 384.299V383.207H567.925V390.529H569.157V385.881C569.157 384.677 569.717 384.159 571.047 384.159C572.293 384.159 572.839 384.649 572.839 385.811V390.529H574.071V385.951C574.071 384.257 572.951 383.067 571.425 383.067ZM578.891 390.599H579.871V389.493H578.751C578.191 389.493 577.911 389.213 577.911 388.653V384.243H580.011V383.207H577.911V380.477H576.679V383.207H575.083V384.243H576.679V388.513C576.679 389.759 577.561 390.599 578.891 390.599ZM585.152 383.067C584.214 383.067 583.416 383.487 582.856 384.215V380.477H581.624V390.529H582.856V385.881C582.856 384.677 583.416 384.159 584.76 384.159C586.034 384.159 586.566 384.649 586.566 385.811V390.529H587.798V385.951C587.798 384.243 586.706 383.067 585.152 383.067ZM589.786 390.529H591.018V380.477H589.786V390.529ZM594.858 393.427H596.188L599.24 383.207H597.896L596.09 389.493H595.53L593.836 383.207H592.492L594.662 390.529H595.768L594.858 393.427Z" fill="black"/>
<rect x="321.535" y="257.309" width="78" height="24" rx="12" fill="#864DFE"/>
<path d="M335.091 273.309H336.239V264.377H336.869L338.969 273.309H341.265L343.393 264.377H344.023V273.309H345.199V263.257H342.441L340.397 272.189H339.893L337.849 263.257H335.091V273.309ZM350.375 273.449C352.335 273.449 353.847 271.783 353.847 269.641C353.847 267.499 352.335 265.847 350.375 265.847C348.415 265.847 346.903 267.499 346.903 269.641C346.903 271.783 348.415 273.449 350.375 273.449ZM350.375 272.357C348.905 272.357 348.275 271.713 348.275 270.201V269.081C348.275 267.583 348.905 266.939 350.375 266.939C351.845 266.939 352.475 267.583 352.475 269.081V270.201C352.475 271.713 351.845 272.357 350.375 272.357ZM358.96 265.847C358.008 265.847 357.182 266.295 356.622 267.079V265.987H355.46V273.309H356.692V268.661C356.692 267.457 357.252 266.939 358.582 266.939C359.828 266.939 360.374 267.429 360.374 268.591V273.309H361.606V268.731C361.606 267.037 360.486 265.847 358.96 265.847ZM366.426 273.379H367.406V272.273H366.286C365.726 272.273 365.446 271.993 365.446 271.433V267.023H367.546V265.987H365.446V263.257H364.214V265.987H362.618V267.023H364.214V271.293C364.214 272.539 365.096 273.379 366.426 273.379ZM372.687 265.847C371.749 265.847 370.951 266.267 370.391 266.995V263.257H369.159V273.309H370.391V268.661C370.391 267.457 370.951 266.939 372.295 266.939C373.569 266.939 374.101 267.429 374.101 268.591V273.309H375.333V268.731C375.333 267.023 374.241 265.847 372.687 265.847ZM377.321 273.309H378.553V263.257H377.321V273.309ZM382.393 276.207H383.723L386.775 265.987H385.431L383.625 272.273H383.065L381.371 265.987H380.027L382.197 273.309H383.303L382.393 276.207Z" fill="black"/>
</svg>
