<svg width="677" height="551" viewBox="0 0 677 551" fill="none" xmlns="http://www.w3.org/2000/svg">
<rect width="255.425" height="58.8916" rx="8" transform="matrix(1 0 0 -1 49.0781 92.0225)" fill="#2F2F2F"/>
<rect x="33.0781" y="76.0225" width="440.399" height="318.948" rx="8" fill="white"/>
<path d="M71.5345 54.7109V56.3109H75.5145C75.4545 59.0509 73.9145 60.7109 71.4145 60.7109C68.8345 60.7109 67.3145 59.0109 67.3145 56.1509V53.7709C67.3145 50.7109 68.6745 49.1909 71.3945 49.1909C73.7545 49.1909 75.0145 50.3109 75.0945 52.3109H77.1945C76.7345 49.6309 74.2345 47.5709 71.3945 47.5709C67.9345 47.5709 65.2745 50.7909 65.2745 54.9509C65.2745 59.0709 67.9345 62.3309 71.3145 62.3309C73.1945 62.3309 74.8745 61.2709 75.6945 59.5909V62.1309H77.2745V54.7109H71.5345ZM82.0267 53.6309V51.6709H80.3667V62.1309H82.1267V55.7509C82.1267 54.3309 82.7667 53.6909 84.1867 53.6909H85.8067V51.4709C84.1867 51.6709 82.8467 52.4309 82.0267 53.6309ZM91.7165 62.3309C94.5165 62.3309 96.6765 59.9509 96.6765 56.8909C96.6765 53.8309 94.5165 51.4709 91.7165 51.4709C88.9165 51.4709 86.7565 53.8309 86.7565 56.8909C86.7565 59.9509 88.9165 62.3309 91.7165 62.3309ZM91.7165 60.7709C89.6165 60.7709 88.7165 59.8509 88.7165 57.6909V56.0909C88.7165 53.9509 89.6165 53.0309 91.7165 53.0309C93.8165 53.0309 94.7165 53.9509 94.7165 56.0909V57.6909C94.7165 59.8509 93.8165 60.7709 91.7165 60.7709ZM102.8 62.3309C105.14 62.3309 106.94 60.7709 106.94 59.0109C106.94 57.4309 105.82 56.3509 103.92 56.1509L102 55.9509C100.96 55.8509 100.52 55.4909 100.52 54.7509V54.3509C100.52 53.4309 101.18 53.0309 102.7 53.0309C104.32 53.0309 104.9 53.4709 104.96 54.7909H106.82C106.56 52.7109 104.78 51.4709 102.66 51.4709C100.56 51.4709 98.74 53.0109 98.74 54.7309C98.74 56.3309 99.78 57.3909 101.66 57.5909L103.62 57.7909C104.72 57.9109 105.18 58.2309 105.18 58.9709V59.4109C105.18 60.3309 104.44 60.7709 102.76 60.7709C100.96 60.7709 100.32 60.3509 100.24 59.0109H98.38C98.6 60.9709 100.38 62.3309 102.8 62.3309ZM113.054 62.3309C115.394 62.3309 117.194 60.7709 117.194 59.0109C117.194 57.4309 116.074 56.3509 114.174 56.1509L112.254 55.9509C111.214 55.8509 110.774 55.4909 110.774 54.7509V54.3509C110.774 53.4309 111.434 53.0309 112.954 53.0309C114.574 53.0309 115.154 53.4709 115.214 54.7909H117.074C116.814 52.7109 115.034 51.4709 112.914 51.4709C110.814 51.4709 108.994 53.0109 108.994 54.7309C108.994 56.3309 110.034 57.3909 111.914 57.5909L113.874 57.7909C114.974 57.9109 115.434 58.2309 115.434 58.9709V59.4109C115.434 60.3309 114.694 60.7709 113.014 60.7709C111.214 60.7709 110.574 60.3509 110.494 59.0109H108.634C108.854 60.9709 110.634 62.3309 113.054 62.3309ZM132.093 62.1309H134.313L130.113 56.2309C132.113 55.6109 133.493 54.0309 133.493 52.1309C133.493 49.6909 131.393 47.7709 128.713 47.7709H124.393V62.1309H126.193V56.4909H128.293L132.093 62.1309ZM126.193 49.3709H128.773C130.593 49.3709 131.533 50.1109 131.533 51.5509V52.7109C131.533 54.1509 130.593 54.8909 128.773 54.8909H126.193V49.3709ZM145.343 57.4309V56.6909C145.343 53.7509 143.283 51.4709 140.643 51.4709C137.803 51.4709 135.663 53.9509 135.663 57.1109C135.663 60.1709 137.783 62.3309 140.643 62.3309C142.603 62.3309 144.603 60.8909 145.303 58.9109H143.263C143.103 60.2109 142.323 60.7709 140.643 60.7709C138.523 60.7709 137.623 59.9309 137.623 57.8909V57.4309H145.343ZM140.663 53.0309C142.643 53.0309 143.383 53.8109 143.383 55.6909V55.9509H137.623V55.7309C137.623 53.8509 138.583 53.0309 140.663 53.0309ZM149.752 62.1309H153.092L156.052 51.6709H154.132L151.812 60.6509H151.012L148.672 51.6709H146.752L149.752 62.1309ZM167.14 57.4309V56.6909C167.14 53.7509 165.08 51.4709 162.44 51.4709C159.6 51.4709 157.46 53.9509 157.46 57.1109C157.46 60.1709 159.58 62.3309 162.44 62.3309C164.4 62.3309 166.4 60.8909 167.1 58.9109H165.06C164.9 60.2109 164.12 60.7709 162.44 60.7709C160.32 60.7709 159.42 59.9309 159.42 57.8909V57.4309H167.14ZM162.46 53.0309C164.44 53.0309 165.18 53.8109 165.18 55.6909V55.9509H159.42V55.7309C159.42 53.8509 160.38 53.0309 162.46 53.0309ZM174.449 51.4709C173.089 51.4709 171.909 52.1109 171.109 53.2309V51.6709H169.449V62.1309H171.209V55.4909C171.209 53.7709 172.009 53.0309 173.909 53.0309C175.689 53.0309 176.469 53.7309 176.469 55.3909V62.1309H178.229V55.5909C178.229 53.1709 176.629 51.4709 174.449 51.4709ZM187.65 51.6709V58.3309C187.65 60.0309 186.87 60.7709 185.07 60.7709C183.39 60.7709 182.67 60.0709 182.67 58.4309V51.6709H180.91V58.0109C180.91 60.5909 182.49 62.3309 184.81 62.3309C185.99 62.3309 187.07 61.7509 187.75 60.7909V62.1309H189.41V51.6709H187.65ZM201.397 57.4309V56.6909C201.397 53.7509 199.337 51.4709 196.697 51.4709C193.857 51.4709 191.717 53.9509 191.717 57.1109C191.717 60.1709 193.837 62.3309 196.697 62.3309C198.657 62.3309 200.657 60.8909 201.357 58.9109H199.317C199.157 60.2109 198.377 60.7709 196.697 60.7709C194.577 60.7709 193.677 59.9309 193.677 57.8909V57.4309H201.397ZM196.717 53.0309C198.697 53.0309 199.437 53.8109 199.437 55.6909V55.9509H193.677V55.7309C193.677 53.8509 194.637 53.0309 196.717 53.0309ZM208.612 62.1309H210.412V55.9109H215.872V54.3109H210.412V49.3509H216.472V47.7709H208.612V62.1309ZM222.576 62.3309C225.376 62.3309 227.536 59.9509 227.536 56.8909C227.536 53.8309 225.376 51.4709 222.576 51.4709C219.776 51.4709 217.616 53.8309 217.616 56.8909C217.616 59.9509 219.776 62.3309 222.576 62.3309ZM222.576 60.7709C220.476 60.7709 219.576 59.8509 219.576 57.6909V56.0909C219.576 53.9509 220.476 53.0309 222.576 53.0309C224.676 53.0309 225.576 53.9509 225.576 56.0909V57.6909C225.576 59.8509 224.676 60.7709 222.576 60.7709ZM231.499 53.6309V51.6709H229.839V62.1309H231.599V55.7509C231.599 54.3309 232.239 53.6909 233.659 53.6909H235.279V51.4709C233.659 51.6709 232.319 52.4309 231.499 53.6309ZM245.909 57.4309V56.6909C245.909 53.7509 243.849 51.4709 241.209 51.4709C238.369 51.4709 236.229 53.9509 236.229 57.1109C236.229 60.1709 238.349 62.3309 241.209 62.3309C243.169 62.3309 245.169 60.8909 245.869 58.9109H243.829C243.669 60.2109 242.889 60.7709 241.209 60.7709C239.089 60.7709 238.189 59.9309 238.189 57.8909V57.4309H245.909ZM241.229 53.0309C243.209 53.0309 243.949 53.8109 243.949 55.6909V55.9509H238.189V55.7309C238.189 53.8509 239.149 53.0309 241.229 53.0309ZM252.416 62.3309C254.656 62.3309 256.636 60.5509 256.996 58.2109H255.116C254.996 60.0509 254.216 60.7709 252.376 60.7709C250.416 60.7709 249.576 59.8509 249.576 57.6909V56.0909C249.576 53.9509 250.416 53.0309 252.376 53.0309C254.216 53.0309 254.996 53.7509 255.116 55.5909H256.996C256.636 53.2509 254.656 51.4709 252.416 51.4709C249.696 51.4709 247.616 53.8309 247.616 56.8909C247.616 59.9509 249.716 62.3309 252.416 62.3309ZM263.252 51.4709C261.032 51.4709 259.292 53.0509 258.952 55.2109H260.752C260.832 53.6109 261.372 53.0309 263.192 53.0309C264.932 53.0309 265.452 53.6309 265.452 55.2109V56.1509H262.552C260.292 56.1509 258.692 57.3709 258.692 59.0909C258.692 60.8909 260.352 62.3309 262.452 62.3309C263.812 62.3309 264.912 61.8309 265.552 60.9509V62.1309H267.212V55.3109C267.212 53.0109 265.632 51.4709 263.252 51.4709ZM262.812 60.7709C261.252 60.7709 260.592 60.3509 260.592 59.3709V58.8109C260.592 58.0309 261.072 57.6309 262.052 57.6309H265.452V58.9309C265.452 60.2109 264.652 60.7709 262.812 60.7709ZM273.874 62.3309C276.214 62.3309 278.014 60.7709 278.014 59.0109C278.014 57.4309 276.894 56.3509 274.994 56.1509L273.074 55.9509C272.034 55.8509 271.594 55.4909 271.594 54.7509V54.3509C271.594 53.4309 272.254 53.0309 273.774 53.0309C275.394 53.0309 275.974 53.4709 276.034 54.7909H277.894C277.634 52.7109 275.854 51.4709 273.734 51.4709C271.634 51.4709 269.814 53.0109 269.814 54.7309C269.814 56.3309 270.854 57.3909 272.734 57.5909L274.694 57.7909C275.794 57.9109 276.254 58.2309 276.254 58.9709V59.4109C276.254 60.3309 275.514 60.7709 273.834 60.7709C272.034 60.7709 271.394 60.3509 271.314 59.0109H269.454C269.674 60.9709 271.454 62.3309 273.874 62.3309ZM284.45 62.2309H285.85V60.6509H284.25C283.45 60.6509 283.05 60.2509 283.05 59.4509V53.1509H286.05V51.6709H283.05V47.7709H281.29V51.6709H279.01V53.1509H281.29V59.2509C281.29 61.0309 282.55 62.2309 284.45 62.2309Z" fill="white"/>
<path d="M49.9741 164.974H57.0861V163.784H54.1461V154.922H50.2961V156.112H52.9141V163.784H49.9741V164.974ZM58.9319 164.974H65.5259V163.784H60.1639V163.224L63.2439 160.872C64.6299 159.808 65.3299 158.772 65.3299 157.638C65.3299 156.084 64.1119 154.782 62.1099 154.782C60.2479 154.782 58.9459 155.972 58.6659 157.764H59.9959C59.9959 156.448 60.6679 155.874 62.1099 155.874C63.5379 155.874 63.9859 156.35 63.9859 157.47V157.974C63.9859 158.688 63.4539 159.248 62.3199 160.144L58.9319 162.79V164.974ZM68.5241 165.072C69.0981 165.072 69.5181 164.652 69.5181 164.078C69.5181 163.49 69.0981 163.07 68.5241 163.07C67.9501 163.07 67.5301 163.49 67.5301 164.078C67.5301 164.652 67.9501 165.072 68.5241 165.072ZM75.2099 158.268C74.3979 158.268 73.5859 158.632 73.0259 159.206V156.112H78.1359V154.922H71.9339V160.774H73.0119C73.1939 159.794 73.7259 159.374 75.1259 159.374C76.6099 159.374 77.2539 159.906 77.2539 161.194V162.244C77.2539 163.518 76.6099 163.994 75.1259 163.994C73.7119 163.994 73.1799 163.686 73.0259 162.594H71.6679C71.9199 164.12 73.3339 165.114 75.0839 165.114C77.4499 165.114 78.5839 163.616 78.5839 161.684C78.5839 159.864 77.2819 158.268 75.2099 158.268ZM84.2001 165.114C86.5241 165.114 87.9801 162.972 87.9801 159.962C87.9801 156.938 86.4961 154.782 84.2001 154.782C81.9041 154.782 80.4201 156.938 80.4201 159.962C80.4201 162.972 81.8761 165.114 84.2001 165.114ZM84.2001 164.008C82.5201 164.008 81.8061 163.126 81.8061 161.096V158.828C81.8061 156.756 82.5201 155.874 84.2001 155.874C85.8801 155.874 86.5941 156.756 86.5941 158.828V161.096C86.5941 163.126 85.8801 164.008 84.2001 164.008ZM93.4423 165.114C95.7663 165.114 97.2223 162.972 97.2223 159.962C97.2223 156.938 95.7383 154.782 93.4423 154.782C91.1463 154.782 89.6623 156.938 89.6623 159.962C89.6623 162.972 91.1183 165.114 93.4423 165.114ZM93.4423 164.008C91.7623 164.008 91.0483 163.126 91.0483 161.096V158.828C91.0483 156.756 91.7623 155.874 93.4423 155.874C95.1223 155.874 95.8363 156.756 95.8363 158.828V161.096C95.8363 163.126 95.1223 164.008 93.4423 164.008ZM99.2125 164.974H100.472V160.34H101.312L104.644 164.974H106.24L102.292 159.696L106.142 154.922H104.7L101.312 159.22H100.472V154.922H99.2125V164.974Z" fill="black" fill-opacity="0.5"/>
<path d="M49.9741 212.974H57.0861V211.784H54.1461V202.922H50.2961V204.112H52.9141V211.784H49.9741V212.974ZM61.9559 213.114C64.2799 213.114 65.7359 210.972 65.7359 207.962C65.7359 204.938 64.2519 202.782 61.9559 202.782C59.6599 202.782 58.1759 204.938 58.1759 207.962C58.1759 210.972 59.6319 213.114 61.9559 213.114ZM61.9559 212.008C60.2759 212.008 59.5619 211.126 59.5619 209.096V206.828C59.5619 204.756 60.2759 203.874 61.9559 203.874C63.6359 203.874 64.3499 204.756 64.3499 206.828V209.096C64.3499 211.126 63.6359 212.008 61.9559 212.008ZM68.4558 213.072C69.0298 213.072 69.4498 212.652 69.4498 212.078C69.4498 211.49 69.0298 211.07 68.4558 211.07C67.8818 211.07 67.4618 211.49 67.4618 212.078C67.4618 212.652 67.8818 213.072 68.4558 213.072ZM74.9579 213.114C77.2819 213.114 78.7379 210.972 78.7379 207.962C78.7379 204.938 77.2539 202.782 74.9579 202.782C72.6619 202.782 71.1779 204.938 71.1779 207.962C71.1779 210.972 72.6339 213.114 74.9579 213.114ZM74.9579 212.008C73.2779 212.008 72.5639 211.126 72.5639 209.096V206.828C72.5639 204.756 73.2779 203.874 74.9579 203.874C76.6379 203.874 77.3519 204.756 77.3519 206.828V209.096C77.3519 211.126 76.6379 212.008 74.9579 212.008ZM84.2001 213.114C86.5241 213.114 87.9801 210.972 87.9801 207.962C87.9801 204.938 86.4961 202.782 84.2001 202.782C81.9041 202.782 80.4201 204.938 80.4201 207.962C80.4201 210.972 81.8761 213.114 84.2001 213.114ZM84.2001 212.008C82.5201 212.008 81.8061 211.126 81.8061 209.096V206.828C81.8061 204.756 82.5201 203.874 84.2001 203.874C85.8801 203.874 86.5941 204.756 86.5941 206.828V209.096C86.5941 211.126 85.8801 212.008 84.2001 212.008ZM93.4423 213.114C95.7663 213.114 97.2223 210.972 97.2223 207.962C97.2223 204.938 95.7383 202.782 93.4423 202.782C91.1463 202.782 89.6623 204.938 89.6623 207.962C89.6623 210.972 91.1183 213.114 93.4423 213.114ZM93.4423 212.008C91.7623 212.008 91.0483 211.126 91.0483 209.096V206.828C91.0483 204.756 91.7623 203.874 93.4423 203.874C95.1223 203.874 95.8363 204.756 95.8363 206.828V209.096C95.8363 211.126 95.1223 212.008 93.4423 212.008ZM99.2125 212.974H100.472V208.34H101.312L104.644 212.974H106.24L102.292 207.696L106.142 202.922H104.7L101.312 207.22H100.472V202.922H99.2125V212.974Z" fill="black" fill-opacity="0.5"/>
<path d="M51.6961 260.974H53.0961L56.8481 252.602V250.922H49.7781V252.112H55.6161V252.672L51.6961 260.974ZM58.1608 261.072C58.7348 261.072 59.1548 260.652 59.1548 260.078C59.1548 259.49 58.7348 259.07 58.1608 259.07C57.5868 259.07 57.1668 259.49 57.1668 260.078C57.1668 260.652 57.5868 261.072 58.1608 261.072ZM64.8466 254.268C64.0346 254.268 63.2226 254.632 62.6626 255.206V252.112H67.7726V250.922H61.5706V256.774H62.6486C62.8306 255.794 63.3626 255.374 64.7626 255.374C66.2466 255.374 66.8906 255.906 66.8906 257.194V258.244C66.8906 259.518 66.2466 259.994 64.7626 259.994C63.3486 259.994 62.8166 259.686 62.6626 258.594H61.3046C61.5566 260.12 62.9706 261.114 64.7206 261.114C67.0866 261.114 68.2206 259.616 68.2206 257.684C68.2206 255.864 66.9186 254.268 64.8466 254.268ZM73.8368 261.114C76.1608 261.114 77.6168 258.972 77.6168 255.962C77.6168 252.938 76.1328 250.782 73.8368 250.782C71.5408 250.782 70.0568 252.938 70.0568 255.962C70.0568 258.972 71.5128 261.114 73.8368 261.114ZM73.8368 260.008C72.1568 260.008 71.4428 259.126 71.4428 257.096V254.828C71.4428 252.756 72.1568 251.874 73.8368 251.874C75.5168 251.874 76.2308 252.756 76.2308 254.828V257.096C76.2308 259.126 75.5168 260.008 73.8368 260.008ZM83.079 261.114C85.403 261.114 86.859 258.972 86.859 255.962C86.859 252.938 85.375 250.782 83.079 250.782C80.783 250.782 79.299 252.938 79.299 255.962C79.299 258.972 80.755 261.114 83.079 261.114ZM83.079 260.008C81.399 260.008 80.685 259.126 80.685 257.096V254.828C80.685 252.756 81.399 251.874 83.079 251.874C84.759 251.874 85.473 252.756 85.473 254.828V257.096C85.473 259.126 84.759 260.008 83.079 260.008ZM88.8492 260.974H90.1092V256.34H90.9492L94.2812 260.974H95.8772L91.9292 255.696L95.7792 250.922H94.3372L90.9492 255.22H90.1092V250.922H88.8492V260.974Z" fill="black" fill-opacity="0.5"/>
<path d="M53.9501 302.268C53.1381 302.268 52.3261 302.632 51.7661 303.206V300.112H56.8761V298.922H50.6741V304.774H51.7521C51.9341 303.794 52.4661 303.374 53.8661 303.374C55.3501 303.374 55.9941 303.906 55.9941 305.194V306.244C55.9941 307.518 55.3501 307.994 53.8661 307.994C52.4521 307.994 51.9201 307.686 51.7661 306.594H50.4081C50.6601 308.12 52.0741 309.114 53.8241 309.114C56.1901 309.114 57.3241 307.616 57.3241 305.684C57.3241 303.864 56.0221 302.268 53.9501 302.268ZM60.2663 309.072C60.8403 309.072 61.2603 308.652 61.2603 308.078C61.2603 307.49 60.8403 307.07 60.2663 307.07C59.6923 307.07 59.2723 307.49 59.2723 308.078C59.2723 308.652 59.6923 309.072 60.2663 309.072ZM66.7684 309.114C69.0924 309.114 70.5484 306.972 70.5484 303.962C70.5484 300.938 69.0644 298.782 66.7684 298.782C64.4724 298.782 62.9884 300.938 62.9884 303.962C62.9884 306.972 64.4444 309.114 66.7684 309.114ZM66.7684 308.008C65.0884 308.008 64.3744 307.126 64.3744 305.096V302.828C64.3744 300.756 65.0884 299.874 66.7684 299.874C68.4484 299.874 69.1624 300.756 69.1624 302.828V305.096C69.1624 307.126 68.4484 308.008 66.7684 308.008ZM76.0106 309.114C78.3346 309.114 79.7906 306.972 79.7906 303.962C79.7906 300.938 78.3066 298.782 76.0106 298.782C73.7146 298.782 72.2306 300.938 72.2306 303.962C72.2306 306.972 73.6866 309.114 76.0106 309.114ZM76.0106 308.008C74.3306 308.008 73.6166 307.126 73.6166 305.096V302.828C73.6166 300.756 74.3306 299.874 76.0106 299.874C77.6906 299.874 78.4046 300.756 78.4046 302.828V305.096C78.4046 307.126 77.6906 308.008 76.0106 308.008ZM85.2528 309.114C87.5768 309.114 89.0328 306.972 89.0328 303.962C89.0328 300.938 87.5488 298.782 85.2528 298.782C82.9568 298.782 81.4728 300.938 81.4728 303.962C81.4728 306.972 82.9288 309.114 85.2528 309.114ZM85.2528 308.008C83.5728 308.008 82.8588 307.126 82.8588 305.096V302.828C82.8588 300.756 83.5728 299.874 85.2528 299.874C86.9328 299.874 87.6468 300.756 87.6468 302.828V305.096C87.6468 307.126 86.9328 308.008 85.2528 308.008ZM91.023 308.974H92.283V304.34H93.123L96.455 308.974H98.051L94.103 303.696L97.953 298.922H96.511L93.123 303.22H92.283V298.922H91.023V308.974Z" fill="black" fill-opacity="0.5"/>
<path d="M50.6741 356.974H57.2681V355.784H51.9061V355.224L54.9861 352.872C56.3721 351.808 57.0721 350.772 57.0721 349.638C57.0721 348.084 55.8541 346.782 53.8521 346.782C51.9901 346.782 50.6881 347.972 50.4081 349.764H51.7381C51.7381 348.448 52.4101 347.874 53.8521 347.874C55.2801 347.874 55.7281 348.35 55.7281 349.47V349.974C55.7281 350.688 55.1961 351.248 54.0621 352.144L50.6741 354.79V356.974ZM60.2663 357.072C60.8403 357.072 61.2603 356.652 61.2603 356.078C61.2603 355.49 60.8403 355.07 60.2663 355.07C59.6923 355.07 59.2723 355.49 59.2723 356.078C59.2723 356.652 59.6923 357.072 60.2663 357.072ZM66.9521 350.268C66.1401 350.268 65.3281 350.632 64.7681 351.206V348.112H69.8781V346.922H63.6761V352.774H64.7541C64.9361 351.794 65.4681 351.374 66.8681 351.374C68.3521 351.374 68.9961 351.906 68.9961 353.194V354.244C68.9961 355.518 68.3521 355.994 66.8681 355.994C65.4541 355.994 64.9221 355.686 64.7681 354.594H63.4101C63.6621 356.12 65.0761 357.114 66.8261 357.114C69.1921 357.114 70.3261 355.616 70.3261 353.684C70.3261 351.864 69.0241 350.268 66.9521 350.268ZM75.9423 357.114C78.2663 357.114 79.7223 354.972 79.7223 351.962C79.7223 348.938 78.2383 346.782 75.9423 346.782C73.6463 346.782 72.1623 348.938 72.1623 351.962C72.1623 354.972 73.6183 357.114 75.9423 357.114ZM75.9423 356.008C74.2623 356.008 73.5483 355.126 73.5483 353.096V350.828C73.5483 348.756 74.2623 347.874 75.9423 347.874C77.6223 347.874 78.3363 348.756 78.3363 350.828V353.096C78.3363 355.126 77.6223 356.008 75.9423 356.008ZM85.1845 357.114C87.5085 357.114 88.9645 354.972 88.9645 351.962C88.9645 348.938 87.4805 346.782 85.1845 346.782C82.8885 346.782 81.4045 348.938 81.4045 351.962C81.4045 354.972 82.8605 357.114 85.1845 357.114ZM85.1845 356.008C83.5045 356.008 82.7905 355.126 82.7905 353.096V350.828C82.7905 348.756 83.5045 347.874 85.1845 347.874C86.8645 347.874 87.5785 348.756 87.5785 350.828V353.096C87.5785 355.126 86.8645 356.008 85.1845 356.008ZM90.9546 356.974H92.2146V352.34H93.0546L96.3866 356.974H97.9826L94.0346 351.696L97.8846 346.922H96.4426L93.0546 351.22H92.2146V346.922H90.9546V356.974Z" fill="black" fill-opacity="0.5"/>
<rect opacity="0.1" x="118.328" y="205.974" width="317.5" height="1" fill="#070707"/>
<rect opacity="0.1" x="118.328" y="253.974" width="317.5" height="1" fill="#070707"/>
<rect opacity="0.1" x="118.328" y="157.974" width="317.5" height="1" fill="#070707"/>
<rect opacity="0.1" x="118.328" y="301.974" width="317.5" height="1" fill="#070707"/>
<rect opacity="0.1" x="118.328" y="349.974" width="317.5" height="1" fill="#070707"/>
<path d="M126.843 266.974L156.758 262.566L187.327 250.92L216.586 246.172L246.845 253.416L275.041 235.497L308.738 212.622L337.622 203.09L367.881 192.415L398.827 198.515L428.398 176.784" stroke="#864DFE" stroke-width="5" stroke-linecap="round" stroke-linejoin="round"/>
<path d="M126.843 266.974L156.758 262.566L187.327 250.92L216.586 246.172L246.845 253.416L275.041 235.497L308.738 212.622L337.622 203.09L367.881 192.415L398.827 198.515L428.398 176.784" stroke="black" stroke-opacity="0.2" stroke-width="5" stroke-linecap="round" stroke-linejoin="round"/>
<path d="M126.843 275.297L156.758 272.876L187.327 266.478L216.586 263.87L246.845 267.849L275.041 258.006L308.738 245.439" stroke="#F2753A" stroke-width="5" stroke-linecap="round" stroke-linejoin="round"/>
<path d="M123.366 377.111C125.158 377.111 126.474 375.795 126.474 373.989V366.919H125.214V373.849C125.214 375.417 124.724 375.977 123.366 375.977C121.882 375.977 121.448 375.501 121.448 373.849H120.146C120.146 375.739 121.49 377.111 123.366 377.111ZM131.369 369.509C129.815 369.509 128.597 370.615 128.359 372.127H129.619C129.675 371.007 130.053 370.601 131.327 370.601C132.545 370.601 132.909 371.021 132.909 372.127V372.785H130.879C129.297 372.785 128.177 373.639 128.177 374.843C128.177 376.103 129.339 377.111 130.809 377.111C131.761 377.111 132.531 376.761 132.979 376.145V376.971H134.141V372.197C134.141 370.587 133.035 369.509 131.369 369.509ZM131.061 376.019C129.969 376.019 129.507 375.725 129.507 375.039V374.647C129.507 374.101 129.843 373.821 130.529 373.821H132.909V374.731C132.909 375.627 132.349 376.019 131.061 376.019ZM139.63 369.509C138.678 369.509 137.852 369.957 137.292 370.741V369.649H136.13V376.971H137.362V372.323C137.362 371.119 137.922 370.601 139.252 370.601C140.498 370.601 141.044 371.091 141.044 372.253V376.971H142.276V372.393C142.276 370.699 141.156 369.509 139.63 369.509Z" fill="#646464"/>
<path d="M170.85 376.971H172.11V372.617H175.932V371.497H172.11V368.025H176.352V366.919H170.85V376.971ZM183.928 373.681V373.163C183.928 371.105 182.486 369.509 180.638 369.509C178.65 369.509 177.152 371.245 177.152 373.457C177.152 375.599 178.636 377.111 180.638 377.111C182.01 377.111 183.41 376.103 183.9 374.717H182.472C182.36 375.627 181.814 376.019 180.638 376.019C179.154 376.019 178.524 375.431 178.524 374.003V373.681H183.928ZM180.652 370.601C182.038 370.601 182.556 371.147 182.556 372.463V372.645H178.524V372.491C178.524 371.175 179.196 370.601 180.652 370.601ZM189.073 369.509C188.191 369.509 187.309 369.971 186.777 370.685V366.919H185.545V376.971H186.707V375.851C187.309 376.663 188.135 377.111 189.017 377.111C190.865 377.111 192.349 375.403 192.349 373.275C192.349 371.245 190.837 369.509 189.073 369.509ZM190.977 373.877C190.977 375.375 190.347 376.019 188.877 376.019C187.407 376.019 186.777 375.375 186.777 373.877V372.757C186.777 371.245 187.407 370.601 188.877 370.601C190.347 370.601 190.977 371.245 190.977 372.757V373.877Z" fill="#646464"/>
<path d="M218.023 376.971H219.171V368.039H219.801L221.901 376.971H224.197L226.325 368.039H226.955V376.971H228.131V366.919H225.373L223.329 375.851H222.825L220.781 366.919H218.023V376.971ZM233.097 369.509C231.543 369.509 230.325 370.615 230.087 372.127H231.347C231.403 371.007 231.781 370.601 233.055 370.601C234.273 370.601 234.637 371.021 234.637 372.127V372.785H232.607C231.025 372.785 229.905 373.639 229.905 374.843C229.905 376.103 231.067 377.111 232.537 377.111C233.489 377.111 234.259 376.761 234.707 376.145V376.971H235.869V372.197C235.869 370.587 234.763 369.509 233.097 369.509ZM232.789 376.019C231.697 376.019 231.235 375.725 231.235 375.039V374.647C231.235 374.101 231.571 373.821 232.257 373.821H234.637V374.731C234.637 375.627 234.077 376.019 232.789 376.019ZM239.021 371.021V369.649H237.859V376.971H239.091V372.505C239.091 371.511 239.539 371.063 240.533 371.063H241.667V369.509C240.533 369.649 239.595 370.181 239.021 371.021Z" fill="#646464"/>
<path d="M275.14 376.971H276.484L273.544 366.919H271.304L268.322 376.971H269.61L270.464 373.877H274.272L275.14 376.971ZM270.786 372.757L272.088 368.039H272.648L273.964 372.757H270.786ZM281.623 369.509C280.699 369.509 279.775 370.027 279.257 370.783V369.649H278.095V379.869H279.327V375.949C279.915 376.691 280.713 377.111 281.567 377.111C283.415 377.111 284.899 375.403 284.899 373.275C284.899 371.245 283.387 369.509 281.623 369.509ZM283.527 373.877C283.527 375.375 282.897 376.019 281.427 376.019C279.957 376.019 279.327 375.375 279.327 373.877V372.757C279.327 371.245 279.957 370.601 281.427 370.601C282.897 370.601 283.527 371.245 283.527 372.757V373.877ZM287.665 371.021V369.649H286.503V376.971H287.735V372.505C287.735 371.511 288.183 371.063 289.177 371.063H290.311V369.509C289.177 369.649 288.239 370.181 287.665 371.021Z" fill="#646464"/>
<path d="M314.601 376.971H315.749V368.039H316.379L318.479 376.971H320.775L322.903 368.039H323.533V376.971H324.709V366.919H321.951L319.907 375.851H319.403L317.359 366.919H314.601V376.971ZM329.675 369.509C328.121 369.509 326.903 370.615 326.665 372.127H327.925C327.981 371.007 328.359 370.601 329.633 370.601C330.851 370.601 331.215 371.021 331.215 372.127V372.785H329.185C327.603 372.785 326.483 373.639 326.483 374.843C326.483 376.103 327.645 377.111 329.115 377.111C330.067 377.111 330.837 376.761 331.285 376.145V376.971H332.447V372.197C332.447 370.587 331.341 369.509 329.675 369.509ZM329.367 376.019C328.275 376.019 327.813 375.725 327.813 375.039V374.647C327.813 374.101 328.149 373.821 328.835 373.821H331.215V374.731C331.215 375.627 330.655 376.019 329.367 376.019ZM336.104 379.869H337.434L340.486 369.649H339.142L337.336 375.935H336.776L335.082 369.649H333.738L335.908 376.971H337.014L336.104 379.869Z" fill="#646464"/>
<path d="M367.852 377.111C369.644 377.111 370.96 375.795 370.96 373.989V366.919H369.7V373.849C369.7 375.417 369.21 375.977 367.852 375.977C366.368 375.977 365.934 375.501 365.934 373.849H364.632C364.632 375.739 365.976 377.111 367.852 377.111ZM377.689 369.649V374.311C377.689 375.501 377.143 376.019 375.883 376.019C374.707 376.019 374.203 375.529 374.203 374.381V369.649H372.971V374.087C372.971 375.893 374.077 377.111 375.701 377.111C376.527 377.111 377.283 376.705 377.759 376.033V376.971H378.921V369.649H377.689ZM384.526 369.509C383.574 369.509 382.748 369.957 382.188 370.741V369.649H381.026V376.971H382.258V372.323C382.258 371.119 382.818 370.601 384.148 370.601C385.394 370.601 385.94 371.091 385.94 372.253V376.971H387.172V372.393C387.172 370.699 386.052 369.509 384.526 369.509Z" fill="#646464"/>
<path d="M418.966 377.111C420.758 377.111 422.074 375.795 422.074 373.989V366.919H420.814V373.849C420.814 375.417 420.324 375.977 418.966 375.977C417.482 375.977 417.048 375.501 417.048 373.849H415.746C415.746 375.739 417.09 377.111 418.966 377.111ZM428.803 369.649V374.311C428.803 375.501 428.257 376.019 426.997 376.019C425.821 376.019 425.317 375.529 425.317 374.381V369.649H424.085V374.087C424.085 375.893 425.191 377.111 426.815 377.111C427.641 377.111 428.397 376.705 428.873 376.033V376.971H430.035V369.649H428.803ZM432.14 376.971H433.372V366.919H432.14V376.971Z" fill="#646464"/>
<path d="M126.843 283.976L156.758 282.162L187.327 277.37L216.586 275.416L246.845 278.397L275.041 271.024L308.738 261.611L337.622 257.689L367.881 253.296L398.827 255.806L428.398 246.864" stroke="#2BBC62" stroke-width="5" stroke-linecap="round" stroke-linejoin="round" stroke-dasharray="2 10"/>
<path d="M76.8509 119.977H78.6509V113.757H84.1109V112.157H78.6509V107.197H84.7109V105.617H76.8509V119.977ZM90.2998 109.317C88.0798 109.317 86.3398 110.897 85.9998 113.057H87.7998C87.8798 111.457 88.4198 110.877 90.2398 110.877C91.9798 110.877 92.4998 111.477 92.4998 113.057V113.997H89.5998C87.3398 113.997 85.7398 115.217 85.7398 116.937C85.7398 118.737 87.3998 120.177 89.4998 120.177C90.8598 120.177 91.9598 119.677 92.5998 118.797V119.977H94.2598V113.157C94.2598 110.857 92.6798 109.317 90.2998 109.317ZM89.8598 118.617C88.2998 118.617 87.6398 118.197 87.6398 117.217V116.657C87.6398 115.877 88.1198 115.477 89.0998 115.477H92.4998V116.777C92.4998 118.057 91.6998 118.617 89.8598 118.617ZM101.202 120.177C103.442 120.177 105.422 118.397 105.782 116.057H103.902C103.782 117.897 103.002 118.617 101.162 118.617C99.2016 118.617 98.3616 117.697 98.3616 115.537V113.937C98.3616 111.797 99.2016 110.877 101.162 110.877C103.002 110.877 103.782 111.597 103.902 113.437H105.782C105.422 111.097 103.442 109.317 101.202 109.317C98.4816 109.317 96.4016 111.677 96.4016 114.737C96.4016 117.797 98.5016 120.177 101.202 120.177ZM112.123 120.077H113.523V118.497H111.923C111.123 118.497 110.723 118.097 110.723 117.297V110.997H113.723V109.517H110.723V105.617H108.963V109.517H106.683V110.997H108.963V117.097C108.963 118.877 110.223 120.077 112.123 120.077Z" fill="#070707"/>
<path d="M181.117 119.977H182.917V113.357H189.477V119.977H191.277V105.617H189.477V111.757H182.917V105.617H181.117V119.977ZM195.294 108.217C196.054 108.217 196.634 107.637 196.634 106.857C196.634 106.057 196.054 105.497 195.294 105.497C194.514 105.497 193.934 106.057 193.934 106.857C193.934 107.637 194.514 108.217 195.294 108.217ZM194.414 119.977H196.174V109.517H194.414V119.977ZM206.54 109.517V110.997C205.84 110.017 204.52 109.337 203.22 109.337C200.56 109.337 198.58 111.497 198.58 114.417C198.58 117.357 200.58 119.577 203.2 119.577C204.42 119.577 205.54 119.057 206.44 118.057V120.077C206.44 122.037 205.68 122.757 203.6 122.757C201.46 122.757 200.74 122.157 200.72 120.377H198.92C198.96 122.457 200.94 124.317 203.6 124.317C206.34 124.317 208.2 122.477 208.2 120.277V109.517H206.54ZM203.5 118.037C201.42 118.037 200.52 117.137 200.52 115.037V113.797C200.52 111.757 201.42 110.897 203.5 110.897C205.56 110.897 206.44 111.757 206.44 113.797V115.037C206.44 117.137 205.56 118.037 203.5 118.037ZM216.232 109.317C214.892 109.317 213.752 109.917 212.952 110.957V105.617H211.192V119.977H212.952V113.337C212.952 111.617 213.752 110.877 215.672 110.877C217.492 110.877 218.252 111.577 218.252 113.237V119.977H220.012V113.437C220.012 110.997 218.452 109.317 216.232 109.317ZM233.277 112.557V114.157H237.257C237.197 116.897 235.657 118.557 233.157 118.557C230.577 118.557 229.057 116.857 229.057 113.997V111.617C229.057 108.557 230.417 107.037 233.137 107.037C235.497 107.037 236.757 108.157 236.837 110.157H238.937C238.477 107.477 235.977 105.417 233.137 105.417C229.677 105.417 227.017 108.637 227.017 112.797C227.017 116.917 229.677 120.177 233.057 120.177C234.937 120.177 236.617 119.117 237.437 117.437V119.977H239.017V112.557H233.277ZM243.77 111.477V109.517H242.11V119.977H243.87V113.597C243.87 112.177 244.51 111.537 245.93 111.537H247.55V109.317C245.93 109.517 244.59 110.277 243.77 111.477ZM253.459 120.177C256.259 120.177 258.419 117.797 258.419 114.737C258.419 111.677 256.259 109.317 253.459 109.317C250.659 109.317 248.499 111.677 248.499 114.737C248.499 117.797 250.659 120.177 253.459 120.177ZM253.459 118.617C251.359 118.617 250.459 117.697 250.459 115.537V113.937C250.459 111.797 251.359 110.877 253.459 110.877C255.559 110.877 256.459 111.797 256.459 113.937V115.537C256.459 117.697 255.559 118.617 253.459 118.617ZM262.023 119.977H265.623L266.983 110.997H267.703L269.023 119.977H272.643L274.463 109.517H272.743L271.383 118.497H270.383L268.903 109.517H265.783L264.283 118.497H263.283L261.943 109.517H260.223L262.023 119.977ZM281.486 120.077H282.886V118.497H281.286C280.486 118.497 280.086 118.097 280.086 117.297V110.997H283.086V109.517H280.086V105.617H278.326V109.517H276.046V110.997H278.326V117.097C278.326 118.877 279.586 120.077 281.486 120.077ZM290.431 109.317C289.091 109.317 287.951 109.917 287.151 110.957V105.617H285.391V119.977H287.151V113.337C287.151 111.617 287.951 110.877 289.871 110.877C291.691 110.877 292.451 111.577 292.451 113.237V119.977H294.211V113.437C294.211 110.997 292.651 109.317 290.431 109.317Z" fill="#070707"/>
<path d="M366.6 112.517C367.98 111.897 368.9 110.697 368.9 109.417C368.9 107.277 366.92 105.617 364.38 105.617H359.64V119.977H364.58C367.22 119.977 369.36 118.157 369.36 115.877C369.36 114.417 368.26 113.097 366.6 112.517ZM364.4 107.217C365.9 107.217 366.96 107.957 366.96 109.017V109.957C366.96 111.017 365.9 111.757 364.4 111.757H361.44V107.217H364.4ZM367.42 116.397C367.42 117.537 366.26 118.377 364.64 118.377H361.44V113.357H364.64C366.26 113.357 367.42 114.197 367.42 115.337V116.397ZM376.116 109.317C373.896 109.317 372.156 110.897 371.816 113.057H373.616C373.696 111.457 374.236 110.877 376.056 110.877C377.796 110.877 378.316 111.477 378.316 113.057V113.997H375.416C373.156 113.997 371.556 115.217 371.556 116.937C371.556 118.737 373.216 120.177 375.316 120.177C376.676 120.177 377.776 119.677 378.416 118.797V119.977H380.076V113.157C380.076 110.857 378.496 109.317 376.116 109.317ZM375.676 118.617C374.116 118.617 373.456 118.197 373.456 117.217V116.657C373.456 115.877 373.936 115.477 374.916 115.477H378.316V116.777C378.316 118.057 377.516 118.617 375.676 118.617ZM386.738 120.177C389.078 120.177 390.878 118.617 390.878 116.857C390.878 115.277 389.758 114.197 387.858 113.997L385.938 113.797C384.898 113.697 384.458 113.337 384.458 112.597V112.197C384.458 111.277 385.118 110.877 386.638 110.877C388.258 110.877 388.838 111.317 388.898 112.637H390.758C390.498 110.557 388.718 109.317 386.598 109.317C384.498 109.317 382.678 110.857 382.678 112.577C382.678 114.177 383.718 115.237 385.598 115.437L387.558 115.637C388.658 115.757 389.118 116.077 389.118 116.817V117.257C389.118 118.177 388.378 118.617 386.698 118.617C384.898 118.617 384.258 118.197 384.178 116.857H382.318C382.538 118.817 384.318 120.177 386.738 120.177ZM402.152 115.277V114.537C402.152 111.597 400.092 109.317 397.452 109.317C394.612 109.317 392.472 111.797 392.472 114.957C392.472 118.017 394.592 120.177 397.452 120.177C399.412 120.177 401.412 118.737 402.112 116.757H400.072C399.912 118.057 399.132 118.617 397.452 118.617C395.332 118.617 394.432 117.777 394.432 115.737V115.277H402.152ZM397.472 110.877C399.452 110.877 400.192 111.657 400.192 113.537V113.797H394.432V113.577C394.432 111.697 395.392 110.877 397.472 110.877ZM404.461 119.977H406.221V105.617H404.461V119.977ZM410.107 108.217C410.867 108.217 411.447 107.637 411.447 106.857C411.447 106.057 410.867 105.497 410.107 105.497C409.327 105.497 408.747 106.057 408.747 106.857C408.747 107.637 409.327 108.217 410.107 108.217ZM409.227 119.977H410.987V109.517H409.227V119.977ZM418.992 109.317C417.632 109.317 416.452 109.957 415.652 111.077V109.517H413.992V119.977H415.752V113.337C415.752 111.617 416.552 110.877 418.452 110.877C420.232 110.877 421.012 111.577 421.012 113.237V119.977H422.772V113.437C422.772 111.017 421.172 109.317 418.992 109.317ZM434.593 115.277V114.537C434.593 111.597 432.533 109.317 429.893 109.317C427.053 109.317 424.913 111.797 424.913 114.957C424.913 118.017 427.033 120.177 429.893 120.177C431.853 120.177 433.853 118.737 434.553 116.757H432.513C432.353 118.057 431.573 118.617 429.893 118.617C427.773 118.617 426.873 117.777 426.873 115.737V115.277H434.593ZM429.913 110.877C431.893 110.877 432.633 111.657 432.633 113.537V113.797H426.873V113.577C426.873 111.697 427.833 110.877 429.913 110.877Z" fill="#070707"/>
<rect x="49.0781" y="96.9766" width="12" height="32" rx="6" fill="#F2753A"/>
<rect x="153.344" y="96.9766" width="12" height="32" rx="6" fill="#6B3ECB"/>
<rect x="331.867" y="96.9766" width="12" height="32" rx="6" fill="#2BBC62"/>
<rect width="126.199" height="58.8916" rx="8" transform="matrix(1 0 0 -1 240.801 266.48)" fill="#2F2F2F"/>
<g filter="url(#filter0_f_1303_1849)">
<rect x="214.801" y="240.48" width="422.989" height="267.874" rx="8" fill="black" fill-opacity="0.15"/>
</g>
<rect x="224.801" y="250.48" width="422.989" height="267.874" rx="8" fill="white"/>
<path d="M262.717 236.788C265.797 236.788 267.797 234.788 267.797 231.728V222.228H265.997V232.208C265.997 234.268 264.997 235.168 262.717 235.168C260.417 235.168 259.437 234.288 259.437 232.208V222.228H257.637V231.728C257.637 234.788 259.637 236.788 262.717 236.788ZM274.659 236.788C276.999 236.788 278.799 235.228 278.799 233.468C278.799 231.888 277.679 230.808 275.779 230.608L273.859 230.408C272.819 230.308 272.379 229.948 272.379 229.208V228.808C272.379 227.888 273.039 227.488 274.559 227.488C276.179 227.488 276.759 227.928 276.819 229.248H278.679C278.419 227.168 276.639 225.928 274.519 225.928C272.419 225.928 270.599 227.468 270.599 229.188C270.599 230.788 271.639 231.848 273.519 232.048L275.479 232.248C276.579 232.368 277.039 232.688 277.039 233.428V233.868C277.039 234.788 276.299 235.228 274.619 235.228C272.819 235.228 272.179 234.808 272.099 233.468H270.239C270.459 235.428 272.239 236.788 274.659 236.788ZM290.073 231.888V231.148C290.073 228.208 288.013 225.928 285.373 225.928C282.533 225.928 280.393 228.408 280.393 231.568C280.393 234.628 282.513 236.788 285.373 236.788C287.333 236.788 289.333 235.348 290.033 233.368H287.993C287.833 234.668 287.053 235.228 285.373 235.228C283.253 235.228 282.353 234.388 282.353 232.348V231.888H290.073ZM285.393 227.488C287.373 227.488 288.113 228.268 288.113 230.148V230.408H282.353V230.188C282.353 228.308 283.313 227.488 285.393 227.488ZM294.042 228.088V226.128H292.382V236.588H294.142V230.208C294.142 228.788 294.782 228.148 296.202 228.148H297.822V225.928C296.202 226.128 294.862 226.888 294.042 228.088ZM303.585 236.788C305.925 236.788 307.725 235.228 307.725 233.468C307.725 231.888 306.605 230.808 304.705 230.608L302.785 230.408C301.745 230.308 301.305 229.948 301.305 229.208V228.808C301.305 227.888 301.965 227.488 303.485 227.488C305.105 227.488 305.685 227.928 305.745 229.248H307.605C307.345 227.168 305.565 225.928 303.445 225.928C301.345 225.928 299.525 227.468 299.525 229.188C299.525 230.788 300.565 231.848 302.445 232.048L304.405 232.248C305.505 232.368 305.965 232.688 305.965 233.428V233.868C305.965 234.788 305.225 235.228 303.545 235.228C301.745 235.228 301.105 234.808 301.025 233.468H299.165C299.385 235.428 301.165 236.788 303.585 236.788ZM319.824 225.928C318.504 225.928 317.184 226.668 316.444 227.748V226.128H314.784V240.728H316.544V235.128C317.384 236.188 318.524 236.788 319.744 236.788C322.384 236.788 324.504 234.348 324.504 231.308C324.504 228.408 322.344 225.928 319.824 225.928ZM322.544 232.168C322.544 234.308 321.644 235.228 319.544 235.228C317.444 235.228 316.544 234.308 316.544 232.168V230.568C316.544 228.408 317.444 227.488 319.544 227.488C321.644 227.488 322.544 228.408 322.544 230.568V232.168ZM326.796 236.588H328.556V222.228H326.796V236.588ZM335.522 225.928C333.302 225.928 331.562 227.508 331.222 229.668H333.022C333.102 228.068 333.642 227.488 335.462 227.488C337.202 227.488 337.722 228.088 337.722 229.668V230.608H334.822C332.562 230.608 330.962 231.828 330.962 233.548C330.962 235.348 332.622 236.788 334.722 236.788C336.082 236.788 337.182 236.288 337.822 235.408V236.588H339.482V229.768C339.482 227.468 337.902 225.928 335.522 225.928ZM335.082 235.228C333.522 235.228 332.862 234.808 332.862 233.828V233.268C332.862 232.488 333.342 232.088 334.322 232.088H337.722V233.388C337.722 234.668 336.922 235.228 335.082 235.228ZM347.323 225.928C345.963 225.928 344.783 226.568 343.983 227.688V226.128H342.323V236.588H344.083V229.948C344.083 228.228 344.883 227.488 346.783 227.488C348.563 227.488 349.343 228.188 349.343 229.848V236.588H351.103V230.048C351.103 227.628 349.503 225.928 347.323 225.928Z" fill="white"/>
<path d="M248.697 343.505H255.809V342.315H252.869V333.453H249.019V334.643H251.637V342.315H248.697V343.505ZM257.654 343.505H264.248V342.315H258.886V341.755L261.966 339.403C263.352 338.339 264.052 337.303 264.052 336.169C264.052 334.615 262.834 333.313 260.832 333.313C258.97 333.313 257.668 334.503 257.388 336.295H258.718C258.718 334.979 259.39 334.405 260.832 334.405C262.26 334.405 262.708 334.881 262.708 336.001V336.505C262.708 337.219 262.176 337.779 261.042 338.675L257.654 341.321V343.505ZM269.749 336.799C268.937 336.799 268.125 337.163 267.565 337.737V334.643H272.675V333.453H266.473V339.305H267.551C267.733 338.325 268.265 337.905 269.665 337.905C271.149 337.905 271.793 338.437 271.793 339.725V340.775C271.793 342.049 271.149 342.525 269.665 342.525C268.251 342.525 267.719 342.217 267.565 341.125H266.207C266.459 342.651 267.873 343.645 269.623 343.645C271.989 343.645 273.123 342.147 273.123 340.215C273.123 338.395 271.821 336.799 269.749 336.799ZM275.267 343.505H276.527V338.871H277.367L280.699 343.505H282.295L278.347 338.227L282.197 333.453H280.755L277.367 337.751H276.527V333.453H275.267V343.505Z" fill="black" fill-opacity="0.5"/>
<path d="M248.697 374.505H255.809V373.315H252.869V364.453H249.019V365.643H251.637V373.315H248.697V374.505ZM260.678 374.645C263.002 374.645 264.458 372.503 264.458 369.493C264.458 366.469 262.974 364.313 260.678 364.313C258.382 364.313 256.898 366.469 256.898 369.493C256.898 372.503 258.354 374.645 260.678 374.645ZM260.678 373.539C258.998 373.539 258.284 372.657 258.284 370.627V368.359C258.284 366.287 258.998 365.405 260.678 365.405C262.358 365.405 263.072 366.287 263.072 368.359V370.627C263.072 372.657 262.358 373.539 260.678 373.539ZM269.921 374.645C272.245 374.645 273.701 372.503 273.701 369.493C273.701 366.469 272.217 364.313 269.921 364.313C267.625 364.313 266.141 366.469 266.141 369.493C266.141 372.503 267.597 374.645 269.921 374.645ZM269.921 373.539C268.241 373.539 267.527 372.657 267.527 370.627V368.359C267.527 366.287 268.241 365.405 269.921 365.405C271.601 365.405 272.315 366.287 272.315 368.359V370.627C272.315 372.657 271.601 373.539 269.921 373.539ZM275.691 374.505H276.951V369.871H277.791L281.123 374.505H282.719L278.771 369.227L282.621 364.453H281.179L277.791 368.751H276.951V364.453H275.691V374.505Z" fill="black" fill-opacity="0.5"/>
<path d="M250.419 405.505H251.819L255.571 397.133V395.453H248.501V396.643H254.339V397.203L250.419 405.505ZM261.641 398.799C260.829 398.799 260.017 399.163 259.457 399.737V396.643H264.567V395.453H258.365V401.305H259.443C259.625 400.325 260.157 399.905 261.557 399.905C263.041 399.905 263.685 400.437 263.685 401.725V402.775C263.685 404.049 263.041 404.525 261.557 404.525C260.143 404.525 259.611 404.217 259.457 403.125H258.099C258.351 404.651 259.765 405.645 261.515 405.645C263.881 405.645 265.015 404.147 265.015 402.215C265.015 400.395 263.713 398.799 261.641 398.799ZM267.159 405.505H268.419V400.871H269.259L272.591 405.505H274.187L270.239 400.227L274.089 395.453H272.647L269.259 399.751H268.419V395.453H267.159V405.505Z" fill="black" fill-opacity="0.5"/>
<path d="M252.673 429.799C251.861 429.799 251.049 430.163 250.489 430.737V427.643H255.599V426.453H249.397V432.305H250.475C250.657 431.325 251.189 430.905 252.589 430.905C254.073 430.905 254.717 431.437 254.717 432.725V433.775C254.717 435.049 254.073 435.525 252.589 435.525C251.175 435.525 250.643 435.217 250.489 434.125H249.131C249.383 435.651 250.797 436.645 252.547 436.645C254.913 436.645 256.047 435.147 256.047 433.215C256.047 431.395 254.745 429.799 252.673 429.799ZM261.663 436.645C263.987 436.645 265.443 434.503 265.443 431.493C265.443 428.469 263.959 426.313 261.663 426.313C259.367 426.313 257.883 428.469 257.883 431.493C257.883 434.503 259.339 436.645 261.663 436.645ZM261.663 435.539C259.983 435.539 259.269 434.657 259.269 432.627V430.359C259.269 428.287 259.983 427.405 261.663 427.405C263.343 427.405 264.057 428.287 264.057 430.359V432.627C264.057 434.657 263.343 435.539 261.663 435.539ZM267.433 436.505H268.693V431.871H269.533L272.865 436.505H274.461L270.513 431.227L274.363 426.453H272.921L269.533 430.751H268.693V426.453H267.433V436.505Z" fill="black" fill-opacity="0.5"/>
<path d="M249.397 467.505H255.991V466.315H250.629V465.755L253.709 463.403C255.095 462.339 255.795 461.303 255.795 460.169C255.795 458.615 254.577 457.313 252.575 457.313C250.713 457.313 249.411 458.503 249.131 460.295H250.461C250.461 458.979 251.133 458.405 252.575 458.405C254.003 458.405 254.451 458.881 254.451 460.001V460.505C254.451 461.219 253.919 461.779 252.785 462.675L249.397 465.321V467.505ZM261.491 460.799C260.679 460.799 259.867 461.163 259.307 461.737V458.643H264.417V457.453H258.215V463.305H259.293C259.475 462.325 260.007 461.905 261.407 461.905C262.891 461.905 263.535 462.437 263.535 463.725V464.775C263.535 466.049 262.891 466.525 261.407 466.525C259.993 466.525 259.461 466.217 259.307 465.125H257.949C258.201 466.651 259.615 467.645 261.365 467.645C263.731 467.645 264.865 466.147 264.865 464.215C264.865 462.395 263.563 460.799 261.491 460.799ZM267.009 467.505H268.269V462.871H269.109L272.441 467.505H274.037L270.089 462.227L273.939 457.453H272.497L269.109 461.751H268.269V457.453H267.009V467.505Z" fill="black" fill-opacity="0.5"/>
<rect opacity="0.1" x="294.051" y="370.31" width="317.5" height="0.653506" fill="#070707"/>
<rect opacity="0.1" x="294.051" y="401.678" width="317.5" height="0.653506" fill="#070707"/>
<rect opacity="0.1" x="294.051" y="338.942" width="317.5" height="0.653506" fill="#070707"/>
<rect opacity="0.1" x="294.051" y="433.046" width="317.5" height="0.653506" fill="#070707"/>
<rect opacity="0.1" x="294.051" y="464.415" width="317.5" height="0.653506" fill="#070707"/>
<path d="M302.565 414.505L332.48 410.097L355 391.609L393 383.029L422.567 400.947L450.763 383.029H493L513.344 350.622L544 368.609L573 377.609H608.471" stroke="#864DFE" stroke-width="5" stroke-linecap="round" stroke-linejoin="round"/>
<path d="M302.565 414.505L332.48 410.097L355 391.609L393 383.029L422.567 400.947L450.763 383.029H493L513.344 350.622L544 368.609L573 377.609H608.471" stroke="#11B3E7" stroke-width="5" stroke-linecap="round" stroke-linejoin="round"/>
<path d="M299.089 497.568C300.881 497.568 302.197 496.252 302.197 494.446V487.376H300.937V494.306C300.937 495.874 300.447 496.434 299.089 496.434C297.605 496.434 297.171 495.958 297.171 494.306H295.869C295.869 496.196 297.213 497.568 299.089 497.568ZM307.091 489.966C305.537 489.966 304.319 491.072 304.081 492.584H305.341C305.397 491.464 305.775 491.058 307.049 491.058C308.267 491.058 308.631 491.478 308.631 492.584V493.242H306.601C305.019 493.242 303.899 494.096 303.899 495.3C303.899 496.56 305.061 497.568 306.531 497.568C307.483 497.568 308.253 497.218 308.701 496.602V497.428H309.863V492.654C309.863 491.044 308.757 489.966 307.091 489.966ZM306.783 496.476C305.691 496.476 305.229 496.182 305.229 495.496V495.104C305.229 494.558 305.565 494.278 306.251 494.278H308.631V495.188C308.631 496.084 308.071 496.476 306.783 496.476ZM315.352 489.966C314.4 489.966 313.574 490.414 313.014 491.198V490.106H311.852V497.428H313.084V492.78C313.084 491.576 313.644 491.058 314.974 491.058C316.22 491.058 316.766 491.548 316.766 492.71V497.428H317.998V492.85C317.998 491.156 316.878 489.966 315.352 489.966Z" fill="#646464"/>
<path d="M346.572 497.428H347.832V493.074H351.654V491.954H347.832V488.482H352.074V487.376H346.572V497.428ZM359.651 494.138V493.62C359.651 491.562 358.209 489.966 356.361 489.966C354.373 489.966 352.875 491.702 352.875 493.914C352.875 496.056 354.359 497.568 356.361 497.568C357.733 497.568 359.133 496.56 359.623 495.174H358.195C358.083 496.084 357.537 496.476 356.361 496.476C354.877 496.476 354.247 495.888 354.247 494.46V494.138H359.651ZM356.375 491.058C357.761 491.058 358.279 491.604 358.279 492.92V493.102H354.247V492.948C354.247 491.632 354.919 491.058 356.375 491.058ZM364.795 489.966C363.913 489.966 363.031 490.428 362.499 491.142V487.376H361.267V497.428H362.429V496.308C363.031 497.12 363.857 497.568 364.739 497.568C366.587 497.568 368.071 495.86 368.071 493.732C368.071 491.702 366.559 489.966 364.795 489.966ZM366.699 494.334C366.699 495.832 366.069 496.476 364.599 496.476C363.129 496.476 362.499 495.832 362.499 494.334V493.214C362.499 491.702 363.129 491.058 364.599 491.058C366.069 491.058 366.699 491.702 366.699 493.214V494.334Z" fill="#646464"/>
<path d="M393.746 497.428H394.894V488.496H395.524L397.624 497.428H399.92L402.048 488.496H402.678V497.428H403.854V487.376H401.096L399.052 496.308H398.548L396.504 487.376H393.746V497.428ZM408.82 489.966C407.266 489.966 406.048 491.072 405.81 492.584H407.07C407.126 491.464 407.504 491.058 408.778 491.058C409.996 491.058 410.36 491.478 410.36 492.584V493.242H408.33C406.748 493.242 405.628 494.096 405.628 495.3C405.628 496.56 406.79 497.568 408.26 497.568C409.212 497.568 409.982 497.218 410.43 496.602V497.428H411.592V492.654C411.592 491.044 410.486 489.966 408.82 489.966ZM408.512 496.476C407.42 496.476 406.958 496.182 406.958 495.496V495.104C406.958 494.558 407.294 494.278 407.98 494.278H410.36V495.188C410.36 496.084 409.8 496.476 408.512 496.476ZM414.743 491.478V490.106H413.581V497.428H414.813V492.962C414.813 491.968 415.261 491.52 416.255 491.52H417.389V489.966C416.255 490.106 415.317 490.638 414.743 491.478Z" fill="#646464"/>
<path d="M450.862 497.428H452.206L449.266 487.376H447.026L444.044 497.428H445.332L446.186 494.334H449.994L450.862 497.428ZM446.508 493.214L447.81 488.496H448.37L449.686 493.214H446.508ZM457.345 489.966C456.421 489.966 455.497 490.484 454.979 491.24V490.106H453.817V500.326H455.049V496.406C455.637 497.148 456.435 497.568 457.289 497.568C459.137 497.568 460.621 495.86 460.621 493.732C460.621 491.702 459.109 489.966 457.345 489.966ZM459.249 494.334C459.249 495.832 458.619 496.476 457.149 496.476C455.679 496.476 455.049 495.832 455.049 494.334V493.214C455.049 491.702 455.679 491.058 457.149 491.058C458.619 491.058 459.249 491.702 459.249 493.214V494.334ZM463.388 491.478V490.106H462.226V497.428H463.458V492.962C463.458 491.968 463.906 491.52 464.9 491.52H466.034V489.966C464.9 490.106 463.962 490.638 463.388 491.478Z" fill="#646464"/>
<path d="M490.323 497.428H491.471V488.496H492.101L494.201 497.428H496.497L498.625 488.496H499.255V497.428H500.431V487.376H497.673L495.629 496.308H495.125L493.081 487.376H490.323V497.428ZM505.398 489.966C503.844 489.966 502.626 491.072 502.388 492.584H503.648C503.704 491.464 504.082 491.058 505.356 491.058C506.574 491.058 506.938 491.478 506.938 492.584V493.242H504.908C503.326 493.242 502.206 494.096 502.206 495.3C502.206 496.56 503.368 497.568 504.838 497.568C505.79 497.568 506.56 497.218 507.008 496.602V497.428H508.17V492.654C508.17 491.044 507.064 489.966 505.398 489.966ZM505.09 496.476C503.998 496.476 503.536 496.182 503.536 495.496V495.104C503.536 494.558 503.872 494.278 504.558 494.278H506.938V495.188C506.938 496.084 506.378 496.476 505.09 496.476ZM511.827 500.326H513.157L516.209 490.106H514.865L513.059 496.392H512.499L510.805 490.106H509.461L511.631 497.428H512.737L511.827 500.326Z" fill="#646464"/>
<path d="M543.575 497.568C545.367 497.568 546.683 496.252 546.683 494.446V487.376H545.423V494.306C545.423 495.874 544.933 496.434 543.575 496.434C542.091 496.434 541.657 495.958 541.657 494.306H540.355C540.355 496.196 541.699 497.568 543.575 497.568ZM553.411 490.106V494.768C553.411 495.958 552.865 496.476 551.605 496.476C550.429 496.476 549.925 495.986 549.925 494.838V490.106H548.693V494.544C548.693 496.35 549.799 497.568 551.423 497.568C552.249 497.568 553.005 497.162 553.481 496.49V497.428H554.643V490.106H553.411ZM560.248 489.966C559.296 489.966 558.47 490.414 557.91 491.198V490.106H556.748V497.428H557.98V492.78C557.98 491.576 558.54 491.058 559.87 491.058C561.116 491.058 561.662 491.548 561.662 492.71V497.428H562.894V492.85C562.894 491.156 561.774 489.966 560.248 489.966Z" fill="#646464"/>
<path d="M594.689 497.568C596.481 497.568 597.797 496.252 597.797 494.446V487.376H596.537V494.306C596.537 495.874 596.047 496.434 594.689 496.434C593.205 496.434 592.771 495.958 592.771 494.306H591.469C591.469 496.196 592.813 497.568 594.689 497.568ZM604.525 490.106V494.768C604.525 495.958 603.979 496.476 602.719 496.476C601.543 496.476 601.039 495.986 601.039 494.838V490.106H599.807V494.544C599.807 496.35 600.913 497.568 602.537 497.568C603.363 497.568 604.119 497.162 604.595 496.49V497.428H605.757V490.106H604.525ZM607.862 497.428H609.094V487.376H607.862V497.428Z" fill="#646464"/>
<path d="M274.75 294.434H276.55V287.814H283.11V294.434H284.91V280.074H283.11V286.214H276.55V280.074H274.75V294.434ZM288.927 282.674C289.687 282.674 290.267 282.094 290.267 281.314C290.267 280.514 289.687 279.954 288.927 279.954C288.147 279.954 287.567 280.514 287.567 281.314C287.567 282.094 288.147 282.674 288.927 282.674ZM288.047 294.434H289.807V283.974H288.047V294.434ZM300.173 283.974V285.454C299.473 284.474 298.153 283.794 296.853 283.794C294.193 283.794 292.213 285.954 292.213 288.874C292.213 291.814 294.213 294.034 296.833 294.034C298.053 294.034 299.173 293.514 300.073 292.514V294.534C300.073 296.494 299.313 297.214 297.233 297.214C295.093 297.214 294.373 296.614 294.353 294.834H292.553C292.593 296.914 294.573 298.774 297.233 298.774C299.973 298.774 301.833 296.934 301.833 294.734V283.974H300.173ZM297.133 292.494C295.053 292.494 294.153 291.594 294.153 289.494V288.254C294.153 286.214 295.053 285.354 297.133 285.354C299.193 285.354 300.073 286.214 300.073 288.254V289.494C300.073 291.594 299.193 292.494 297.133 292.494ZM309.864 283.774C308.524 283.774 307.384 284.374 306.584 285.414V280.074H304.824V294.434H306.584V287.794C306.584 286.074 307.384 285.334 309.304 285.334C311.124 285.334 311.884 286.034 311.884 287.694V294.434H313.644V287.894C313.644 285.454 312.084 283.774 309.864 283.774ZM326.91 287.014V288.614H330.89C330.83 291.354 329.29 293.014 326.79 293.014C324.21 293.014 322.69 291.314 322.69 288.454V286.074C322.69 283.014 324.05 281.494 326.77 281.494C329.13 281.494 330.39 282.614 330.47 284.614H332.57C332.11 281.934 329.61 279.874 326.77 279.874C323.31 279.874 320.65 283.094 320.65 287.254C320.65 291.374 323.31 294.634 326.69 294.634C328.57 294.634 330.25 293.574 331.07 291.894V294.434H332.65V287.014H326.91ZM337.402 285.934V283.974H335.742V294.434H337.502V288.054C337.502 286.634 338.142 285.994 339.562 285.994H341.182V283.774C339.562 283.974 338.222 284.734 337.402 285.934ZM347.092 294.634C349.892 294.634 352.052 292.254 352.052 289.194C352.052 286.134 349.892 283.774 347.092 283.774C344.292 283.774 342.132 286.134 342.132 289.194C342.132 292.254 344.292 294.634 347.092 294.634ZM347.092 293.074C344.992 293.074 344.092 292.154 344.092 289.994V288.394C344.092 286.254 344.992 285.334 347.092 285.334C349.192 285.334 350.092 286.254 350.092 288.394V289.994C350.092 292.154 349.192 293.074 347.092 293.074ZM355.656 294.434H359.256L360.616 285.454H361.336L362.656 294.434H366.276L368.096 283.974H366.376L365.016 292.954H364.016L362.536 283.974H359.416L357.916 292.954H356.916L355.576 283.974H353.856L355.656 294.434ZM375.119 294.534H376.519V292.954H374.919C374.119 292.954 373.719 292.554 373.719 291.754V285.454H376.719V283.974H373.719V280.074H371.959V283.974H369.679V285.454H371.959V291.554C371.959 293.334 373.219 294.534 375.119 294.534ZM384.064 283.774C382.724 283.774 381.584 284.374 380.784 285.414V280.074H379.024V294.434H380.784V287.794C380.784 286.074 381.584 285.334 383.504 285.334C385.324 285.334 386.084 286.034 386.084 287.694V294.434H387.844V287.894C387.844 285.454 386.284 283.774 384.064 283.774Z" fill="#070707"/>
<path d="M460.233 286.974C461.613 286.354 462.533 285.154 462.533 283.874C462.533 281.734 460.553 280.074 458.013 280.074H453.273V294.434H458.213C460.853 294.434 462.993 292.614 462.993 290.334C462.993 288.874 461.893 287.554 460.233 286.974ZM458.033 281.674C459.533 281.674 460.593 282.414 460.593 283.474V284.414C460.593 285.474 459.533 286.214 458.033 286.214H455.073V281.674H458.033ZM461.053 290.854C461.053 291.994 459.893 292.834 458.273 292.834H455.073V287.814H458.273C459.893 287.814 461.053 288.654 461.053 289.794V290.854ZM469.749 283.774C467.529 283.774 465.789 285.354 465.449 287.514H467.249C467.329 285.914 467.869 285.334 469.689 285.334C471.429 285.334 471.949 285.934 471.949 287.514V288.454H469.049C466.789 288.454 465.189 289.674 465.189 291.394C465.189 293.194 466.849 294.634 468.949 294.634C470.309 294.634 471.409 294.134 472.049 293.254V294.434H473.709V287.614C473.709 285.314 472.129 283.774 469.749 283.774ZM469.309 293.074C467.749 293.074 467.089 292.654 467.089 291.674V291.114C467.089 290.334 467.569 289.934 468.549 289.934H471.949V291.234C471.949 292.514 471.149 293.074 469.309 293.074ZM480.371 294.634C482.711 294.634 484.511 293.074 484.511 291.314C484.511 289.734 483.391 288.654 481.491 288.454L479.571 288.254C478.531 288.154 478.091 287.794 478.091 287.054V286.654C478.091 285.734 478.751 285.334 480.271 285.334C481.891 285.334 482.471 285.774 482.531 287.094H484.391C484.131 285.014 482.351 283.774 480.231 283.774C478.131 283.774 476.311 285.314 476.311 287.034C476.311 288.634 477.351 289.694 479.231 289.894L481.191 290.094C482.291 290.214 482.751 290.534 482.751 291.274V291.714C482.751 292.634 482.011 293.074 480.331 293.074C478.531 293.074 477.891 292.654 477.811 291.314H475.951C476.171 293.274 477.951 294.634 480.371 294.634ZM495.785 289.734V288.994C495.785 286.054 493.725 283.774 491.085 283.774C488.245 283.774 486.105 286.254 486.105 289.414C486.105 292.474 488.225 294.634 491.085 294.634C493.045 294.634 495.045 293.194 495.745 291.214H493.705C493.545 292.514 492.765 293.074 491.085 293.074C488.965 293.074 488.065 292.234 488.065 290.194V289.734H495.785ZM491.105 285.334C493.085 285.334 493.825 286.114 493.825 287.994V288.254H488.065V288.034C488.065 286.154 489.025 285.334 491.105 285.334ZM498.094 294.434H499.854V280.074H498.094V294.434ZM503.739 282.674C504.499 282.674 505.079 282.094 505.079 281.314C505.079 280.514 504.499 279.954 503.739 279.954C502.959 279.954 502.379 280.514 502.379 281.314C502.379 282.094 502.959 282.674 503.739 282.674ZM502.859 294.434H504.619V283.974H502.859V294.434ZM512.625 283.774C511.265 283.774 510.085 284.414 509.285 285.534V283.974H507.625V294.434H509.385V287.794C509.385 286.074 510.185 285.334 512.085 285.334C513.865 285.334 514.645 286.034 514.645 287.694V294.434H516.405V287.894C516.405 285.474 514.805 283.774 512.625 283.774ZM528.226 289.734V288.994C528.226 286.054 526.166 283.774 523.526 283.774C520.686 283.774 518.546 286.254 518.546 289.414C518.546 292.474 520.666 294.634 523.526 294.634C525.486 294.634 527.486 293.194 528.186 291.214H526.146C525.986 292.514 525.206 293.074 523.526 293.074C521.406 293.074 520.506 292.234 520.506 290.194V289.734H528.226ZM523.546 285.334C525.526 285.334 526.266 286.114 526.266 287.994V288.254H520.506V288.034C520.506 286.154 521.466 285.334 523.546 285.334Z" fill="#070707"/>
<rect x="246.977" y="271.434" width="12" height="32" rx="6" fill="#11B3E7"/>
<rect x="425.5" y="271.434" width="12" height="32" rx="6" fill="#2BBC62"/>
<path d="M302.565 431.507L332.48 429.693L363.049 424.901L392.308 422.947L422.567 425.928L454.019 391.538L491.629 388.028L517.204 373.987L543.603 400.827L574.55 403.338L604.961 367.468" stroke="#2BBC62" stroke-width="5" stroke-linecap="round" stroke-linejoin="round" stroke-dasharray="2 10"/>
<defs>
<filter id="filter0_f_1303_1849" x="194.801" y="220.48" width="462.989" height="307.874" filterUnits="userSpaceOnUse" color-interpolation-filters="sRGB">
<feFlood flood-opacity="0" result="BackgroundImageFix"/>
<feBlend mode="normal" in="SourceGraphic" in2="BackgroundImageFix" result="shape"/>
<feGaussianBlur stdDeviation="10" result="effect1_foregroundBlur_1303_1849"/>
</filter>
</defs>
</svg>
