<svg width="677" height="551" viewBox="0 0 677 551" fill="none" xmlns="http://www.w3.org/2000/svg">
<rect x="31.5" y="200.065" width="370.02" height="321.185" rx="8" fill="white"/>
<path d="M65.8931 229.141H61.6811V242.065H63.3011V237.439H65.9471C68.2511 237.439 70.1591 235.585 70.1591 233.299C70.1591 230.995 68.2511 229.141 65.8931 229.141ZM68.4131 233.857C68.4131 235.261 67.5311 235.999 65.8211 235.999H63.3011V230.581H65.7851C67.5131 230.581 68.4131 231.319 68.4131 232.723V233.857ZM73.719 234.415V232.651H72.225V242.065H73.809V236.323C73.809 235.045 74.385 234.469 75.663 234.469H77.121V232.471C75.663 232.651 74.457 233.335 73.719 234.415ZM79.6615 231.481C80.3455 231.481 80.8675 230.959 80.8675 230.257C80.8675 229.537 80.3455 229.033 79.6615 229.033C78.9595 229.033 78.4375 229.537 78.4375 230.257C78.4375 230.959 78.9595 231.481 79.6615 231.481ZM78.8695 242.065H80.4535V232.651H78.8695V242.065ZM86.8486 242.245C88.8646 242.245 90.6466 240.643 90.9706 238.537H89.2786C89.1706 240.193 88.4686 240.841 86.8126 240.841C85.0486 240.841 84.2926 240.013 84.2926 238.069V236.629C84.2926 234.703 85.0486 233.875 86.8126 233.875C88.4686 233.875 89.1706 234.523 89.2786 236.179H90.9706C90.6466 234.073 88.8646 232.471 86.8486 232.471C84.4006 232.471 82.5286 234.595 82.5286 237.349C82.5286 240.103 84.4186 242.245 86.8486 242.245ZM101.207 237.835V237.169C101.207 234.523 99.3534 232.471 96.9774 232.471C94.4214 232.471 92.4954 234.703 92.4954 237.547C92.4954 240.301 94.4034 242.245 96.9774 242.245C98.7414 242.245 100.541 240.949 101.171 239.167H99.3354C99.1914 240.337 98.4894 240.841 96.9774 240.841C95.0694 240.841 94.2594 240.085 94.2594 238.249V237.835H101.207ZM96.9954 233.875C98.7774 233.875 99.4434 234.577 99.4434 236.269V236.503H94.2594V236.305C94.2594 234.613 95.1234 233.875 96.9954 233.875ZM69.6911 267.065H71.4191L67.6391 254.141H64.7591L60.9251 267.065H62.5811L63.6791 263.087H68.5751L69.6911 267.065ZM64.0931 261.647L65.7671 255.581H66.4871L68.1791 261.647H64.0931ZM73.6166 267.065H75.0926V255.581H75.9026L78.6026 267.065H81.5546L84.2906 255.581H85.1006V267.065H86.6126V254.141H83.0666L80.4386 265.625H79.7906L77.1626 254.141H73.6166V267.065ZM89.2 267.065H97.894V265.625H90.82V264.905L97.714 256.751V254.141H89.38V255.581H96.094V256.301L89.2 264.455V267.065ZM106.151 259.415V257.651H104.657V267.065H106.241V261.323C106.241 260.045 106.817 259.469 108.095 259.469H109.553V257.471C108.095 257.651 106.889 258.335 106.151 259.415ZM119.12 262.835V262.169C119.12 259.523 117.266 257.471 114.89 257.471C112.333 257.471 110.408 259.703 110.408 262.547C110.408 265.301 112.316 267.245 114.89 267.245C116.654 267.245 118.454 265.949 119.084 264.167H117.248C117.104 265.337 116.402 265.841 114.89 265.841C112.982 265.841 112.172 265.085 112.172 263.249V262.835H119.12ZM114.908 258.875C116.69 258.875 117.356 259.577 117.356 261.269V261.503H112.172V261.305C112.172 259.613 113.036 258.875 114.908 258.875ZM122.084 267.065H123.668V258.983H126.368V257.651H123.668V256.373C123.668 255.797 123.992 255.473 124.568 255.473H126.188V254.051H124.748C123.146 254.051 122.084 255.059 122.084 256.553V257.651H120.032V258.983H122.084V267.065ZM135.801 262.835V262.169C135.801 259.523 133.947 257.471 131.571 257.471C129.015 257.471 127.089 259.703 127.089 262.547C127.089 265.301 128.997 267.245 131.571 267.245C133.335 267.245 135.135 265.949 135.765 264.167H133.929C133.785 265.337 133.083 265.841 131.571 265.841C129.663 265.841 128.853 265.085 128.853 263.249V262.835H135.801ZM131.589 258.875C133.371 258.875 134.037 259.577 134.037 261.269V261.503H128.853V261.305C128.853 259.613 129.717 258.875 131.589 258.875ZM139.373 259.415V257.651H137.879V267.065H139.463V261.323C139.463 260.045 140.039 259.469 141.317 259.469H142.775V257.471C141.317 257.651 140.111 258.335 139.373 259.415ZM146.018 259.415V257.651H144.524V267.065H146.108V261.323C146.108 260.045 146.684 259.469 147.962 259.469H149.42V257.471C147.962 257.651 146.756 258.335 146.018 259.415ZM154.644 257.471C152.646 257.471 151.08 258.893 150.774 260.837H152.394C152.466 259.397 152.952 258.875 154.59 258.875C156.156 258.875 156.624 259.415 156.624 260.837V261.683H154.014C151.98 261.683 150.54 262.781 150.54 264.329C150.54 265.949 152.034 267.245 153.924 267.245C155.148 267.245 156.138 266.795 156.714 266.003V267.065H158.208V260.927C158.208 258.857 156.786 257.471 154.644 257.471ZM154.248 265.841C152.844 265.841 152.25 265.463 152.25 264.581V264.077C152.25 263.375 152.682 263.015 153.564 263.015H156.624V264.185C156.624 265.337 155.904 265.841 154.248 265.841ZM160.766 267.065H162.35V254.141H160.766V267.065ZM170.406 267.065H171.99V258.983H174.69V257.651H171.99V256.373C171.99 255.797 172.314 255.473 172.89 255.473H174.51V254.051H173.07C171.468 254.051 170.406 255.059 170.406 256.553V257.651H168.354V258.983H170.406V267.065ZM184.123 262.835V262.169C184.123 259.523 182.269 257.471 179.893 257.471C177.337 257.471 175.411 259.703 175.411 262.547C175.411 265.301 177.319 267.245 179.893 267.245C181.657 267.245 183.457 265.949 184.087 264.167H182.251C182.107 265.337 181.405 265.841 179.893 265.841C177.985 265.841 177.175 265.085 177.175 263.249V262.835H184.123ZM179.911 258.875C181.693 258.875 182.359 259.577 182.359 261.269V261.503H177.175V261.305C177.175 259.613 178.039 258.875 179.911 258.875ZM194.371 262.835V262.169C194.371 259.523 192.517 257.471 190.141 257.471C187.585 257.471 185.659 259.703 185.659 262.547C185.659 265.301 187.567 267.245 190.141 267.245C191.905 267.245 193.705 265.949 194.335 264.167H192.499C192.355 265.337 191.653 265.841 190.141 265.841C188.233 265.841 187.423 265.085 187.423 263.249V262.835H194.371ZM190.159 258.875C191.941 258.875 192.607 259.577 192.607 261.269V261.503H187.423V261.305C187.423 259.613 188.287 258.875 190.159 258.875ZM69.6911 292.065H71.4191L67.6391 279.141H64.7591L60.9251 292.065H62.5811L63.6791 288.087H68.5751L69.6911 292.065ZM64.0931 286.647L65.7671 280.581H66.4871L68.1791 286.647H64.0931ZM73.6166 292.065H75.0926V280.581H75.9026L78.6026 292.065H81.5546L84.2906 280.581H85.1006V292.065H86.6126V279.141H83.0666L80.4386 290.625H79.7906L77.1626 279.141H73.6166V292.065ZM89.2 292.065H97.894V290.625H90.82V289.905L97.714 281.751V279.141H89.38V280.581H96.094V281.301L89.2 289.455V292.065ZM106.151 284.415V282.651H104.657V292.065H106.241V286.323C106.241 285.045 106.817 284.469 108.095 284.469H109.553V282.471C108.095 282.651 106.889 283.335 106.151 284.415ZM119.12 287.835V287.169C119.12 284.523 117.266 282.471 114.89 282.471C112.333 282.471 110.408 284.703 110.408 287.547C110.408 290.301 112.316 292.245 114.89 292.245C116.654 292.245 118.454 290.949 119.084 289.167H117.248C117.104 290.337 116.402 290.841 114.89 290.841C112.982 290.841 112.172 290.085 112.172 288.249V287.835H119.12ZM114.908 283.875C116.69 283.875 117.356 284.577 117.356 286.269V286.503H112.172V286.305C112.172 284.613 113.036 283.875 114.908 283.875ZM124.838 292.155H126.098V290.733H124.658C123.938 290.733 123.578 290.373 123.578 289.653V283.983H126.278V282.651H123.578V279.141H121.994V282.651H119.942V283.983H121.994V289.473C121.994 291.075 123.128 292.155 124.838 292.155ZM134.274 282.651V288.645C134.274 290.175 133.572 290.841 131.952 290.841C130.44 290.841 129.792 290.211 129.792 288.735V282.651H128.208V288.357C128.208 290.679 129.63 292.245 131.718 292.245C132.78 292.245 133.752 291.723 134.364 290.859V292.065H135.858V282.651H134.274ZM140.059 284.415V282.651H138.565V292.065H140.149V286.323C140.149 285.045 140.725 284.469 142.003 284.469H143.461V282.471C142.003 282.651 140.797 283.335 140.059 284.415ZM149.709 282.471C148.485 282.471 147.423 283.047 146.703 284.055V282.651H145.209V292.065H146.793V286.089C146.793 284.541 147.513 283.875 149.223 283.875C150.825 283.875 151.527 284.505 151.527 285.999V292.065H153.111V286.179C153.111 284.001 151.671 282.471 149.709 282.471ZM159.106 292.245C161.212 292.245 162.832 290.841 162.832 289.257C162.832 287.835 161.824 286.863 160.114 286.683L158.386 286.503C157.45 286.413 157.054 286.089 157.054 285.423V285.063C157.054 284.235 157.648 283.875 159.016 283.875C160.474 283.875 160.996 284.271 161.05 285.459H162.724C162.49 283.587 160.888 282.471 158.98 282.471C157.09 282.471 155.452 283.857 155.452 285.405C155.452 286.845 156.388 287.799 158.08 287.979L159.844 288.159C160.834 288.267 161.248 288.555 161.248 289.221V289.617C161.248 290.445 160.582 290.841 159.07 290.841C157.45 290.841 156.874 290.463 156.802 289.257H155.128C155.326 291.021 156.928 292.245 159.106 292.245ZM173.074 292.065H174.478V288.015H178.528V286.683H174.478V282.651H173.074V286.683H169.024V288.015H173.074V292.065ZM189.192 292.245C191.712 292.245 193.656 290.103 193.656 287.349C193.656 284.595 191.712 282.471 189.192 282.471C186.672 282.471 184.728 284.595 184.728 287.349C184.728 290.103 186.672 292.245 189.192 292.245ZM189.192 290.841C187.302 290.841 186.492 290.013 186.492 288.069V286.629C186.492 284.703 187.302 283.875 189.192 283.875C191.082 283.875 191.892 284.703 191.892 286.629V288.069C191.892 290.013 191.082 290.841 189.192 290.841ZM199.369 292.155H200.629V290.733H199.189C198.469 290.733 198.109 290.373 198.109 289.653V283.983H200.809V282.651H198.109V279.141H196.525V282.651H194.473V283.983H196.525V289.473C196.525 291.075 197.659 292.155 199.369 292.155ZM207.419 282.471C206.213 282.471 205.187 283.011 204.467 283.947V279.141H202.883V292.065H204.467V286.089C204.467 284.541 205.187 283.875 206.915 283.875C208.553 283.875 209.237 284.505 209.237 285.999V292.065H210.821V286.179C210.821 283.983 209.417 282.471 207.419 282.471ZM221.459 287.835V287.169C221.459 284.523 219.605 282.471 217.229 282.471C214.673 282.471 212.747 284.703 212.747 287.547C212.747 290.301 214.655 292.245 217.229 292.245C218.993 292.245 220.793 290.949 221.423 289.167H219.587C219.443 290.337 218.741 290.841 217.229 290.841C215.321 290.841 214.511 290.085 214.511 288.249V287.835H221.459ZM217.247 283.875C219.029 283.875 219.695 284.577 219.695 286.269V286.503H214.511V286.305C214.511 284.613 215.375 283.875 217.247 283.875ZM225.032 284.415V282.651H223.538V292.065H225.122V286.323C225.122 285.045 225.698 284.469 226.976 284.469H228.434V282.471C226.976 282.651 225.77 283.335 225.032 284.415ZM66.1631 317.245C68.9351 317.245 70.7351 315.445 70.7351 312.691V304.141H69.1151V313.123C69.1151 314.977 68.2151 315.787 66.1631 315.787C64.0931 315.787 63.2111 314.995 63.2111 313.123V304.141H61.5911V312.691C61.5911 315.445 63.3911 317.245 66.1631 317.245ZM77.973 307.471C76.749 307.471 75.687 308.047 74.967 309.055V307.651H73.473V317.065H75.057V311.089C75.057 309.541 75.777 308.875 77.487 308.875C79.089 308.875 79.791 309.505 79.791 310.999V317.065H81.375V311.179C81.375 309.001 79.935 307.471 77.973 307.471ZM84.724 306.481C85.408 306.481 85.93 305.959 85.93 305.257C85.93 304.537 85.408 304.033 84.724 304.033C84.022 304.033 83.5 304.537 83.5 305.257C83.5 305.959 84.022 306.481 84.724 306.481ZM83.932 317.065H85.516V307.651H83.932V317.065ZM92.0371 317.155H93.2971V315.733H91.8571C91.1371 315.733 90.7771 315.373 90.7771 314.653V308.983H93.4771V307.651H90.7771V304.141H89.1931V307.651H87.1411V308.983H89.1931V314.473C89.1931 316.075 90.3271 317.155 92.0371 317.155ZM103.53 317.245C105.546 317.245 107.328 315.643 107.652 313.537H105.96C105.852 315.193 105.15 315.841 103.494 315.841C101.73 315.841 100.974 315.013 100.974 313.069V311.629C100.974 309.703 101.73 308.875 103.494 308.875C105.15 308.875 105.852 309.523 105.96 311.179H107.652C107.328 309.073 105.546 307.471 103.53 307.471C101.082 307.471 99.2102 309.595 99.2102 312.349C99.2102 315.103 101.1 317.245 103.53 317.245ZM113.641 317.245C116.161 317.245 118.105 315.103 118.105 312.349C118.105 309.595 116.161 307.471 113.641 307.471C111.121 307.471 109.177 309.595 109.177 312.349C109.177 315.103 111.121 317.245 113.641 317.245ZM113.641 315.841C111.751 315.841 110.941 315.013 110.941 313.069V311.629C110.941 309.703 111.751 308.875 113.641 308.875C115.531 308.875 116.341 309.703 116.341 311.629V313.069C116.341 315.013 115.531 315.841 113.641 315.841ZM123.616 317.245C125.722 317.245 127.342 315.841 127.342 314.257C127.342 312.835 126.334 311.863 124.624 311.683L122.896 311.503C121.96 311.413 121.564 311.089 121.564 310.423V310.063C121.564 309.235 122.158 308.875 123.526 308.875C124.984 308.875 125.506 309.271 125.56 310.459H127.234C127 308.587 125.398 307.471 123.49 307.471C121.6 307.471 119.962 308.857 119.962 310.405C119.962 311.845 120.898 312.799 122.59 312.979L124.354 313.159C125.344 313.267 125.758 313.555 125.758 314.221V314.617C125.758 315.445 125.092 315.841 123.58 315.841C121.96 315.841 121.384 315.463 121.312 314.257H119.638C119.836 316.021 121.438 317.245 123.616 317.245ZM133.135 317.155H134.395V315.733H132.955C132.235 315.733 131.875 315.373 131.875 314.653V308.983H134.575V307.651H131.875V304.141H130.291V307.651H128.239V308.983H130.291V314.473C130.291 316.075 131.425 317.155 133.135 317.155ZM61.6811 342.065H63.3011V336.467H68.2151V335.027H63.3011V330.563H68.7551V329.141H61.6811V342.065ZM71.9085 334.415V332.651H70.4145V342.065H71.9985V336.323C71.9985 335.045 72.5745 334.469 73.8525 334.469H75.3105V332.471C73.8525 332.651 72.6465 333.335 71.9085 334.415ZM84.8773 337.835V337.169C84.8773 334.523 83.0233 332.471 80.6473 332.471C78.0913 332.471 76.1653 334.703 76.1653 337.547C76.1653 340.301 78.0733 342.245 80.6473 342.245C82.4113 342.245 84.2113 340.949 84.8413 339.167H83.0053C82.8613 340.337 82.1593 340.841 80.6473 340.841C78.7393 340.841 77.9293 340.085 77.9293 338.249V337.835H84.8773ZM80.6653 333.875C82.4473 333.875 83.1133 334.577 83.1133 336.269V336.503H77.9293V336.305C77.9293 334.613 78.7933 333.875 80.6653 333.875ZM87.7475 331.481C88.4315 331.481 88.9535 330.959 88.9535 330.257C88.9535 329.537 88.4315 329.033 87.7475 329.033C87.0455 329.033 86.5235 329.537 86.5235 330.257C86.5235 330.959 87.0455 331.481 87.7475 331.481ZM86.9555 342.065H88.5395V332.651H86.9555V342.065ZM97.8685 332.651V333.983C97.2385 333.101 96.0505 332.489 94.8805 332.489C92.4865 332.489 90.7045 334.433 90.7045 337.061C90.7045 339.707 92.5045 341.705 94.8625 341.705C95.9605 341.705 96.9685 341.237 97.7785 340.337V342.155C97.7785 343.919 97.0945 344.567 95.2225 344.567C93.2965 344.567 92.6485 344.027 92.6305 342.425H91.0105C91.0465 344.297 92.8285 345.971 95.2225 345.971C97.6885 345.971 99.3625 344.315 99.3625 342.335V332.651H97.8685ZM95.1325 340.319C93.2605 340.319 92.4505 339.509 92.4505 337.619V336.503C92.4505 334.667 93.2605 333.893 95.1325 333.893C96.9865 333.893 97.7785 334.667 97.7785 336.503V337.619C97.7785 339.509 96.9865 340.319 95.1325 340.319ZM106.591 332.471C105.385 332.471 104.359 333.011 103.639 333.947V329.141H102.055V342.065H103.639V336.089C103.639 334.541 104.359 333.875 106.087 333.875C107.725 333.875 108.409 334.505 108.409 335.999V342.065H109.993V336.179C109.993 333.983 108.589 332.471 106.591 332.471ZM116.189 342.155H117.449V340.733H116.009C115.289 340.733 114.929 340.373 114.929 339.653V333.983H117.629V332.651H114.929V329.141H113.345V332.651H111.293V333.983H113.345V339.473C113.345 341.075 114.479 342.155 116.189 342.155ZM64.3271 367.065H65.9471V355.617H69.7091V354.141H60.5651V355.617H64.3271V367.065ZM73.7148 357.471C71.7168 357.471 70.1508 358.893 69.8448 360.837H71.4648C71.5368 359.397 72.0228 358.875 73.6608 358.875C75.2268 358.875 75.6948 359.415 75.6948 360.837V361.683H73.0848C71.0508 361.683 69.6108 362.781 69.6108 364.329C69.6108 365.949 71.1048 367.245 72.9948 367.245C74.2188 367.245 75.2088 366.795 75.7848 366.003V367.065H77.2788V360.927C77.2788 358.857 75.8568 357.471 73.7148 357.471ZM73.3188 365.841C71.9148 365.841 71.3208 365.463 71.3208 364.581V364.077C71.3208 363.375 71.7528 363.015 72.6348 363.015H75.6948V364.185C75.6948 365.337 74.9748 365.841 73.3188 365.841ZM81.3303 359.415V357.651H79.8363V367.065H81.4203V361.323C81.4203 360.045 81.9963 359.469 83.2743 359.469H84.7323V357.471C83.2743 357.651 82.0683 358.335 81.3303 359.415ZM87.2729 356.481C87.9569 356.481 88.4789 355.959 88.4789 355.257C88.4789 354.537 87.9569 354.033 87.2729 354.033C86.5709 354.033 86.0489 354.537 86.0489 355.257C86.0489 355.959 86.5709 356.481 87.2729 356.481ZM86.4809 367.065H88.0649V357.651H86.4809V367.065ZM91.8319 367.065H93.4159V358.983H96.1159V357.651H93.4159V356.373C93.4159 355.797 93.7399 355.473 94.3159 355.473H95.9359V354.051H94.4959C92.8939 354.051 91.8319 355.059 91.8319 356.553V357.651H89.7799V358.983H91.8319V367.065ZM98.7929 367.065H100.377V358.983H103.077V357.651H100.377V356.373C100.377 355.797 100.701 355.473 101.277 355.473H102.897V354.051H101.457C99.8549 354.051 98.7929 355.059 98.7929 356.553V357.651H96.7409V358.983H98.7929V367.065ZM108.13 367.245C110.236 367.245 111.856 365.841 111.856 364.257C111.856 362.835 110.848 361.863 109.138 361.683L107.41 361.503C106.474 361.413 106.078 361.089 106.078 360.423V360.063C106.078 359.235 106.672 358.875 108.04 358.875C109.498 358.875 110.02 359.271 110.074 360.459H111.748C111.514 358.587 109.912 357.471 108.004 357.471C106.114 357.471 104.476 358.857 104.476 360.405C104.476 361.845 105.412 362.799 107.104 362.979L108.868 363.159C109.858 363.267 110.272 363.555 110.272 364.221V364.617C110.272 365.445 109.606 365.841 108.094 365.841C106.474 365.841 105.898 365.463 105.826 364.257H104.152C104.35 366.021 105.952 367.245 108.13 367.245ZM61.6811 392.065H63.3011V379.141H61.6811V392.065ZM70.6254 382.471C69.4014 382.471 68.3394 383.047 67.6194 384.055V382.651H66.1254V392.065H67.7094V386.089C67.7094 384.541 68.4294 383.875 70.1394 383.875C71.7414 383.875 72.4434 384.505 72.4434 385.999V392.065H74.0274V386.179C74.0274 384.001 72.5874 382.471 70.6254 382.471ZM80.0224 392.245C82.1284 392.245 83.7484 390.841 83.7484 389.257C83.7484 387.835 82.7404 386.863 81.0304 386.683L79.3024 386.503C78.3664 386.413 77.9704 386.089 77.9704 385.423V385.063C77.9704 384.235 78.5644 383.875 79.9324 383.875C81.3904 383.875 81.9124 384.271 81.9664 385.459H83.6404C83.4064 383.587 81.8044 382.471 79.8964 382.471C78.0064 382.471 76.3684 383.857 76.3684 385.405C76.3684 386.845 77.3044 387.799 78.9964 387.979L80.7604 388.159C81.7504 388.267 82.1644 388.555 82.1644 389.221V389.617C82.1644 390.445 81.4984 390.841 79.9864 390.841C78.3664 390.841 77.7904 390.463 77.7184 389.257H76.0444C76.2424 391.021 77.8444 392.245 80.0224 392.245ZM91.7349 382.651V388.645C91.7349 390.175 91.0329 390.841 89.4129 390.841C87.9009 390.841 87.2529 390.211 87.2529 388.735V382.651H85.6689V388.357C85.6689 390.679 87.0909 392.245 89.1789 392.245C90.2409 392.245 91.2129 391.723 91.8249 390.859V392.065H93.3189V382.651H91.7349ZM97.5198 384.415V382.651H96.0258V392.065H97.6098V386.323C97.6098 385.045 98.1858 384.469 99.4638 384.469H100.922V382.471C99.4638 382.651 98.2578 383.335 97.5198 384.415ZM106.146 382.471C104.148 382.471 102.582 383.893 102.276 385.837H103.896C103.968 384.397 104.454 383.875 106.092 383.875C107.658 383.875 108.126 384.415 108.126 385.837V386.683H105.516C103.482 386.683 102.042 387.781 102.042 389.329C102.042 390.949 103.536 392.245 105.426 392.245C106.65 392.245 107.64 391.795 108.216 391.003V392.065H109.71V385.927C109.71 383.857 108.288 382.471 106.146 382.471ZM105.75 390.841C104.346 390.841 103.752 390.463 103.752 389.581V389.077C103.752 388.375 104.184 388.015 105.066 388.015H108.126V389.185C108.126 390.337 107.406 390.841 105.75 390.841ZM116.768 382.471C115.544 382.471 114.482 383.047 113.762 384.055V382.651H112.268V392.065H113.852V386.089C113.852 384.541 114.572 383.875 116.282 383.875C117.884 383.875 118.586 384.505 118.586 385.999V392.065H120.17V386.179C120.17 384.001 118.73 382.471 116.768 382.471ZM126.417 392.245C128.433 392.245 130.215 390.643 130.539 388.537H128.847C128.739 390.193 128.037 390.841 126.381 390.841C124.617 390.841 123.861 390.013 123.861 388.069V386.629C123.861 384.703 124.617 383.875 126.381 383.875C128.037 383.875 128.739 384.523 128.847 386.179H130.539C130.215 384.073 128.433 382.471 126.417 382.471C123.969 382.471 122.097 384.595 122.097 387.349C122.097 390.103 123.987 392.245 126.417 392.245ZM140.776 387.835V387.169C140.776 384.523 138.922 382.471 136.546 382.471C133.99 382.471 132.064 384.703 132.064 387.547C132.064 390.301 133.972 392.245 136.546 392.245C138.31 392.245 140.11 390.949 140.74 389.167H138.904C138.76 390.337 138.058 390.841 136.546 390.841C134.638 390.841 133.828 390.085 133.828 388.249V387.835H140.776ZM136.564 383.875C138.346 383.875 139.012 384.577 139.012 386.269V386.503H133.828V386.305C133.828 384.613 134.692 383.875 136.564 383.875ZM150.833 392.245C152.849 392.245 154.631 390.643 154.955 388.537H153.263C153.155 390.193 152.453 390.841 150.797 390.841C149.033 390.841 148.277 390.013 148.277 388.069V386.629C148.277 384.703 149.033 383.875 150.797 383.875C152.453 383.875 153.155 384.523 153.263 386.179H154.955C154.631 384.073 152.849 382.471 150.833 382.471C148.385 382.471 146.513 384.595 146.513 387.349C146.513 390.103 148.403 392.245 150.833 392.245ZM160.944 392.245C163.464 392.245 165.408 390.103 165.408 387.349C165.408 384.595 163.464 382.471 160.944 382.471C158.424 382.471 156.48 384.595 156.48 387.349C156.48 390.103 158.424 392.245 160.944 392.245ZM160.944 390.841C159.054 390.841 158.244 390.013 158.244 388.069V386.629C158.244 384.703 159.054 383.875 160.944 383.875C162.834 383.875 163.644 384.703 163.644 386.629V388.069C163.644 390.013 162.834 390.841 160.944 390.841ZM170.919 392.245C173.025 392.245 174.645 390.841 174.645 389.257C174.645 387.835 173.637 386.863 171.927 386.683L170.199 386.503C169.263 386.413 168.867 386.089 168.867 385.423V385.063C168.867 384.235 169.461 383.875 170.829 383.875C172.287 383.875 172.809 384.271 172.863 385.459H174.537C174.303 383.587 172.701 382.471 170.793 382.471C168.903 382.471 167.265 383.857 167.265 385.405C167.265 386.845 168.201 387.799 169.893 387.979L171.657 388.159C172.647 388.267 173.061 388.555 173.061 389.221V389.617C173.061 390.445 172.395 390.841 170.883 390.841C169.263 390.841 168.687 390.463 168.615 389.257H166.941C167.139 391.021 168.741 392.245 170.919 392.245ZM180.437 392.155H181.697V390.733H180.257C179.537 390.733 179.177 390.373 179.177 389.653V383.983H181.877V382.651H179.177V379.141H177.593V382.651H175.541V383.983H177.593V389.473C177.593 391.075 178.727 392.155 180.437 392.155ZM61.6811 417.065H63.3011V411.467H68.2151V410.027H63.3011V405.563H68.7551V404.141H61.6811V417.065ZM77.156 410.351C78.398 409.793 79.226 408.713 79.226 407.561C79.226 405.635 77.444 404.141 75.158 404.141H70.892V417.065H75.338C77.714 417.065 79.64 415.427 79.64 413.375C79.64 412.061 78.65 410.873 77.156 410.351ZM75.176 405.581C76.526 405.581 77.48 406.247 77.48 407.201V408.047C77.48 409.001 76.526 409.667 75.176 409.667H72.512V405.581H75.176ZM77.894 413.843C77.894 414.869 76.85 415.625 75.392 415.625H72.512V411.107H75.392C76.85 411.107 77.894 411.863 77.894 412.889V413.843ZM90.2048 417.065H91.9328L88.1528 404.141H85.2728L81.4388 417.065H83.0947L84.1928 413.087H89.0888L90.2048 417.065ZM84.6068 411.647L86.2808 405.581H87.0008L88.6928 411.647H84.6068ZM66.3971 442.245C69.0071 442.245 71.2031 440.067 71.6171 437.097H69.7271C69.6731 439.545 68.3771 440.787 66.3971 440.787C64.1111 440.787 62.8511 439.401 62.8511 436.683V434.541C62.8511 431.805 64.1111 430.419 66.3971 430.419C68.3771 430.419 69.6731 431.661 69.7271 434.109H71.6171C71.2031 431.139 69.0071 428.961 66.3971 428.961C63.3191 428.961 61.0151 431.877 61.0151 435.603C61.0151 439.329 63.3191 442.245 66.3971 442.245ZM81.3805 442.065H83.1085L79.3285 429.141H76.4485L72.6145 442.065H74.2705L75.3685 438.087H80.2645L81.3805 442.065ZM75.7825 436.647L77.4565 430.581H78.1765L79.8685 436.647H75.7825ZM89.6705 442.245C92.2805 442.245 94.4765 440.067 94.8905 437.097H93.0005C92.9465 439.545 91.6505 440.787 89.6705 440.787C87.3845 440.787 86.1245 439.401 86.1245 436.683V434.541C86.1245 431.805 87.3845 430.419 89.6705 430.419C91.6505 430.419 92.9465 431.661 93.0005 434.109H94.8905C94.4765 431.139 92.2805 428.961 89.6705 428.961C86.5925 428.961 84.2885 431.877 84.2885 435.603C84.2885 439.329 86.5925 442.245 89.6705 442.245ZM61.6811 492.065H63.1571V480.581H63.9671L66.6671 492.065H69.6191L72.3551 480.581H73.1651V492.065H74.6771V479.141H71.1311L68.5031 490.625H67.8551L65.2271 479.141H61.6811V492.065ZM85.6344 492.065H87.3624L83.5824 479.141H80.7024L76.8684 492.065H78.5244L79.6224 488.087H84.5184L85.6344 492.065ZM80.0364 486.647L81.7104 480.581H82.4304L84.1224 486.647H80.0364ZM96.49 492.065H98.488L94.708 486.755C96.508 486.197 97.75 484.775 97.75 483.065C97.75 480.869 95.86 479.141 93.448 479.141H89.56V492.065H91.18V486.989H93.07L96.49 492.065ZM91.18 480.581H93.502C95.14 480.581 95.986 481.247 95.986 482.543V483.587C95.986 484.883 95.14 485.549 93.502 485.549H91.18V480.581ZM105.251 485.387V486.827H108.833C108.779 489.293 107.393 490.787 105.143 490.787C102.821 490.787 101.453 489.257 101.453 486.683V484.541C101.453 481.787 102.677 480.419 105.125 480.419C107.249 480.419 108.383 481.427 108.455 483.227H110.345C109.931 480.815 107.681 478.961 105.125 478.961C102.011 478.961 99.6166 481.859 99.6166 485.603C99.6166 489.311 102.011 492.245 105.053 492.245C106.745 492.245 108.257 491.291 108.995 489.779V492.065H110.417V485.387H105.251ZM113.326 492.065H114.946V479.141H113.326V492.065ZM117.896 492.065H119.372V480.581H120.182L124.466 492.065H127.598V479.141H126.104V490.625H125.456L121.172 479.141H117.896V492.065ZM139.053 479.141H134.841V492.065H136.461V487.439H139.107C141.411 487.439 143.319 485.585 143.319 483.299C143.319 480.995 141.411 479.141 139.053 479.141ZM141.573 483.857C141.573 485.261 140.691 485.999 138.981 485.999H136.461V480.581H138.945C140.673 480.581 141.573 481.319 141.573 482.723V483.857ZM145.511 492.065H152.909V490.625H147.131V486.107H152.243V484.667H147.131V480.581H152.783V479.141H145.511V492.065ZM162.215 492.065H164.213L160.433 486.755C162.233 486.197 163.475 484.775 163.475 483.065C163.475 480.869 161.585 479.141 159.173 479.141H155.285V492.065H156.905V486.989H158.795L162.215 492.065ZM156.905 480.581H159.227C160.865 480.581 161.711 481.247 161.711 482.543V483.587C161.711 484.883 160.865 485.549 159.227 485.549H156.905V480.581ZM174.954 492.245C177.726 492.245 179.526 490.445 179.526 487.691V479.141H177.906V488.123C177.906 489.977 177.006 490.787 174.954 490.787C172.884 490.787 172.002 489.995 172.002 488.123V479.141H170.382V487.691C170.382 490.445 172.182 492.245 174.954 492.245ZM182.39 492.065H183.866V480.581H184.676L188.96 492.065H192.092V479.141H190.598V490.625H189.95L185.666 479.141H182.39V492.065ZM195.046 492.065H196.666V479.141H195.046V492.065ZM202.263 492.065H203.883V480.617H207.645V479.141H198.501V480.617H202.263V492.065Z" fill="black"/>
<path d="M279.442 242.065H287.92V240.535H281.026V239.815L284.986 236.791C286.768 235.423 287.668 234.091 287.668 232.633C287.668 230.635 286.102 228.961 283.528 228.961C281.134 228.961 279.46 230.491 279.1 232.795H280.81C280.81 231.103 281.674 230.365 283.528 230.365C285.364 230.365 285.94 230.977 285.94 232.417V233.065C285.94 233.983 285.256 234.703 283.798 235.855L279.442 239.257V242.065ZM296.85 242.065H298.434V237.745H300.774V236.413H298.434V232.093H296.85V236.413H292.548V229.141H290.964V237.745H296.85V242.065ZM307.507 233.443C306.463 233.443 305.419 233.911 304.699 234.649V230.671H311.269V229.141H303.295V236.665H304.681C304.915 235.405 305.599 234.865 307.399 234.865C309.307 234.865 310.135 235.549 310.135 237.205V238.555C310.135 240.193 309.307 240.805 307.399 240.805C305.581 240.805 304.897 240.409 304.699 239.005H302.953C303.277 240.967 305.095 242.245 307.345 242.245C310.387 242.245 311.845 240.319 311.845 237.835C311.845 235.495 310.171 233.443 307.507 233.443ZM315.628 242.191C316.366 242.191 316.906 241.651 316.906 240.913C316.906 240.157 316.366 239.617 315.628 239.617C314.89 239.617 314.35 240.157 314.35 240.913C314.35 241.651 314.89 242.191 315.628 242.191ZM324.224 233.443C323.18 233.443 322.136 233.911 321.416 234.649V230.671H327.986V229.141H320.012V236.665H321.398C321.632 235.405 322.316 234.865 324.116 234.865C326.024 234.865 326.852 235.549 326.852 237.205V238.555C326.852 240.193 326.024 240.805 324.116 240.805C322.298 240.805 321.614 240.409 321.416 239.005H319.67C319.994 240.967 321.812 242.245 324.062 242.245C327.104 242.245 328.562 240.319 328.562 237.835C328.562 235.495 326.888 233.443 324.224 233.443ZM337.961 235.333C339.221 234.757 339.977 233.731 339.977 232.489C339.977 230.473 338.213 228.961 335.783 228.961C333.353 228.961 331.589 230.473 331.589 232.489C331.589 233.731 332.345 234.757 333.605 235.333C332.111 235.909 331.193 237.025 331.193 238.447C331.193 240.625 333.101 242.245 335.783 242.245C338.465 242.245 340.373 240.643 340.373 238.447C340.373 237.025 339.455 235.909 337.961 235.333ZM333.335 232.165C333.335 230.905 334.073 230.365 335.783 230.365C337.493 230.365 338.231 230.905 338.231 232.165V232.957C338.231 234.217 337.493 234.757 335.783 234.757C334.073 234.757 333.335 234.217 333.335 232.957V232.165ZM338.645 238.861C338.645 240.229 337.781 240.823 335.783 240.823C333.785 240.823 332.921 240.229 332.921 238.861V238.069C332.921 236.683 333.785 236.089 335.783 236.089C337.781 236.089 338.645 236.683 338.645 238.069V238.861ZM285.328 260.333C286.534 259.757 287.254 258.785 287.254 257.579C287.254 255.743 285.724 253.961 283.186 253.961C280.972 253.961 279.262 255.563 279.046 257.579H280.738C280.738 256.031 281.296 255.365 283.186 255.365C284.842 255.365 285.544 255.887 285.544 257.129V258.029C285.544 259.217 284.842 259.757 283.204 259.757H281.116V261.089H283.258C285.166 261.089 285.976 261.683 285.976 262.997V263.897C285.976 265.229 285.148 265.823 283.222 265.823C281.044 265.823 280.414 265.103 280.414 263.447H278.686C278.866 265.661 280.576 267.245 283.222 267.245C285.832 267.245 287.686 265.337 287.686 263.447C287.686 262.025 286.768 260.891 285.328 260.333ZM294.965 258.515C294.695 258.515 294.425 258.551 294.173 258.605L297.989 254.141H295.991L291.905 258.965C290.879 260.189 290.213 261.287 290.213 262.817C290.213 265.373 292.193 267.245 294.947 267.245C297.701 267.245 299.663 265.373 299.663 262.817C299.663 260.351 297.647 258.515 294.965 258.515ZM297.953 263.213C297.953 265.067 297.071 265.823 294.947 265.823C292.823 265.823 291.941 265.067 291.941 263.213V262.421C291.941 260.549 292.823 259.757 294.947 259.757C297.071 259.757 297.953 260.549 297.953 262.421V263.213ZM303.481 267.191C304.219 267.191 304.759 266.651 304.759 265.913C304.759 265.157 304.219 264.617 303.481 264.617C302.743 264.617 302.203 265.157 302.203 265.913C302.203 266.651 302.743 267.191 303.481 267.191ZM307.493 267.065H316.637V265.535H312.857V254.141H307.907V255.671H311.273V265.535H307.493V267.065ZM322.438 253.961C319.738 253.961 317.812 255.797 317.812 258.299C317.812 260.693 319.792 262.439 322.474 262.439C322.762 262.439 323.068 262.403 323.338 262.331L319.378 267.065H321.358L325.39 262.061C326.38 260.837 327.082 259.937 327.082 258.299C327.082 255.797 325.102 253.961 322.438 253.961ZM325.372 258.695C325.372 260.513 324.508 261.287 322.492 261.287C320.422 261.287 319.522 260.513 319.522 258.695V257.921C319.522 256.139 320.422 255.365 322.492 255.365C324.508 255.365 325.372 256.139 325.372 257.921V258.695ZM278.542 292.065H287.686V290.535H283.906V279.141H278.956V280.671H282.322V290.535H278.542V292.065ZM294.051 283.515C293.781 283.515 293.511 283.551 293.259 283.605L297.075 279.141H295.077L290.991 283.965C289.965 285.189 289.299 286.287 289.299 287.817C289.299 290.373 291.279 292.245 294.033 292.245C296.787 292.245 298.749 290.373 298.749 287.817C298.749 285.351 296.733 283.515 294.051 283.515ZM297.039 288.213C297.039 290.067 296.157 290.823 294.033 290.823C291.909 290.823 291.027 290.067 291.027 288.213V287.421C291.027 285.549 291.909 284.757 294.033 284.757C296.157 284.757 297.039 285.549 297.039 287.421V288.213ZM302.567 292.191C303.305 292.191 303.845 291.651 303.845 290.913C303.845 290.157 303.305 289.617 302.567 289.617C301.829 289.617 301.289 290.157 301.289 290.913C301.289 291.651 301.829 292.191 302.567 292.191ZM313.013 285.333C314.219 284.757 314.939 283.785 314.939 282.579C314.939 280.743 313.409 278.961 310.871 278.961C308.657 278.961 306.947 280.563 306.731 282.579H308.423C308.423 281.031 308.981 280.365 310.871 280.365C312.527 280.365 313.229 280.887 313.229 282.129V283.029C313.229 284.217 312.527 284.757 310.889 284.757H308.801V286.089H310.943C312.851 286.089 313.661 286.683 313.661 287.997V288.897C313.661 290.229 312.833 290.823 310.907 290.823C308.729 290.823 308.099 290.103 308.099 288.447H306.371C306.551 290.661 308.261 292.245 310.907 292.245C313.517 292.245 315.371 290.337 315.371 288.447C315.371 287.025 314.453 285.891 313.013 285.333ZM319.252 292.065H321.052L325.876 281.301V279.141H316.786V280.671H324.292V281.391L319.252 292.065ZM278.542 317.065H287.686V315.535H283.906V304.141H278.956V305.671H282.322V315.535H278.542V317.065ZM289.51 317.065H298.654V315.535H294.874V304.141H289.924V305.671H293.29V315.535H289.51V317.065ZM305.24 308.443C304.196 308.443 303.152 308.911 302.432 309.649V305.671H309.002V304.141H301.028V311.665H302.414C302.648 310.405 303.332 309.865 305.132 309.865C307.04 309.865 307.868 310.549 307.868 312.205V313.555C307.868 315.193 307.04 315.805 305.132 315.805C303.314 315.805 302.63 315.409 302.432 314.005H300.686C301.01 315.967 302.828 317.245 305.078 317.245C308.12 317.245 309.578 315.319 309.578 312.835C309.578 310.495 307.904 308.443 305.24 308.443ZM313.36 317.191C314.098 317.191 314.638 316.651 314.638 315.913C314.638 315.157 314.098 314.617 313.36 314.617C312.622 314.617 312.082 315.157 312.082 315.913C312.082 316.651 312.622 317.191 313.36 317.191ZM317.92 317.065H326.398V315.535H319.504V314.815L323.464 311.791C325.246 310.423 326.146 309.091 326.146 307.633C326.146 305.635 324.58 303.961 322.006 303.961C319.612 303.961 317.938 305.491 317.578 307.795H319.288C319.288 306.103 320.152 305.365 322.006 305.365C323.842 305.365 324.418 305.977 324.418 307.417V308.065C324.418 308.983 323.734 309.703 322.276 310.855L317.92 314.257V317.065ZM333.583 303.961C330.883 303.961 328.957 305.797 328.957 308.299C328.957 310.693 330.937 312.439 333.619 312.439C333.907 312.439 334.213 312.403 334.483 312.331L330.523 317.065H332.503L336.535 312.061C337.525 310.837 338.227 309.937 338.227 308.299C338.227 305.797 336.247 303.961 333.583 303.961ZM336.517 308.695C336.517 310.513 335.653 311.287 333.637 311.287C331.567 311.287 330.667 310.513 330.667 308.695V307.921C330.667 306.139 331.567 305.365 333.637 305.365C335.653 305.365 336.517 306.139 336.517 307.921V308.695ZM279.442 342.065H287.92V340.535H281.026V339.815L284.986 336.791C286.768 335.423 287.668 334.091 287.668 332.633C287.668 330.635 286.102 328.961 283.528 328.961C281.134 328.961 279.46 330.491 279.1 332.795H280.81C280.81 331.103 281.674 330.365 283.528 330.365C285.364 330.365 285.94 330.977 285.94 332.417V333.065C285.94 333.983 285.256 334.703 283.798 335.855L279.442 339.257V342.065ZM290.424 342.065H299.568V340.535H295.788V329.141H290.838V330.671H294.204V340.535H290.424V342.065ZM303.288 342.191C304.026 342.191 304.566 341.651 304.566 340.913C304.566 340.157 304.026 339.617 303.288 339.617C302.55 339.617 302.01 340.157 302.01 340.913C302.01 341.651 302.55 342.191 303.288 342.191ZM307.545 342.065H309.345L314.169 331.301V329.141H305.079V330.671H312.585V331.391L307.545 342.065ZM321.974 333.443C320.93 333.443 319.886 333.911 319.166 334.649V330.671H325.736V329.141H317.762V336.665H319.148C319.382 335.405 320.066 334.865 321.866 334.865C323.774 334.865 324.602 335.549 324.602 337.205V338.555C324.602 340.193 323.774 340.805 321.866 340.805C320.048 340.805 319.364 340.409 319.166 339.005H317.42C317.744 340.967 319.562 342.245 321.812 342.245C324.854 342.245 326.312 340.319 326.312 337.835C326.312 335.495 324.638 333.443 321.974 333.443ZM283.222 353.961C280.522 353.961 278.596 355.797 278.596 358.299C278.596 360.693 280.576 362.439 283.258 362.439C283.546 362.439 283.852 362.403 284.122 362.331L280.162 367.065H282.142L286.174 362.061C287.164 360.837 287.866 359.937 287.866 358.299C287.866 355.797 285.886 353.961 283.222 353.961ZM286.156 358.695C286.156 360.513 285.292 361.287 283.276 361.287C281.206 361.287 280.306 360.513 280.306 358.695V357.921C280.306 356.139 281.206 355.365 283.276 355.365C285.292 355.365 286.156 356.139 286.156 357.921V358.695ZM289.612 367.191C290.35 367.191 290.89 366.651 290.89 365.913C290.89 365.157 290.35 364.617 289.612 364.617C288.874 364.617 288.334 365.157 288.334 365.913C288.334 366.651 288.874 367.191 289.612 367.191ZM294.172 367.065H302.65V365.535H295.756V364.815L299.716 361.791C301.498 360.423 302.398 359.091 302.398 357.633C302.398 355.635 300.832 353.961 298.258 353.961C295.864 353.961 294.19 355.491 293.83 357.795H295.54C295.54 356.103 296.404 355.365 298.258 355.365C300.094 355.365 300.67 355.977 300.67 357.417V358.065C300.67 358.983 299.986 359.703 298.528 360.855L294.172 364.257V367.065ZM305.51 367.065H313.988V365.535H307.094V364.815L311.054 361.791C312.836 360.423 313.736 359.091 313.736 357.633C313.736 355.635 312.17 353.961 309.596 353.961C307.202 353.961 305.528 355.491 305.168 357.795H306.878C306.878 356.103 307.742 355.365 309.596 355.365C311.432 355.365 312.008 355.977 312.008 357.417V358.065C312.008 358.983 311.324 359.703 309.866 360.855L305.51 364.257V367.065ZM283.33 392.245C286.318 392.245 288.19 389.491 288.19 385.621C288.19 381.733 286.282 378.961 283.33 378.961C280.378 378.961 278.47 381.733 278.47 385.621C278.47 389.491 280.342 392.245 283.33 392.245ZM283.33 390.823C281.17 390.823 280.252 389.689 280.252 387.079V384.163C280.252 381.499 281.17 380.365 283.33 380.365C285.49 380.365 286.408 381.499 286.408 384.163V387.079C286.408 389.689 285.49 390.823 283.33 390.823ZM291.687 392.191C292.425 392.191 292.965 391.651 292.965 390.913C292.965 390.157 292.425 389.617 291.687 389.617C290.949 389.617 290.409 390.157 290.409 390.913C290.409 391.651 290.949 392.191 291.687 392.191ZM300.046 392.245C303.034 392.245 304.906 389.491 304.906 385.621C304.906 381.733 302.998 378.961 300.046 378.961C297.094 378.961 295.186 381.733 295.186 385.621C295.186 389.491 297.058 392.245 300.046 392.245ZM300.046 390.823C297.886 390.823 296.968 389.689 296.968 387.079V384.163C296.968 381.499 297.886 380.365 300.046 380.365C302.206 380.365 303.124 381.499 303.124 384.163V387.079C303.124 389.689 302.206 390.823 300.046 390.823ZM311.929 392.245C314.917 392.245 316.789 389.491 316.789 385.621C316.789 381.733 314.881 378.961 311.929 378.961C308.977 378.961 307.069 381.733 307.069 385.621C307.069 389.491 308.941 392.245 311.929 392.245ZM311.929 390.823C309.769 390.823 308.851 389.689 308.851 387.079V384.163C308.851 381.499 309.769 380.365 311.929 380.365C314.089 380.365 315.007 381.499 315.007 384.163V387.079C315.007 389.689 314.089 390.823 311.929 390.823ZM283.654 408.443C282.61 408.443 281.566 408.911 280.846 409.649V405.671H287.416V404.141H279.442V411.665H280.828C281.062 410.405 281.746 409.865 283.546 409.865C285.454 409.865 286.282 410.549 286.282 412.205V413.555C286.282 415.193 285.454 415.805 283.546 415.805C281.728 415.805 281.044 415.409 280.846 414.005H279.1C279.424 415.967 281.242 417.245 283.492 417.245C286.534 417.245 287.992 415.319 287.992 412.835C287.992 410.495 286.318 408.443 283.654 408.443ZM291.774 417.191C292.512 417.191 293.052 416.651 293.052 415.913C293.052 415.157 292.512 414.617 291.774 414.617C291.036 414.617 290.496 415.157 290.496 415.913C290.496 416.651 291.036 417.191 291.774 417.191ZM300.37 408.443C299.326 408.443 298.282 408.911 297.562 409.649V405.671H304.132V404.141H296.158V411.665H297.544C297.778 410.405 298.462 409.865 300.262 409.865C302.17 409.865 302.998 410.549 302.998 412.205V413.555C302.998 415.193 302.17 415.805 300.262 415.805C298.444 415.805 297.76 415.409 297.562 414.005H295.816C296.14 415.967 297.958 417.245 300.208 417.245C303.25 417.245 304.708 415.319 304.708 412.835C304.708 410.495 303.034 408.443 300.37 408.443ZM313.567 417.065H315.151V412.745H317.491V411.413H315.151V407.093H313.567V411.413H309.265V404.141H307.681V412.745H313.567V417.065ZM278.542 442.065H287.686V440.535H283.906V429.141H278.956V430.671H282.322V440.535H278.542V442.065ZM290.059 442.065H298.537V440.535H291.643V439.815L295.603 436.791C297.385 435.423 298.285 434.091 298.285 432.633C298.285 430.635 296.719 428.961 294.145 428.961C291.751 428.961 290.077 430.491 289.717 432.795H291.427C291.427 431.103 292.291 430.365 294.145 430.365C295.981 430.365 296.557 430.977 296.557 432.417V433.065C296.557 433.983 295.873 434.703 294.415 435.855L290.059 439.257V442.065ZM302.392 442.191C303.13 442.191 303.67 441.651 303.67 440.913C303.67 440.157 303.13 439.617 302.392 439.617C301.654 439.617 301.114 440.157 301.114 440.913C301.114 441.651 301.654 442.191 302.392 442.191ZM310.767 433.515C310.497 433.515 310.227 433.551 309.975 433.605L313.791 429.141H311.793L307.707 433.965C306.681 435.189 306.015 436.287 306.015 437.817C306.015 440.373 307.995 442.245 310.749 442.245C313.503 442.245 315.465 440.373 315.465 437.817C315.465 435.351 313.449 433.515 310.767 433.515ZM313.755 438.213C313.755 440.067 312.873 440.823 310.749 440.823C308.625 440.823 307.743 440.067 307.743 438.213V437.421C307.743 435.549 308.625 434.757 310.749 434.757C312.873 434.757 313.755 435.549 313.755 437.421V438.213ZM317.934 442.065H327.078V440.535H323.298V429.141H318.348V430.671H321.714V440.535H317.934V442.065ZM279.442 492.065H287.92V490.535H281.026V489.815L284.986 486.791C286.768 485.423 287.668 484.091 287.668 482.633C287.668 480.635 286.102 478.961 283.528 478.961C281.134 478.961 279.46 480.491 279.1 482.795H280.81C280.81 481.103 281.674 480.365 283.528 480.365C285.364 480.365 285.94 480.977 285.94 482.417V483.065C285.94 483.983 285.256 484.703 283.798 485.855L279.442 489.257V492.065ZM297.39 485.333C298.65 484.757 299.406 483.731 299.406 482.489C299.406 480.473 297.642 478.961 295.212 478.961C292.782 478.961 291.018 480.473 291.018 482.489C291.018 483.731 291.774 484.757 293.034 485.333C291.54 485.909 290.622 487.025 290.622 488.447C290.622 490.625 292.53 492.245 295.212 492.245C297.894 492.245 299.802 490.643 299.802 488.447C299.802 487.025 298.884 485.909 297.39 485.333ZM292.764 482.165C292.764 480.905 293.502 480.365 295.212 480.365C296.922 480.365 297.66 480.905 297.66 482.165V482.957C297.66 484.217 296.922 484.757 295.212 484.757C293.502 484.757 292.764 484.217 292.764 482.957V482.165ZM298.074 488.861C298.074 490.229 297.21 490.823 295.212 490.823C293.214 490.823 292.35 490.229 292.35 488.861V488.069C292.35 486.683 293.214 486.089 295.212 486.089C297.21 486.089 298.074 486.683 298.074 488.069V488.861ZM303.657 492.191C304.395 492.191 304.935 491.651 304.935 490.913C304.935 490.157 304.395 489.617 303.657 489.617C302.919 489.617 302.379 490.157 302.379 490.913C302.379 491.651 302.919 492.191 303.657 492.191ZM312.033 483.515C311.763 483.515 311.493 483.551 311.241 483.605L315.057 479.141H313.059L308.973 483.965C307.947 485.189 307.281 486.287 307.281 487.817C307.281 490.373 309.261 492.245 312.015 492.245C314.769 492.245 316.731 490.373 316.731 487.817C316.731 485.351 314.715 483.515 312.033 483.515ZM315.021 488.213C315.021 490.067 314.139 490.823 312.015 490.823C309.891 490.823 309.009 490.067 309.009 488.213V487.421C309.009 485.549 309.891 484.757 312.015 484.757C314.139 484.757 315.021 485.549 315.021 487.421V488.213ZM319.2 492.065H328.344V490.535H324.564V479.141H319.614V480.671H322.98V490.535H319.2V492.065Z" fill="black" fill-opacity="0.5"/>
<g filter="url(#filter0_f_1303_1847)">
<rect x="195.267" y="36.1758" width="443.42" height="321.779" rx="8" fill="black" fill-opacity="0.1"/>
</g>
<rect x="205.267" y="26.1758" width="443.42" height="321.779" rx="8" fill="white"/>
<path d="M257.039 65.1758H264.819V63.5358H258.839V50.8158H257.039V65.1758ZM268.007 65.1758H269.807V52.4558H273.987V50.8158H263.827V52.4558H268.007V65.1758ZM279.519 65.1758H282.859L286.739 50.8158H284.899L281.659 63.5758H280.859L277.599 50.8158H275.679L279.519 65.1758ZM287.045 66.7758H288.845L296.605 49.2158H294.805L287.045 66.7758ZM303.08 65.3758C305.98 65.3758 308.42 62.9558 308.88 59.6558H306.78C306.72 62.3758 305.28 63.7558 303.08 63.7558C300.54 63.7558 299.14 62.2158 299.14 59.1958V56.8158C299.14 53.7758 300.54 52.2358 303.08 52.2358C305.28 52.2358 306.72 53.6158 306.78 56.3358H308.88C308.42 53.0358 305.98 50.6158 303.08 50.6158C299.66 50.6158 297.1 53.8558 297.1 57.9958C297.1 62.1358 299.66 65.3758 303.08 65.3758ZM319.728 65.1758H321.648L317.448 50.8158H314.248L309.988 65.1758H311.828L313.048 60.7558H318.488L319.728 65.1758ZM313.508 59.1558L315.368 52.4158H316.168L318.048 59.1558H313.508ZM328.94 65.3758C331.84 65.3758 334.28 62.9558 334.74 59.6558H332.64C332.58 62.3758 331.14 63.7558 328.94 63.7558C326.4 63.7558 325 62.2158 325 59.1958V56.8158C325 53.7758 326.4 52.2358 328.94 52.2358C331.14 52.2358 332.58 53.6158 332.64 56.3358H334.74C334.28 53.0358 331.84 50.6158 328.94 50.6158C325.52 50.6158 322.96 53.8558 322.96 57.9958C322.96 62.1358 325.52 65.3758 328.94 65.3758ZM346.744 54.5158C345.424 54.5158 344.104 55.2558 343.364 56.3358V54.7158H341.704V69.3158H343.464V63.7158C344.304 64.7758 345.444 65.3758 346.664 65.3758C349.304 65.3758 351.424 62.9358 351.424 59.8958C351.424 56.9958 349.264 54.5158 346.744 54.5158ZM349.464 60.7558C349.464 62.8958 348.564 63.8158 346.464 63.8158C344.364 63.8158 343.464 62.8958 343.464 60.7558V59.1558C343.464 56.9958 344.364 56.0758 346.464 56.0758C348.564 56.0758 349.464 56.9958 349.464 59.1558V60.7558ZM353.716 65.1758H355.476V50.8158H353.716V65.1758ZM362.441 54.5158C360.221 54.5158 358.481 56.0958 358.141 58.2558H359.941C360.021 56.6558 360.561 56.0758 362.381 56.0758C364.121 56.0758 364.641 56.6758 364.641 58.2558V59.1958H361.741C359.481 59.1958 357.881 60.4158 357.881 62.1358C357.881 63.9358 359.541 65.3758 361.641 65.3758C363.001 65.3758 364.101 64.8758 364.741 63.9958V65.1758H366.401V58.3558C366.401 56.0558 364.821 54.5158 362.441 54.5158ZM362.001 63.8158C360.441 63.8158 359.781 63.3958 359.781 62.4158V61.8558C359.781 61.0758 360.261 60.6758 361.241 60.6758H364.641V61.9758C364.641 63.2558 363.841 63.8158 362.001 63.8158ZM374.243 54.5158C372.883 54.5158 371.703 55.1558 370.903 56.2758V54.7158H369.243V65.1758H371.003V58.5358C371.003 56.8158 371.803 56.0758 373.703 56.0758C375.483 56.0758 376.263 56.7758 376.263 58.4358V65.1758H378.023V58.6358C378.023 56.2158 376.423 54.5158 374.243 54.5158Z" fill="#070707"/>
<path d="M479.02 65.1758H486.8V63.5358H480.82V50.8158H479.02V65.1758ZM489.987 65.1758H491.787V52.4558H495.967V50.8158H485.807V52.4558H489.987V65.1758ZM501.5 65.1758H504.84L508.72 50.8158H506.88L503.64 63.5758H502.84L499.58 50.8158H497.66L501.5 65.1758ZM509.025 66.7758H510.825L518.585 49.2158H516.785L509.025 66.7758ZM525.061 65.3758C527.961 65.3758 530.401 62.9558 530.861 59.6558H528.761C528.701 62.3758 527.261 63.7558 525.061 63.7558C522.521 63.7558 521.121 62.2158 521.121 59.1958V56.8158C521.121 53.7758 522.521 52.2358 525.061 52.2358C527.261 52.2358 528.701 53.6158 528.761 56.3358H530.861C530.401 53.0358 527.961 50.6158 525.061 50.6158C521.641 50.6158 519.081 53.8558 519.081 57.9958C519.081 62.1358 521.641 65.3758 525.061 65.3758ZM541.709 65.1758H543.629L539.429 50.8158H536.229L531.969 65.1758H533.809L535.029 60.7558H540.469L541.709 65.1758ZM535.489 59.1558L537.349 52.4158H538.149L540.029 59.1558H535.489ZM550.92 65.3758C553.82 65.3758 556.26 62.9558 556.72 59.6558H554.62C554.56 62.3758 553.12 63.7558 550.92 63.7558C548.38 63.7558 546.98 62.2158 546.98 59.1958V56.8158C546.98 53.7758 548.38 52.2358 550.92 52.2358C553.12 52.2358 554.56 53.6158 554.62 56.3358H556.72C556.26 53.0358 553.82 50.6158 550.92 50.6158C547.5 50.6158 544.94 53.8558 544.94 57.9958C544.94 62.1358 547.5 65.3758 550.92 65.3758ZM564.865 65.1758H566.625V56.1958H569.625V54.7158H566.625V53.2958C566.625 52.6558 566.985 52.2958 567.625 52.2958H569.425V50.7158H567.825C566.045 50.7158 564.865 51.8358 564.865 53.4958V54.7158H562.585V56.1958H564.865V65.1758ZM575.184 54.5158C572.964 54.5158 571.224 56.0958 570.884 58.2558H572.684C572.764 56.6558 573.304 56.0758 575.124 56.0758C576.864 56.0758 577.384 56.6758 577.384 58.2558V59.1958H574.484C572.224 59.1958 570.624 60.4158 570.624 62.1358C570.624 63.9358 572.284 65.3758 574.384 65.3758C575.744 65.3758 576.844 64.8758 577.484 63.9958V65.1758H579.144V58.3558C579.144 56.0558 577.564 54.5158 575.184 54.5158ZM574.744 63.8158C573.184 63.8158 572.524 63.3958 572.524 62.4158V61.8558C572.524 61.0758 573.004 60.6758 573.984 60.6758H577.384V61.9758C577.384 63.2558 576.584 63.8158 574.744 63.8158ZM586.085 65.3758C588.325 65.3758 590.305 63.5958 590.665 61.2558H588.785C588.665 63.0958 587.885 63.8158 586.045 63.8158C584.085 63.8158 583.245 62.8958 583.245 60.7358V59.1358C583.245 56.9958 584.085 56.0758 586.045 56.0758C587.885 56.0758 588.665 56.7958 588.785 58.6358H590.665C590.305 56.2958 588.325 54.5158 586.085 54.5158C583.365 54.5158 581.285 56.8758 581.285 59.9358C581.285 62.9958 583.385 65.3758 586.085 65.3758ZM597.007 65.2758H598.407V63.6958H596.807C596.007 63.6958 595.607 63.2958 595.607 62.4958V56.1958H598.607V54.7158H595.607V50.8158H593.847V54.7158H591.567V56.1958H593.847V62.2958C593.847 64.0758 595.107 65.2758 597.007 65.2758Z" fill="#070707"/>
<path d="M226.139 115.47C225.327 115.47 224.515 115.834 223.955 116.408V113.314H229.065V112.124H222.863V117.976H223.941C224.123 116.996 224.655 116.576 226.055 116.576C227.539 116.576 228.183 117.108 228.183 118.396V119.446C228.183 120.72 227.539 121.196 226.055 121.196C224.641 121.196 224.109 120.888 223.955 119.796H222.597C222.849 121.322 224.263 122.316 226.013 122.316C228.379 122.316 229.513 120.818 229.513 118.886C229.513 117.066 228.211 115.47 226.139 115.47Z" fill="black" fill-opacity="0.5"/>
<path d="M227.161 170.176H228.393V166.816H230.213V165.78H228.393V162.42H227.161V165.78H223.815V160.124H222.583V166.816H227.161V170.176Z" fill="black" fill-opacity="0.5"/>
<path d="M227.441 212.94C228.379 212.492 228.939 211.736 228.939 210.798C228.939 209.37 227.749 207.984 225.775 207.984C224.053 207.984 222.723 209.23 222.555 210.798H223.871C223.871 209.594 224.305 209.076 225.775 209.076C227.063 209.076 227.609 209.482 227.609 210.448V211.148C227.609 212.072 227.063 212.492 225.789 212.492H224.165V213.528H225.831C227.315 213.528 227.945 213.99 227.945 215.012V215.712C227.945 216.748 227.301 217.21 225.803 217.21C224.109 217.21 223.619 216.65 223.619 215.362H222.275C222.415 217.084 223.745 218.316 225.803 218.316C227.833 218.316 229.275 216.832 229.275 215.362C229.275 214.256 228.561 213.374 227.441 212.94Z" fill="black" fill-opacity="0.5"/>
<path d="M222.863 266.176H229.457V264.986H224.095V264.426L227.175 262.074C228.561 261.01 229.261 259.974 229.261 258.84C229.261 257.286 228.043 255.984 226.041 255.984C224.179 255.984 222.877 257.174 222.597 258.966H223.927C223.927 257.65 224.599 257.076 226.041 257.076C227.469 257.076 227.917 257.552 227.917 258.672V259.176C227.917 259.89 227.385 260.45 226.251 261.346L222.863 263.992V266.176Z" fill="black" fill-opacity="0.5"/>
<path d="M222.163 314.176H229.275V312.986H226.335V304.124H222.485V305.314H225.103V312.986H222.163V314.176Z" fill="black" fill-opacity="0.5"/>
<rect opacity="0.1" x="290.517" y="161.176" width="317.5" height="1" fill="#070707"/>
<rect opacity="0.1" x="290.517" y="209.176" width="317.5" height="1" fill="#070707"/>
<rect opacity="0.1" x="290.517" y="113.176" width="317.5" height="1" fill="#070707"/>
<rect opacity="0.1" x="290.517" y="257.176" width="317.5" height="1" fill="#070707"/>
<rect opacity="0.1" x="290.517" y="305.176" width="317.5" height="1" fill="#070707"/>
<rect x="221.267" y="42.1758" width="12" height="32" rx="6" fill="#11B3E7"/>
<rect x="443.247" y="42.1758" width="12" height="32" rx="6" fill="#2BBC62"/>
<path d="M288.723 221.697H604.887" stroke="#11B3E7" stroke-width="5"/>
<path d="M293.61 193.223C326.611 193.223 337.111 211.973 367.862 211.973C398.786 211.973 422.289 199.908 450.247 232.224C497.616 286.976 534.12 245.242 554.618 197.723C571.118 159.472 585.869 149.221 601.494 150.847" stroke="#2BBC62" stroke-width="5"/>
<path d="M295.089 332.034C296.881 332.034 298.197 330.718 298.197 328.912V321.842H296.937V328.772C296.937 330.34 296.447 330.9 295.089 330.9C293.605 330.9 293.171 330.424 293.171 328.772H291.869C291.869 330.662 293.213 332.034 295.089 332.034ZM303.092 324.432C301.538 324.432 300.32 325.538 300.082 327.05H301.342C301.398 325.93 301.776 325.524 303.05 325.524C304.268 325.524 304.632 325.944 304.632 327.05V327.708H302.602C301.02 327.708 299.9 328.562 299.9 329.766C299.9 331.026 301.062 332.034 302.532 332.034C303.484 332.034 304.254 331.684 304.702 331.068V331.894H305.864V327.12C305.864 325.51 304.758 324.432 303.092 324.432ZM302.784 330.942C301.692 330.942 301.23 330.648 301.23 329.962V329.57C301.23 329.024 301.566 328.744 302.252 328.744H304.632V329.654C304.632 330.55 304.072 330.942 302.784 330.942ZM311.353 324.432C310.401 324.432 309.575 324.88 309.015 325.664V324.572H307.853V331.894H309.085V327.246C309.085 326.042 309.645 325.524 310.975 325.524C312.221 325.524 312.767 326.014 312.767 327.176V331.894H313.999V327.316C313.999 325.622 312.879 324.432 311.353 324.432Z" fill="#646464"/>
<path d="M342.573 331.894H343.833V327.54H347.655V326.42H343.833V322.948H348.075V321.842H342.573V331.894ZM355.651 328.604V328.086C355.651 326.028 354.209 324.432 352.361 324.432C350.373 324.432 348.875 326.168 348.875 328.38C348.875 330.522 350.359 332.034 352.361 332.034C353.733 332.034 355.133 331.026 355.623 329.64H354.195C354.083 330.55 353.537 330.942 352.361 330.942C350.877 330.942 350.247 330.354 350.247 328.926V328.604H355.651ZM352.375 325.524C353.761 325.524 354.279 326.07 354.279 327.386V327.568H350.247V327.414C350.247 326.098 350.919 325.524 352.375 325.524ZM360.796 324.432C359.914 324.432 359.032 324.894 358.5 325.608V321.842H357.268V331.894H358.43V330.774C359.032 331.586 359.858 332.034 360.74 332.034C362.588 332.034 364.072 330.326 364.072 328.198C364.072 326.168 362.56 324.432 360.796 324.432ZM362.7 328.8C362.7 330.298 362.07 330.942 360.6 330.942C359.13 330.942 358.5 330.298 358.5 328.8V327.68C358.5 326.168 359.13 325.524 360.6 325.524C362.07 325.524 362.7 326.168 362.7 327.68V328.8Z" fill="#646464"/>
<path d="M389.746 331.894H390.894V322.962H391.524L393.624 331.894H395.92L398.048 322.962H398.678V331.894H399.854V321.842H397.096L395.052 330.774H394.548L392.504 321.842H389.746V331.894ZM404.82 324.432C403.266 324.432 402.048 325.538 401.81 327.05H403.07C403.126 325.93 403.504 325.524 404.778 325.524C405.996 325.524 406.36 325.944 406.36 327.05V327.708H404.33C402.748 327.708 401.628 328.562 401.628 329.766C401.628 331.026 402.79 332.034 404.26 332.034C405.212 332.034 405.982 331.684 406.43 331.068V331.894H407.592V327.12C407.592 325.51 406.486 324.432 404.82 324.432ZM404.512 330.942C403.42 330.942 402.958 330.648 402.958 329.962V329.57C402.958 329.024 403.294 328.744 403.98 328.744H406.36V329.654C406.36 330.55 405.8 330.942 404.512 330.942ZM410.744 325.944V324.572H409.582V331.894H410.814V327.428C410.814 326.434 411.262 325.986 412.256 325.986H413.39V324.432C412.256 324.572 411.318 325.104 410.744 325.944Z" fill="#646464"/>
<path d="M446.863 331.894H448.207L445.267 321.842H443.027L440.045 331.894H441.333L442.187 328.8H445.995L446.863 331.894ZM442.509 327.68L443.811 322.962H444.371L445.687 327.68H442.509ZM453.346 324.432C452.422 324.432 451.498 324.95 450.98 325.706V324.572H449.818V334.792H451.05V330.872C451.638 331.614 452.436 332.034 453.29 332.034C455.138 332.034 456.622 330.326 456.622 328.198C456.622 326.168 455.11 324.432 453.346 324.432ZM455.25 328.8C455.25 330.298 454.62 330.942 453.15 330.942C451.68 330.942 451.05 330.298 451.05 328.8V327.68C451.05 326.168 451.68 325.524 453.15 325.524C454.62 325.524 455.25 326.168 455.25 327.68V328.8ZM459.388 325.944V324.572H458.226V331.894H459.458V327.428C459.458 326.434 459.906 325.986 460.9 325.986H462.034V324.432C460.9 324.572 459.962 325.104 459.388 325.944Z" fill="#646464"/>
<path d="M486.324 331.894H487.472V322.962H488.102L490.202 331.894H492.498L494.626 322.962H495.256V331.894H496.432V321.842H493.674L491.63 330.774H491.126L489.082 321.842H486.324V331.894ZM501.398 324.432C499.844 324.432 498.626 325.538 498.388 327.05H499.648C499.704 325.93 500.082 325.524 501.356 325.524C502.574 325.524 502.938 325.944 502.938 327.05V327.708H500.908C499.326 327.708 498.206 328.562 498.206 329.766C498.206 331.026 499.368 332.034 500.838 332.034C501.79 332.034 502.56 331.684 503.008 331.068V331.894H504.17V327.12C504.17 325.51 503.064 324.432 501.398 324.432ZM501.09 330.942C499.998 330.942 499.536 330.648 499.536 329.962V329.57C499.536 329.024 499.872 328.744 500.558 328.744H502.938V329.654C502.938 330.55 502.378 330.942 501.09 330.942ZM507.827 334.792H509.157L512.209 324.572H510.865L509.059 330.858H508.499L506.805 324.572H505.461L507.631 331.894H508.737L507.827 334.792Z" fill="#646464"/>
<path d="M539.575 332.034C541.367 332.034 542.683 330.718 542.683 328.912V321.842H541.423V328.772C541.423 330.34 540.933 330.9 539.575 330.9C538.091 330.9 537.657 330.424 537.657 328.772H536.355C536.355 330.662 537.699 332.034 539.575 332.034ZM549.411 324.572V329.234C549.411 330.424 548.865 330.942 547.605 330.942C546.429 330.942 545.925 330.452 545.925 329.304V324.572H544.693V329.01C544.693 330.816 545.799 332.034 547.423 332.034C548.249 332.034 549.005 331.628 549.481 330.956V331.894H550.643V324.572H549.411ZM556.249 324.432C555.297 324.432 554.471 324.88 553.911 325.664V324.572H552.749V331.894H553.981V327.246C553.981 326.042 554.541 325.524 555.871 325.524C557.117 325.524 557.663 326.014 557.663 327.176V331.894H558.895V327.316C558.895 325.622 557.775 324.432 556.249 324.432Z" fill="#646464"/>
<path d="M590.689 332.034C592.481 332.034 593.797 330.718 593.797 328.912V321.842H592.537V328.772C592.537 330.34 592.047 330.9 590.689 330.9C589.205 330.9 588.771 330.424 588.771 328.772H587.469C587.469 330.662 588.813 332.034 590.689 332.034ZM600.525 324.572V329.234C600.525 330.424 599.979 330.942 598.719 330.942C597.543 330.942 597.039 330.452 597.039 329.304V324.572H595.807V329.01C595.807 330.816 596.913 332.034 598.537 332.034C599.363 332.034 600.119 331.628 600.595 330.956V331.894H601.757V324.572H600.525ZM603.862 331.894H605.094V321.842H603.862V331.894Z" fill="#646464"/>
<defs>
<filter id="filter0_f_1303_1847" x="175.267" y="16.1758" width="483.42" height="361.779" filterUnits="userSpaceOnUse" color-interpolation-filters="sRGB">
<feFlood flood-opacity="0" result="BackgroundImageFix"/>
<feBlend mode="normal" in="SourceGraphic" in2="BackgroundImageFix" result="shape"/>
<feGaussianBlur stdDeviation="10" result="effect1_foregroundBlur_1303_1847"/>
</filter>
</defs>
</svg>
