<svg width="677" height="551" viewBox="0 0 677 551" fill="none" xmlns="http://www.w3.org/2000/svg">
<rect x="288.854" y="33.9443" width="370.02" height="293.056" rx="8" fill="white"/>
<path d="M323.338 74.1243C325.84 74.1243 327.856 72.3603 327.856 70.1463C327.856 68.2203 326.65 67.1223 324.13 66.7443L323.266 66.6183C321.232 66.3123 320.674 65.9163 320.674 64.8003V64.1883C320.674 62.9103 321.466 62.2983 323.122 62.2983C325.048 62.2983 325.714 62.9103 325.786 64.7643H327.676C327.352 62.3703 325.588 60.8403 323.122 60.8403C320.872 60.8403 318.982 62.5323 318.982 64.5663C318.982 66.4023 320.404 67.8063 322.654 68.1303L323.518 68.2563C325.714 68.5803 326.164 68.8683 326.164 69.9123V70.6323C326.164 72.0183 325.246 72.6663 323.338 72.6663C321.232 72.6663 320.512 72.0183 320.422 70.0203H318.532C318.838 72.4863 320.746 74.1243 323.338 74.1243ZM333.653 64.3503C331.655 64.3503 330.089 65.7723 329.783 67.7163H331.403C331.475 66.2763 331.961 65.7543 333.599 65.7543C335.165 65.7543 335.633 66.2943 335.633 67.7163V68.5623H333.023C330.989 68.5623 329.549 69.6603 329.549 71.2083C329.549 72.8283 331.043 74.1243 332.933 74.1243C334.157 74.1243 335.147 73.6743 335.723 72.8823V73.9443H337.217V67.8063C337.217 65.7363 335.795 64.3503 333.653 64.3503ZM333.257 72.7203C331.853 72.7203 331.259 72.3423 331.259 71.4603V70.9563C331.259 70.2543 331.691 69.8943 332.573 69.8943H335.633V71.0643C335.633 72.2163 334.913 72.7203 333.257 72.7203ZM339.775 73.9443H341.359V61.0203H339.775V73.9443ZM352.146 69.7143V69.0483C352.146 66.4023 350.292 64.3503 347.916 64.3503C345.36 64.3503 343.434 66.5823 343.434 69.4263C343.434 72.1803 345.342 74.1243 347.916 74.1243C349.68 74.1243 351.48 72.8283 352.11 71.0463H350.274C350.13 72.2163 349.428 72.7203 347.916 72.7203C346.008 72.7203 345.198 71.9643 345.198 70.1283V69.7143H352.146ZM347.934 65.7543C349.716 65.7543 350.382 66.4563 350.382 68.1483V68.3823H345.198V68.1843C345.198 66.4923 346.062 65.7543 347.934 65.7543ZM357.662 74.1243C359.768 74.1243 361.388 72.7203 361.388 71.1363C361.388 69.7143 360.38 68.7423 358.67 68.5623L356.942 68.3823C356.006 68.2923 355.61 67.9683 355.61 67.3023V66.9423C355.61 66.1143 356.204 65.7543 357.572 65.7543C359.03 65.7543 359.552 66.1503 359.606 67.3383H361.28C361.046 65.4663 359.444 64.3503 357.536 64.3503C355.646 64.3503 354.008 65.7363 354.008 67.2843C354.008 68.7243 354.944 69.6783 356.636 69.8583L358.4 70.0383C359.39 70.1463 359.804 70.4343 359.804 71.1003V71.4963C359.804 72.3243 359.138 72.7203 357.626 72.7203C356.006 72.7203 355.43 72.3423 355.358 71.1363H353.684C353.882 72.9003 355.484 74.1243 357.662 74.1243ZM363.525 76.4103H364.947L365.739 73.7643V71.5683H363.957V73.7643L363.525 76.4103ZM378.673 64.5303V70.5243C378.673 72.0543 377.971 72.7203 376.351 72.7203C374.839 72.7203 374.191 72.0903 374.191 70.6143V64.5303H372.607V70.2363C372.607 72.5583 374.029 74.1243 376.117 74.1243C377.179 74.1243 378.151 73.6023 378.763 72.7383V73.9443H380.257V64.5303H378.673ZM387.464 64.3503C386.24 64.3503 385.178 64.9263 384.458 65.9343V64.5303H382.964V73.9443H384.548V67.9683C384.548 66.4203 385.268 65.7543 386.978 65.7543C388.58 65.7543 389.282 66.3843 389.282 67.8783V73.9443H390.866V68.0583C390.866 65.8803 389.426 64.3503 387.464 64.3503ZM394.215 63.3603C394.899 63.3603 395.421 62.8383 395.421 62.1363C395.421 61.4163 394.899 60.9123 394.215 60.9123C393.513 60.9123 392.991 61.4163 392.991 62.1363C392.991 62.8383 393.513 63.3603 394.215 63.3603ZM393.423 73.9443H395.007V64.5303H393.423V73.9443ZM401.528 74.0343H402.788V72.6123H401.348C400.628 72.6123 400.268 72.2523 400.268 71.5323V65.8623H402.968V64.5303H400.268V61.0203H398.684V64.5303H396.632V65.8623H398.684V71.3523C398.684 72.9543 399.818 74.0343 401.528 74.0343ZM408.48 74.1243C410.586 74.1243 412.206 72.7203 412.206 71.1363C412.206 69.7143 411.198 68.7423 409.488 68.5623L407.76 68.3823C406.824 68.2923 406.428 67.9683 406.428 67.3023V66.9423C406.428 66.1143 407.022 65.7543 408.39 65.7543C409.848 65.7543 410.37 66.1503 410.424 67.3383H412.098C411.864 65.4663 410.262 64.3503 408.354 64.3503C406.464 64.3503 404.826 65.7363 404.826 67.2843C404.826 68.7243 405.762 69.6783 407.454 69.8583L409.218 70.0383C410.208 70.1463 410.622 70.4343 410.622 71.1003V71.4963C410.622 72.3243 409.956 72.7203 408.444 72.7203C406.824 72.7203 406.248 72.3423 406.176 71.1363H404.502C404.7 72.9003 406.302 74.1243 408.48 74.1243ZM324.004 92.2663V93.7063H327.586C327.532 96.1723 326.146 97.6663 323.896 97.6663C321.574 97.6663 320.206 96.1363 320.206 93.5623V91.4203C320.206 88.6663 321.43 87.2983 323.878 87.2983C326.002 87.2983 327.136 88.3063 327.208 90.1063H329.098C328.684 87.6943 326.434 85.8403 323.878 85.8403C320.764 85.8403 318.37 88.7383 318.37 92.4823C318.37 96.1903 320.764 99.1243 323.806 99.1243C325.498 99.1243 327.01 98.1703 327.748 96.6583V98.9443H329.17V92.2663H324.004ZM333.447 91.2943V89.5303H331.953V98.9443H333.537V93.2023C333.537 91.9243 334.113 91.3483 335.391 91.3483H336.849V89.3503C335.391 89.5303 334.185 90.2143 333.447 91.2943ZM342.167 99.1243C344.687 99.1243 346.631 96.9823 346.631 94.2283C346.631 91.4743 344.687 89.3503 342.167 89.3503C339.647 89.3503 337.703 91.4743 337.703 94.2283C337.703 96.9823 339.647 99.1243 342.167 99.1243ZM342.167 97.7203C340.277 97.7203 339.467 96.8923 339.467 94.9483V93.5083C339.467 91.5823 340.277 90.7543 342.167 90.7543C344.057 90.7543 344.867 91.5823 344.867 93.5083V94.9483C344.867 96.8923 344.057 97.7203 342.167 97.7203ZM352.142 99.1243C354.248 99.1243 355.868 97.7203 355.868 96.1363C355.868 94.7143 354.86 93.7423 353.15 93.5623L351.422 93.3823C350.486 93.2923 350.09 92.9683 350.09 92.3023V91.9423C350.09 91.1143 350.684 90.7543 352.052 90.7543C353.51 90.7543 354.032 91.1503 354.086 92.3383H355.76C355.526 90.4663 353.924 89.3503 352.016 89.3503C350.126 89.3503 348.488 90.7363 348.488 92.2843C348.488 93.7243 349.424 94.6783 351.116 94.8583L352.88 95.0383C353.87 95.1463 354.284 95.4343 354.284 96.1003V96.4963C354.284 97.3243 353.618 97.7203 352.106 97.7203C350.486 97.7203 349.91 97.3423 349.838 96.1363H348.164C348.362 97.9003 349.964 99.1243 352.142 99.1243ZM361.371 99.1243C363.477 99.1243 365.097 97.7203 365.097 96.1363C365.097 94.7143 364.089 93.7423 362.379 93.5623L360.651 93.3823C359.715 93.2923 359.319 92.9683 359.319 92.3023V91.9423C359.319 91.1143 359.913 90.7543 361.281 90.7543C362.739 90.7543 363.261 91.1503 363.315 92.3383H364.989C364.755 90.4663 363.153 89.3503 361.245 89.3503C359.355 89.3503 357.717 90.7363 357.717 92.2843C357.717 93.7243 358.653 94.6783 360.345 94.8583L362.109 95.0383C363.099 95.1463 363.513 95.4343 363.513 96.1003V96.4963C363.513 97.3243 362.847 97.7203 361.335 97.7203C359.715 97.7203 359.139 97.3423 359.067 96.1363H357.393C357.591 97.9003 359.193 99.1243 361.371 99.1243ZM372.945 91.2943V89.5303H371.451V98.9443H373.035V93.2023C373.035 91.9243 373.611 91.3483 374.889 91.3483H376.347V89.3503C374.889 89.5303 373.683 90.2143 372.945 91.2943ZM385.913 94.7143V94.0483C385.913 91.4023 384.059 89.3503 381.683 89.3503C379.127 89.3503 377.201 91.5823 377.201 94.4263C377.201 97.1803 379.109 99.1243 381.683 99.1243C383.447 99.1243 385.247 97.8283 385.877 96.0463H384.041C383.897 97.2163 383.195 97.7203 381.683 97.7203C379.775 97.7203 378.965 96.9643 378.965 95.1283V94.7143H385.913ZM381.701 90.7543C383.483 90.7543 384.149 91.4563 384.149 93.1483V93.3823H378.965V93.1843C378.965 91.4923 379.829 90.7543 381.701 90.7543ZM389.882 98.9443H392.888L395.552 89.5303H393.824L391.736 97.6123H391.016L388.91 89.5303H387.182L389.882 98.9443ZM405.531 94.7143V94.0483C405.531 91.4023 403.677 89.3503 401.301 89.3503C398.745 89.3503 396.819 91.5823 396.819 94.4263C396.819 97.1803 398.727 99.1243 401.301 99.1243C403.065 99.1243 404.865 97.8283 405.495 96.0463H403.659C403.515 97.2163 402.813 97.7203 401.301 97.7203C399.393 97.7203 398.583 96.9643 398.583 95.1283V94.7143H405.531ZM401.319 90.7543C403.101 90.7543 403.767 91.4563 403.767 93.1483V93.3823H398.583V93.1843C398.583 91.4923 399.447 90.7543 401.319 90.7543ZM412.109 89.3503C410.885 89.3503 409.823 89.9263 409.103 90.9343V89.5303H407.609V98.9443H409.193V92.9683C409.193 91.4203 409.913 90.7543 411.623 90.7543C413.225 90.7543 413.927 91.3843 413.927 92.8783V98.9443H415.511V93.0583C415.511 90.8803 414.071 89.3503 412.109 89.3503ZM423.99 89.5303V95.5243C423.99 97.0543 423.288 97.7203 421.668 97.7203C420.156 97.7203 419.508 97.0903 419.508 95.6143V89.5303H417.924V95.2363C417.924 97.5583 419.346 99.1243 421.434 99.1243C422.496 99.1243 423.468 98.6023 424.08 97.7383V98.9443H425.574V89.5303H423.99ZM436.363 94.7143V94.0483C436.363 91.4023 434.509 89.3503 432.133 89.3503C429.577 89.3503 427.651 91.5823 427.651 94.4263C427.651 97.1803 429.559 99.1243 432.133 99.1243C433.897 99.1243 435.697 97.8283 436.327 96.0463H434.491C434.347 97.2163 433.645 97.7203 432.133 97.7203C430.225 97.7203 429.415 96.9643 429.415 95.1283V94.7143H436.363ZM432.151 90.7543C433.933 90.7543 434.599 91.4563 434.599 93.1483V93.3823H429.415V93.1843C429.415 91.4923 430.279 90.7543 432.151 90.7543ZM323.752 124.124C326.362 124.124 328.558 121.946 328.972 118.976H327.082C327.028 121.424 325.732 122.666 323.752 122.666C321.466 122.666 320.206 121.28 320.206 118.562V116.42C320.206 113.684 321.466 112.298 323.752 112.298C325.732 112.298 327.028 113.54 327.082 115.988H328.972C328.558 113.018 326.362 110.84 323.752 110.84C320.674 110.84 318.37 113.756 318.37 117.482C318.37 121.208 320.674 124.124 323.752 124.124ZM335.487 114.35C334.281 114.35 333.255 114.89 332.535 115.826V111.02H330.951V123.944H332.535V117.968C332.535 116.42 333.255 115.754 334.983 115.754C336.621 115.754 337.305 116.384 337.305 117.878V123.944H338.889V118.058C338.889 115.862 337.485 114.35 335.487 114.35ZM345.009 114.35C343.011 114.35 341.445 115.772 341.139 117.716H342.759C342.831 116.276 343.317 115.754 344.955 115.754C346.521 115.754 346.989 116.294 346.989 117.716V118.562H344.379C342.345 118.562 340.905 119.66 340.905 121.208C340.905 122.828 342.399 124.124 344.289 124.124C345.513 124.124 346.503 123.674 347.079 122.882V123.944H348.573V117.806C348.573 115.736 347.151 114.35 345.009 114.35ZM344.613 122.72C343.209 122.72 342.615 122.342 342.615 121.46V120.956C342.615 120.254 343.047 119.894 343.929 119.894H346.989V121.064C346.989 122.216 346.269 122.72 344.613 122.72ZM352.624 116.294V114.53H351.13V123.944H352.714V118.202C352.714 116.924 353.29 116.348 354.568 116.348H356.026V114.35C354.568 114.53 353.362 115.214 352.624 116.294ZM364.135 114.53V115.862C363.505 114.98 362.317 114.368 361.147 114.368C358.753 114.368 356.971 116.312 356.971 118.94C356.971 121.586 358.771 123.584 361.129 123.584C362.227 123.584 363.235 123.116 364.045 122.216V124.034C364.045 125.798 363.361 126.446 361.489 126.446C359.563 126.446 358.915 125.906 358.897 124.304H357.277C357.313 126.176 359.095 127.85 361.489 127.85C363.955 127.85 365.629 126.194 365.629 124.214V114.53H364.135ZM361.399 122.198C359.527 122.198 358.717 121.388 358.717 119.498V118.382C358.717 116.546 359.527 115.772 361.399 115.772C363.253 115.772 364.045 116.546 364.045 118.382V119.498C364.045 121.388 363.253 122.198 361.399 122.198ZM376.404 119.714V119.048C376.404 116.402 374.55 114.35 372.174 114.35C369.618 114.35 367.692 116.582 367.692 119.426C367.692 122.18 369.6 124.124 372.174 124.124C373.938 124.124 375.738 122.828 376.368 121.046H374.532C374.388 122.216 373.686 122.72 372.174 122.72C370.266 122.72 369.456 121.964 369.456 120.128V119.714H376.404ZM372.192 115.754C373.974 115.754 374.64 116.456 374.64 118.148V118.382H369.456V118.184C369.456 116.492 370.32 115.754 372.192 115.754ZM383.018 114.35C381.884 114.35 380.75 114.944 380.066 115.862V111.02H378.482V123.944H379.976V122.504C380.75 123.548 381.812 124.124 382.946 124.124C385.322 124.124 387.23 121.928 387.23 119.192C387.23 116.582 385.286 114.35 383.018 114.35ZM385.466 119.966C385.466 121.892 384.656 122.72 382.766 122.72C380.876 122.72 380.066 121.892 380.066 119.966V118.526C380.066 116.582 380.876 115.754 382.766 115.754C384.656 115.754 385.466 116.582 385.466 118.526V119.966ZM392.856 114.35C390.858 114.35 389.292 115.772 388.986 117.716H390.606C390.678 116.276 391.164 115.754 392.802 115.754C394.368 115.754 394.836 116.294 394.836 117.716V118.562H392.226C390.192 118.562 388.752 119.66 388.752 121.208C388.752 122.828 390.246 124.124 392.136 124.124C393.36 124.124 394.35 123.674 394.926 122.882V123.944H396.42V117.806C396.42 115.736 394.998 114.35 392.856 114.35ZM392.46 122.72C391.056 122.72 390.462 122.342 390.462 121.46V120.956C390.462 120.254 390.894 119.894 391.776 119.894H394.836V121.064C394.836 122.216 394.116 122.72 392.46 122.72ZM402.668 124.124C404.684 124.124 406.466 122.522 406.79 120.416H405.098C404.99 122.072 404.288 122.72 402.632 122.72C400.868 122.72 400.112 121.892 400.112 119.948V118.508C400.112 116.582 400.868 115.754 402.632 115.754C404.288 115.754 404.99 116.402 405.098 118.058H406.79C406.466 115.952 404.684 114.35 402.668 114.35C400.22 114.35 398.348 116.474 398.348 119.228C398.348 121.982 400.238 124.124 402.668 124.124ZM408.857 123.944H410.441V119.894H411.701L414.599 123.944H416.615L412.997 119.156L416.615 114.53H414.743L411.701 118.562H410.441V111.02H408.857V123.944ZM421.717 124.124C423.823 124.124 425.443 122.72 425.443 121.136C425.443 119.714 424.435 118.742 422.725 118.562L420.997 118.382C420.061 118.292 419.665 117.968 419.665 117.302V116.942C419.665 116.114 420.259 115.754 421.627 115.754C423.085 115.754 423.607 116.15 423.661 117.338H425.335C425.101 115.466 423.499 114.35 421.591 114.35C419.701 114.35 418.063 115.736 418.063 117.284C418.063 118.724 418.999 119.678 420.691 119.858L422.455 120.038C423.445 120.146 423.859 120.434 423.859 121.1V121.496C423.859 122.324 423.193 122.72 421.681 122.72C420.061 122.72 419.485 122.342 419.413 121.136H417.739C417.937 122.9 419.539 124.124 421.717 124.124ZM319.036 148.944H320.512V137.46H321.322L325.606 148.944H328.738V136.02H327.244V147.504H326.596L322.312 136.02H319.036V148.944ZM339.648 144.714V144.048C339.648 141.402 337.794 139.35 335.418 139.35C332.862 139.35 330.936 141.582 330.936 144.426C330.936 147.18 332.844 149.124 335.418 149.124C337.182 149.124 338.982 147.828 339.612 146.046H337.776C337.632 147.216 336.93 147.72 335.418 147.72C333.51 147.72 332.7 146.964 332.7 145.128V144.714H339.648ZM335.436 140.754C337.218 140.754 337.884 141.456 337.884 143.148V143.382H332.7V143.184C332.7 141.492 333.564 140.754 335.436 140.754ZM345.366 149.034H346.626V147.612H345.186C344.466 147.612 344.106 147.252 344.106 146.532V140.862H346.806V139.53H344.106V136.02H342.522V139.53H340.47V140.862H342.522V146.352C342.522 147.954 343.656 149.034 345.366 149.034ZM354.663 141.294V139.53H353.169V148.944H354.753V143.202C354.753 141.924 355.329 141.348 356.607 141.348H358.065V139.35C356.607 139.53 355.401 140.214 354.663 141.294ZM367.632 144.714V144.048C367.632 141.402 365.778 139.35 363.402 139.35C360.846 139.35 358.92 141.582 358.92 144.426C358.92 147.18 360.828 149.124 363.402 149.124C365.166 149.124 366.966 147.828 367.596 146.046H365.76C365.616 147.216 364.914 147.72 363.402 147.72C361.494 147.72 360.684 146.964 360.684 145.128V144.714H367.632ZM363.42 140.754C365.202 140.754 365.868 141.456 365.868 143.148V143.382H360.684V143.184C360.684 141.492 361.548 140.754 363.42 140.754ZM371.6 148.944H374.606L377.27 139.53H375.542L373.454 147.612H372.734L370.628 139.53H368.9L371.6 148.944ZM387.249 144.714V144.048C387.249 141.402 385.395 139.35 383.019 139.35C380.463 139.35 378.537 141.582 378.537 144.426C378.537 147.18 380.445 149.124 383.019 149.124C384.783 149.124 386.583 147.828 387.213 146.046H385.377C385.233 147.216 384.531 147.72 383.019 147.72C381.111 147.72 380.301 146.964 380.301 145.128V144.714H387.249ZM383.037 140.754C384.819 140.754 385.485 141.456 385.485 143.148V143.382H380.301V143.184C380.301 141.492 381.165 140.754 383.037 140.754ZM393.828 139.35C392.604 139.35 391.542 139.926 390.822 140.934V139.53H389.328V148.944H390.912V142.968C390.912 141.42 391.632 140.754 393.342 140.754C394.944 140.754 395.646 141.384 395.646 142.878V148.944H397.23V143.058C397.23 140.88 395.79 139.35 393.828 139.35ZM405.709 139.53V145.524C405.709 147.054 405.007 147.72 403.387 147.72C401.875 147.72 401.227 147.09 401.227 145.614V139.53H399.643V145.236C399.643 147.558 401.065 149.124 403.153 149.124C404.215 149.124 405.187 148.602 405.799 147.738V148.944H407.293V139.53H405.709ZM418.081 144.714V144.048C418.081 141.402 416.227 139.35 413.851 139.35C411.295 139.35 409.369 141.582 409.369 144.426C409.369 147.18 411.277 149.124 413.851 149.124C415.615 149.124 417.415 147.828 418.045 146.046H416.209C416.065 147.216 415.363 147.72 413.851 147.72C411.943 147.72 411.133 146.964 411.133 145.128V144.714H418.081ZM413.869 140.754C415.651 140.754 416.317 141.456 416.317 143.148V143.382H411.133V143.184C411.133 141.492 411.997 140.754 413.869 140.754ZM322.006 173.944H325.012L328.504 161.02H326.848L323.932 172.504H323.212L320.278 161.02H318.55L322.006 173.944ZM333.513 164.35C331.515 164.35 329.949 165.772 329.643 167.716H331.263C331.335 166.276 331.821 165.754 333.459 165.754C335.025 165.754 335.493 166.294 335.493 167.716V168.562H332.883C330.849 168.562 329.409 169.66 329.409 171.208C329.409 172.828 330.903 174.124 332.793 174.124C334.017 174.124 335.007 173.674 335.583 172.882V173.944H337.077V167.806C337.077 165.736 335.655 164.35 333.513 164.35ZM333.117 172.72C331.713 172.72 331.119 172.342 331.119 171.46V170.956C331.119 170.254 331.551 169.894 332.433 169.894H335.493V171.064C335.493 172.216 334.773 172.72 333.117 172.72ZM341.128 166.294V164.53H339.634V173.944H341.218V168.202C341.218 166.924 341.794 166.348 343.072 166.348H344.53V164.35C343.072 164.53 341.866 165.214 341.128 166.294ZM347.071 163.36C347.755 163.36 348.277 162.838 348.277 162.136C348.277 161.416 347.755 160.912 347.071 160.912C346.369 160.912 345.847 161.416 345.847 162.136C345.847 162.838 346.369 163.36 347.071 163.36ZM346.279 173.944H347.863V164.53H346.279V173.944ZM354.132 164.35C352.134 164.35 350.568 165.772 350.262 167.716H351.882C351.954 166.276 352.44 165.754 354.078 165.754C355.644 165.754 356.112 166.294 356.112 167.716V168.562H353.502C351.468 168.562 350.028 169.66 350.028 171.208C350.028 172.828 351.522 174.124 353.412 174.124C354.636 174.124 355.626 173.674 356.202 172.882V173.944H357.696V167.806C357.696 165.736 356.274 164.35 354.132 164.35ZM353.736 172.72C352.332 172.72 351.738 172.342 351.738 171.46V170.956C351.738 170.254 352.17 169.894 353.052 169.894H356.112V171.064C356.112 172.216 355.392 172.72 353.736 172.72ZM364.789 164.35C363.655 164.35 362.521 164.944 361.837 165.862V161.02H360.253V173.944H361.747V172.504C362.521 173.548 363.583 174.124 364.717 174.124C367.093 174.124 369.001 171.928 369.001 169.192C369.001 166.582 367.057 164.35 364.789 164.35ZM367.237 169.966C367.237 171.892 366.427 172.72 364.537 172.72C362.647 172.72 361.837 171.892 361.837 169.966V168.526C361.837 166.582 362.647 165.754 364.537 165.754C366.427 165.754 367.237 166.582 367.237 168.526V169.966ZM371.064 173.944H372.648V161.02H371.064V173.944ZM383.435 169.714V169.048C383.435 166.402 381.581 164.35 379.205 164.35C376.649 164.35 374.723 166.582 374.723 169.426C374.723 172.18 376.631 174.124 379.205 174.124C380.969 174.124 382.769 172.828 383.399 171.046H381.563C381.419 172.216 380.717 172.72 379.205 172.72C377.297 172.72 376.487 171.964 376.487 170.128V169.714H383.435ZM379.223 165.754C381.005 165.754 381.671 166.456 381.671 168.148V168.382H376.487V168.184C376.487 166.492 377.351 165.754 379.223 165.754ZM393.492 174.124C395.508 174.124 397.29 172.522 397.614 170.416H395.922C395.814 172.072 395.112 172.72 393.456 172.72C391.692 172.72 390.936 171.892 390.936 169.948V168.508C390.936 166.582 391.692 165.754 393.456 165.754C395.112 165.754 395.814 166.402 395.922 168.058H397.614C397.29 165.952 395.508 164.35 393.492 164.35C391.044 164.35 389.172 166.474 389.172 169.228C389.172 171.982 391.062 174.124 393.492 174.124ZM403.603 174.124C406.123 174.124 408.067 171.982 408.067 169.228C408.067 166.474 406.123 164.35 403.603 164.35C401.083 164.35 399.139 166.474 399.139 169.228C399.139 171.982 401.083 174.124 403.603 174.124ZM403.603 172.72C401.713 172.72 400.903 171.892 400.903 169.948V168.508C400.903 166.582 401.713 165.754 403.603 165.754C405.493 165.754 406.303 166.582 406.303 168.508V169.948C406.303 171.892 405.493 172.72 403.603 172.72ZM413.578 174.124C415.684 174.124 417.304 172.72 417.304 171.136C417.304 169.714 416.296 168.742 414.586 168.562L412.858 168.382C411.922 168.292 411.526 167.968 411.526 167.302V166.942C411.526 166.114 412.12 165.754 413.488 165.754C414.946 165.754 415.468 166.15 415.522 167.338H417.196C416.962 165.466 415.36 164.35 413.452 164.35C411.562 164.35 409.924 165.736 409.924 167.284C409.924 168.724 410.86 169.678 412.552 169.858L414.316 170.038C415.306 170.146 415.72 170.434 415.72 171.1V171.496C415.72 172.324 415.054 172.72 413.542 172.72C411.922 172.72 411.346 172.342 411.274 171.136H409.6C409.798 172.9 411.4 174.124 413.578 174.124ZM423.097 174.034H424.357V172.612H422.917C422.197 172.612 421.837 172.252 421.837 171.532V165.862H424.537V164.53H421.837V161.02H420.253V164.53H418.201V165.862H420.253V171.352C420.253 172.954 421.387 174.034 423.097 174.034ZM430.049 174.124C432.155 174.124 433.775 172.72 433.775 171.136C433.775 169.714 432.767 168.742 431.057 168.562L429.329 168.382C428.393 168.292 427.997 167.968 427.997 167.302V166.942C427.997 166.114 428.591 165.754 429.959 165.754C431.417 165.754 431.939 166.15 431.993 167.338H433.667C433.433 165.466 431.831 164.35 429.923 164.35C428.033 164.35 426.395 165.736 426.395 167.284C426.395 168.724 427.331 169.678 429.023 169.858L430.787 170.038C431.777 170.146 432.191 170.434 432.191 171.1V171.496C432.191 172.324 431.525 172.72 430.013 172.72C428.393 172.72 427.817 172.342 427.745 171.136H426.071C426.269 172.9 427.871 174.124 430.049 174.124ZM323.752 199.124C326.362 199.124 328.558 196.946 328.972 193.976H327.082C327.028 196.424 325.732 197.666 323.752 197.666C321.466 197.666 320.206 196.28 320.206 193.562V191.42C320.206 188.684 321.466 187.298 323.752 187.298C325.732 187.298 327.028 188.54 327.082 190.988H328.972C328.558 188.018 326.362 185.84 323.752 185.84C320.674 185.84 318.37 188.756 318.37 192.482C318.37 196.208 320.674 199.124 323.752 199.124ZM334.785 199.124C337.305 199.124 339.249 196.982 339.249 194.228C339.249 191.474 337.305 189.35 334.785 189.35C332.265 189.35 330.321 191.474 330.321 194.228C330.321 196.982 332.265 199.124 334.785 199.124ZM334.785 197.72C332.895 197.72 332.085 196.892 332.085 194.948V193.508C332.085 191.582 332.895 190.754 334.785 190.754C336.675 190.754 337.485 191.582 337.485 193.508V194.948C337.485 196.892 336.675 197.72 334.785 197.72ZM345.822 189.35C344.598 189.35 343.536 189.926 342.816 190.934V189.53H341.322V198.944H342.906V192.968C342.906 191.42 343.626 190.754 345.336 190.754C346.938 190.754 347.64 191.384 347.64 192.878V198.944H349.224V193.058C349.224 190.88 347.784 189.35 345.822 189.35ZM355.421 199.034H356.681V197.612H355.241C354.521 197.612 354.161 197.252 354.161 196.532V190.862H356.861V189.53H354.161V186.02H352.577V189.53H350.525V190.862H352.577V196.352C352.577 197.954 353.711 199.034 355.421 199.034ZM360.429 191.294V189.53H358.935V198.944H360.519V193.202C360.519 191.924 361.095 191.348 362.373 191.348H363.831V189.35C362.373 189.53 361.167 190.214 360.429 191.294ZM366.371 188.36C367.055 188.36 367.577 187.838 367.577 187.136C367.577 186.416 367.055 185.912 366.371 185.912C365.669 185.912 365.147 186.416 365.147 187.136C365.147 187.838 365.669 188.36 366.371 188.36ZM365.579 198.944H367.163V189.53H365.579V198.944ZM374.405 189.35C373.271 189.35 372.137 189.944 371.453 190.862V186.02H369.869V198.944H371.363V197.504C372.137 198.548 373.199 199.124 374.333 199.124C376.709 199.124 378.617 196.928 378.617 194.192C378.617 191.582 376.673 189.35 374.405 189.35ZM376.853 194.966C376.853 196.892 376.043 197.72 374.153 197.72C372.263 197.72 371.453 196.892 371.453 194.966V193.526C371.453 191.582 372.263 190.754 374.153 190.754C376.043 190.754 376.853 191.582 376.853 193.526V194.966ZM386.601 189.53V195.524C386.601 197.054 385.899 197.72 384.279 197.72C382.767 197.72 382.119 197.09 382.119 195.614V189.53H380.535V195.236C380.535 197.558 381.957 199.124 384.045 199.124C385.107 199.124 386.079 198.602 386.691 197.738V198.944H388.185V189.53H386.601ZM394.708 199.034H395.968V197.612H394.528C393.808 197.612 393.448 197.252 393.448 196.532V190.862H396.148V189.53H393.448V186.02H391.864V189.53H389.812V190.862H391.864V196.352C391.864 197.954 392.998 199.034 394.708 199.034ZM399.014 188.36C399.698 188.36 400.22 187.838 400.22 187.136C400.22 186.416 399.698 185.912 399.014 185.912C398.312 185.912 397.79 186.416 397.79 187.136C397.79 187.838 398.312 188.36 399.014 188.36ZM398.222 198.944H399.806V189.53H398.222V198.944ZM406.345 199.124C408.865 199.124 410.809 196.982 410.809 194.228C410.809 191.474 408.865 189.35 406.345 189.35C403.825 189.35 401.881 191.474 401.881 194.228C401.881 196.982 403.825 199.124 406.345 199.124ZM406.345 197.72C404.455 197.72 403.645 196.892 403.645 194.948V193.508C403.645 191.582 404.455 190.754 406.345 190.754C408.235 190.754 409.045 191.582 409.045 193.508V194.948C409.045 196.892 408.235 197.72 406.345 197.72ZM417.382 189.35C416.158 189.35 415.096 189.926 414.376 190.934V189.53H412.882V198.944H414.466V192.968C414.466 191.42 415.186 190.754 416.896 190.754C418.498 190.754 419.2 191.384 419.2 192.878V198.944H420.784V193.058C420.784 190.88 419.344 189.35 417.382 189.35ZM427.756 198.944H429.232V187.46H430.042L432.742 198.944H435.694L438.43 187.46H439.24V198.944H440.752V186.02H437.206L434.578 197.504H433.93L431.302 186.02H427.756V198.944ZM447.138 189.35C445.14 189.35 443.574 190.772 443.268 192.716H444.888C444.96 191.276 445.446 190.754 447.084 190.754C448.65 190.754 449.118 191.294 449.118 192.716V193.562H446.508C444.474 193.562 443.034 194.66 443.034 196.208C443.034 197.828 444.528 199.124 446.418 199.124C447.642 199.124 448.632 198.674 449.208 197.882V198.944H450.702V192.806C450.702 190.736 449.28 189.35 447.138 189.35ZM446.742 197.72C445.338 197.72 444.744 197.342 444.744 196.46V195.956C444.744 195.254 445.176 194.894 446.058 194.894H449.118V196.064C449.118 197.216 448.398 197.72 446.742 197.72ZM454.753 191.294V189.53H453.259V198.944H454.843V193.202C454.843 191.924 455.419 191.348 456.697 191.348H458.155V189.35C456.697 189.53 455.491 190.214 454.753 191.294ZM466.264 189.53V190.862C465.634 189.98 464.446 189.368 463.276 189.368C460.882 189.368 459.1 191.312 459.1 193.94C459.1 196.586 460.9 198.584 463.258 198.584C464.356 198.584 465.364 198.116 466.174 197.216V199.034C466.174 200.798 465.49 201.446 463.618 201.446C461.692 201.446 461.044 200.906 461.026 199.304H459.406C459.442 201.176 461.224 202.85 463.618 202.85C466.084 202.85 467.758 201.194 467.758 199.214V189.53H466.264ZM463.528 197.198C461.656 197.198 460.846 196.388 460.846 194.498V193.382C460.846 191.546 461.656 190.772 463.528 190.772C465.382 190.772 466.174 191.546 466.174 193.382V194.498C466.174 196.388 465.382 197.198 463.528 197.198ZM471.243 188.36C471.927 188.36 472.449 187.838 472.449 187.136C472.449 186.416 471.927 185.912 471.243 185.912C470.541 185.912 470.019 186.416 470.019 187.136C470.019 187.838 470.541 188.36 471.243 188.36ZM470.451 198.944H472.035V189.53H470.451V198.944ZM479.24 189.35C478.016 189.35 476.954 189.926 476.234 190.934V189.53H474.74V198.944H476.324V192.968C476.324 191.42 477.044 190.754 478.754 190.754C480.356 190.754 481.058 191.384 481.058 192.878V198.944H482.642V193.058C482.642 190.88 481.202 189.35 479.24 189.35ZM323.752 224.124C326.362 224.124 328.558 221.946 328.972 218.976H327.082C327.028 221.424 325.732 222.666 323.752 222.666C321.466 222.666 320.206 221.28 320.206 218.562V216.42C320.206 213.684 321.466 212.298 323.752 212.298C325.732 212.298 327.028 213.54 327.082 215.988H328.972C328.558 213.018 326.362 210.84 323.752 210.84C320.674 210.84 318.37 213.756 318.37 217.482C318.37 221.208 320.674 224.124 323.752 224.124ZM334.785 224.124C337.305 224.124 339.249 221.982 339.249 219.228C339.249 216.474 337.305 214.35 334.785 214.35C332.265 214.35 330.321 216.474 330.321 219.228C330.321 221.982 332.265 224.124 334.785 224.124ZM334.785 222.72C332.895 222.72 332.085 221.892 332.085 219.948V218.508C332.085 216.582 332.895 215.754 334.785 215.754C336.675 215.754 337.485 216.582 337.485 218.508V219.948C337.485 221.892 336.675 222.72 334.785 222.72ZM345.822 214.35C344.598 214.35 343.536 214.926 342.816 215.934V214.53H341.322V223.944H342.906V217.968C342.906 216.42 343.626 215.754 345.336 215.754C346.938 215.754 347.64 216.384 347.64 217.878V223.944H349.224V218.058C349.224 215.88 347.784 214.35 345.822 214.35ZM355.421 224.034H356.681V222.612H355.241C354.521 222.612 354.161 222.252 354.161 221.532V215.862H356.861V214.53H354.161V211.02H352.577V214.53H350.525V215.862H352.577V221.352C352.577 222.954 353.711 224.034 355.421 224.034ZM360.429 216.294V214.53H358.935V223.944H360.519V218.202C360.519 216.924 361.095 216.348 362.373 216.348H363.831V214.35C362.373 214.53 361.167 215.214 360.429 216.294ZM366.371 213.36C367.055 213.36 367.577 212.838 367.577 212.136C367.577 211.416 367.055 210.912 366.371 210.912C365.669 210.912 365.147 211.416 365.147 212.136C365.147 212.838 365.669 213.36 366.371 213.36ZM365.579 223.944H367.163V214.53H365.579V223.944ZM374.405 214.35C373.271 214.35 372.137 214.944 371.453 215.862V211.02H369.869V223.944H371.363V222.504C372.137 223.548 373.199 224.124 374.333 224.124C376.709 224.124 378.617 221.928 378.617 219.192C378.617 216.582 376.673 214.35 374.405 214.35ZM376.853 219.966C376.853 221.892 376.043 222.72 374.153 222.72C372.263 222.72 371.453 221.892 371.453 219.966V218.526C371.453 216.582 372.263 215.754 374.153 215.754C376.043 215.754 376.853 216.582 376.853 218.526V219.966ZM386.601 214.53V220.524C386.601 222.054 385.899 222.72 384.279 222.72C382.767 222.72 382.119 222.09 382.119 220.614V214.53H380.535V220.236C380.535 222.558 381.957 224.124 384.045 224.124C385.107 224.124 386.079 223.602 386.691 222.738V223.944H388.185V214.53H386.601ZM394.708 224.034H395.968V222.612H394.528C393.808 222.612 393.448 222.252 393.448 221.532V215.862H396.148V214.53H393.448V211.02H391.864V214.53H389.812V215.862H391.864V221.352C391.864 222.954 392.998 224.034 394.708 224.034ZM399.014 213.36C399.698 213.36 400.22 212.838 400.22 212.136C400.22 211.416 399.698 210.912 399.014 210.912C398.312 210.912 397.79 211.416 397.79 212.136C397.79 212.838 398.312 213.36 399.014 213.36ZM398.222 223.944H399.806V214.53H398.222V223.944ZM406.345 224.124C408.865 224.124 410.809 221.982 410.809 219.228C410.809 216.474 408.865 214.35 406.345 214.35C403.825 214.35 401.881 216.474 401.881 219.228C401.881 221.982 403.825 224.124 406.345 224.124ZM406.345 222.72C404.455 222.72 403.645 221.892 403.645 219.948V218.508C403.645 216.582 404.455 215.754 406.345 215.754C408.235 215.754 409.045 216.582 409.045 218.508V219.948C409.045 221.892 408.235 222.72 406.345 222.72ZM417.382 214.35C416.158 214.35 415.096 214.926 414.376 215.934V214.53H412.882V223.944H414.466V217.968C414.466 216.42 415.186 215.754 416.896 215.754C418.498 215.754 419.2 216.384 419.2 217.878V223.944H420.784V218.058C420.784 215.88 419.344 214.35 417.382 214.35ZM437.962 214.35C436.684 214.35 435.568 215.016 434.866 216.15C434.38 215.034 433.318 214.35 431.986 214.35C430.834 214.35 429.808 214.926 429.124 215.916V214.53H427.63V223.944H429.214V217.968C429.214 216.42 429.898 215.754 431.518 215.754C432.976 215.754 433.606 216.384 433.606 217.878V223.944H435.19V217.968C435.19 216.42 435.874 215.754 437.494 215.754C438.952 215.754 439.582 216.384 439.582 217.878V223.944H441.166V218.058C441.166 215.862 439.852 214.35 437.962 214.35ZM447.278 214.35C445.28 214.35 443.714 215.772 443.408 217.716H445.028C445.1 216.276 445.586 215.754 447.224 215.754C448.79 215.754 449.258 216.294 449.258 217.716V218.562H446.648C444.614 218.562 443.174 219.66 443.174 221.208C443.174 222.828 444.668 224.124 446.558 224.124C447.782 224.124 448.772 223.674 449.348 222.882V223.944H450.842V217.806C450.842 215.736 449.42 214.35 447.278 214.35ZM446.882 222.72C445.478 222.72 444.884 222.342 444.884 221.46V220.956C444.884 220.254 445.316 219.894 446.198 219.894H449.258V221.064C449.258 222.216 448.538 222.72 446.882 222.72ZM454.894 216.294V214.53H453.4V223.944H454.984V218.202C454.984 216.924 455.56 216.348 456.838 216.348H458.296V214.35C456.838 214.53 455.632 215.214 454.894 216.294ZM466.405 214.53V215.862C465.775 214.98 464.587 214.368 463.417 214.368C461.023 214.368 459.241 216.312 459.241 218.94C459.241 221.586 461.041 223.584 463.399 223.584C464.497 223.584 465.505 223.116 466.315 222.216V224.034C466.315 225.798 465.631 226.446 463.759 226.446C461.833 226.446 461.185 225.906 461.167 224.304H459.547C459.583 226.176 461.365 227.85 463.759 227.85C466.225 227.85 467.899 226.194 467.899 224.214V214.53H466.405ZM463.669 222.198C461.797 222.198 460.987 221.388 460.987 219.498V218.382C460.987 216.546 461.797 215.772 463.669 215.772C465.523 215.772 466.315 216.546 466.315 218.382V219.498C466.315 221.388 465.523 222.198 463.669 222.198ZM471.383 213.36C472.067 213.36 472.589 212.838 472.589 212.136C472.589 211.416 472.067 210.912 471.383 210.912C470.681 210.912 470.159 211.416 470.159 212.136C470.159 212.838 470.681 213.36 471.383 213.36ZM470.591 223.944H472.175V214.53H470.591V223.944ZM479.38 214.35C478.156 214.35 477.094 214.926 476.374 215.934V214.53H474.88V223.944H476.464V217.968C476.464 216.42 477.184 215.754 478.894 215.754C480.496 215.754 481.198 216.384 481.198 217.878V223.944H482.782V218.058C482.782 215.88 481.342 214.35 479.38 214.35ZM488.903 214.35C486.905 214.35 485.339 215.772 485.033 217.716H486.653C486.725 216.276 487.211 215.754 488.849 215.754C490.415 215.754 490.883 216.294 490.883 217.716V218.562H488.273C486.239 218.562 484.799 219.66 484.799 221.208C484.799 222.828 486.293 224.124 488.183 224.124C489.407 224.124 490.397 223.674 490.973 222.882V223.944H492.467V217.806C492.467 215.736 491.045 214.35 488.903 214.35ZM488.507 222.72C487.103 222.72 486.509 222.342 486.509 221.46V220.956C486.509 220.254 486.941 219.894 487.823 219.894H490.883V221.064C490.883 222.216 490.163 222.72 488.507 222.72ZM495.025 223.944H496.609V211.02H495.025V223.944ZM500.106 213.36C500.79 213.36 501.312 212.838 501.312 212.136C501.312 211.416 500.79 210.912 500.106 210.912C499.404 210.912 498.882 211.416 498.882 212.136C498.882 212.838 499.404 213.36 500.106 213.36ZM499.314 223.944H500.898V214.53H499.314V223.944ZM507.419 224.034H508.679V222.612H507.239C506.519 222.612 506.159 222.252 506.159 221.532V215.862H508.859V214.53H506.159V211.02H504.575V214.53H502.523V215.862H504.575V221.352C504.575 222.954 505.709 224.034 507.419 224.034ZM513.165 227.67H514.875L518.799 214.53H517.071L514.749 222.612H514.029L511.851 214.53H510.123L512.913 223.944H514.335L513.165 227.67ZM325.966 248.944H327.964L324.184 243.634C325.984 243.076 327.226 241.654 327.226 239.944C327.226 237.748 325.336 236.02 322.924 236.02H319.036V248.944H320.656V243.868H322.546L325.966 248.944ZM320.656 237.46H322.978C324.616 237.46 325.462 238.126 325.462 239.422V240.466C325.462 241.762 324.616 242.428 322.978 242.428H320.656V237.46ZM338.762 245.848L341.048 242.41H339.248L337.502 245.11H337.142L334.982 242.626C336.404 242.032 337.61 240.682 337.61 239.152C337.61 237.406 336.188 235.84 334.028 235.84C331.868 235.84 330.374 237.406 330.374 239.152C330.374 240.16 330.788 241.078 331.76 241.834C330.194 242.41 328.826 243.508 328.826 245.344C328.826 247.684 330.806 249.124 332.894 249.124C335.09 249.124 336.224 247.846 337.16 246.622H337.52L339.482 248.944H341.372L338.762 245.848ZM332.084 238.738C332.084 237.766 332.66 237.244 333.992 237.244C335.324 237.244 335.9 237.658 335.9 238.63V239.674C335.9 240.592 335.432 241.15 334.262 241.492H333.542C332.516 241.15 332.084 240.592 332.084 239.674V238.738ZM332.894 247.72C331.364 247.72 330.536 247.216 330.536 246.046V244.642C330.536 243.742 331.148 243.166 332.534 242.896H333.254L335.954 245.956C335.108 247.234 334.28 247.72 332.894 247.72ZM343.241 248.944H347.273C350.387 248.944 352.817 246.1 352.817 242.482C352.817 238.864 350.387 236.02 347.273 236.02H343.241V248.944ZM344.861 247.504V237.46H347.255C349.523 237.46 350.981 239.008 350.981 241.42V243.562C350.981 245.956 349.523 247.504 347.255 247.504H344.861ZM367.351 244.714V244.048C367.351 241.402 365.497 239.35 363.121 239.35C360.565 239.35 358.639 241.582 358.639 244.426C358.639 247.18 360.547 249.124 363.121 249.124C364.885 249.124 366.685 247.828 367.315 246.046H365.479C365.335 247.216 364.633 247.72 363.121 247.72C361.213 247.72 360.403 246.964 360.403 245.128V244.714H367.351ZM363.139 240.754C364.921 240.754 365.587 241.456 365.587 243.148V243.382H360.403V243.184C360.403 241.492 361.267 240.754 363.139 240.754ZM368.747 248.944H370.547L372.563 244.894H373.283L375.335 248.944H377.117L374.543 244.228L377.117 239.53H375.317L373.283 243.562H372.563L370.529 239.53H368.747L371.303 244.228L368.747 248.944ZM383.756 239.35C382.568 239.35 381.38 240.016 380.714 240.988V239.53H379.22V252.67H380.804V247.63C381.56 248.584 382.586 249.124 383.684 249.124C386.06 249.124 387.968 246.928 387.968 244.192C387.968 241.582 386.024 239.35 383.756 239.35ZM386.204 244.966C386.204 246.892 385.394 247.72 383.504 247.72C381.614 247.72 380.804 246.892 380.804 244.966V243.526C380.804 241.582 381.614 240.754 383.504 240.754C385.394 240.754 386.204 241.582 386.204 243.526V244.966ZM398.201 244.714V244.048C398.201 241.402 396.347 239.35 393.971 239.35C391.415 239.35 389.489 241.582 389.489 244.426C389.489 247.18 391.397 249.124 393.971 249.124C395.735 249.124 397.535 247.828 398.165 246.046H396.329C396.185 247.216 395.483 247.72 393.971 247.72C392.063 247.72 391.253 246.964 391.253 245.128V244.714H398.201ZM393.989 240.754C395.771 240.754 396.437 241.456 396.437 243.148V243.382H391.253V243.184C391.253 241.492 392.117 240.754 393.989 240.754ZM404.779 239.35C403.555 239.35 402.493 239.926 401.773 240.934V239.53H400.279V248.944H401.863V242.968C401.863 241.42 402.583 240.754 404.293 240.754C405.895 240.754 406.597 241.384 406.597 242.878V248.944H408.181V243.058C408.181 240.88 406.741 239.35 404.779 239.35ZM414.428 249.124C416.444 249.124 418.226 247.522 418.55 245.416H416.858C416.75 247.072 416.048 247.72 414.392 247.72C412.628 247.72 411.872 246.892 411.872 244.948V243.508C411.872 241.582 412.628 240.754 414.392 240.754C416.048 240.754 416.75 241.402 416.858 243.058H418.55C418.226 240.952 416.444 239.35 414.428 239.35C411.98 239.35 410.108 241.474 410.108 244.228C410.108 246.982 411.998 249.124 414.428 249.124ZM428.786 244.714V244.048C428.786 241.402 426.932 239.35 424.556 239.35C422 239.35 420.074 241.582 420.074 244.426C420.074 247.18 421.982 249.124 424.556 249.124C426.32 249.124 428.12 247.828 428.75 246.046H426.914C426.77 247.216 426.068 247.72 424.556 247.72C422.648 247.72 421.838 246.964 421.838 245.128V244.714H428.786ZM424.574 240.754C426.356 240.754 427.022 241.456 427.022 243.148V243.382H421.838V243.184C421.838 241.492 422.702 240.754 424.574 240.754ZM434.303 249.124C436.409 249.124 438.029 247.72 438.029 246.136C438.029 244.714 437.021 243.742 435.311 243.562L433.583 243.382C432.647 243.292 432.251 242.968 432.251 242.302V241.942C432.251 241.114 432.845 240.754 434.213 240.754C435.671 240.754 436.193 241.15 436.247 242.338H437.921C437.687 240.466 436.085 239.35 434.177 239.35C432.287 239.35 430.649 240.736 430.649 242.284C430.649 243.724 431.585 244.678 433.277 244.858L435.041 245.038C436.031 245.146 436.445 245.434 436.445 246.1V246.496C436.445 247.324 435.779 247.72 434.267 247.72C432.647 247.72 432.071 247.342 431.999 246.136H430.325C430.523 247.9 432.125 249.124 434.303 249.124ZM319.036 273.944H320.512V262.46H321.322L324.022 273.944H326.974L329.71 262.46H330.52V273.944H332.032V261.02H328.486L325.858 272.504H325.21L322.582 261.02H319.036V273.944ZM338.417 264.35C336.419 264.35 334.853 265.772 334.547 267.716H336.167C336.239 266.276 336.725 265.754 338.363 265.754C339.929 265.754 340.397 266.294 340.397 267.716V268.562H337.787C335.753 268.562 334.313 269.66 334.313 271.208C334.313 272.828 335.807 274.124 337.697 274.124C338.921 274.124 339.911 273.674 340.487 272.882V273.944H341.981V267.806C341.981 265.736 340.559 264.35 338.417 264.35ZM338.021 272.72C336.617 272.72 336.023 272.342 336.023 271.46V270.956C336.023 270.254 336.455 269.894 337.337 269.894H340.397V271.064C340.397 272.216 339.677 272.72 338.021 272.72ZM346.032 266.294V264.53H344.538V273.944H346.122V268.202C346.122 266.924 346.698 266.348 347.976 266.348H349.434V264.35C347.976 264.53 346.77 265.214 346.032 266.294ZM351.183 273.944H352.767V269.894H354.027L356.925 273.944H358.941L355.323 269.156L358.941 264.53H357.069L354.027 268.562H352.767V261.02H351.183V273.944ZM368.687 269.714V269.048C368.687 266.402 366.833 264.35 364.457 264.35C361.901 264.35 359.975 266.582 359.975 269.426C359.975 272.18 361.883 274.124 364.457 274.124C366.221 274.124 368.021 272.828 368.651 271.046H366.815C366.671 272.216 365.969 272.72 364.457 272.72C362.549 272.72 361.739 271.964 361.739 270.128V269.714H368.687ZM364.475 265.754C366.257 265.754 366.923 266.456 366.923 268.148V268.382H361.739V268.184C361.739 266.492 362.603 265.754 364.475 265.754ZM374.405 274.034H375.665V272.612H374.225C373.505 272.612 373.145 272.252 373.145 271.532V265.862H375.845V264.53H373.145V261.02H371.561V264.53H369.509V265.862H371.561V271.352C371.561 272.954 372.695 274.034 374.405 274.034ZM378.711 263.36C379.395 263.36 379.917 262.838 379.917 262.136C379.917 261.416 379.395 260.912 378.711 260.912C378.009 260.912 377.487 261.416 377.487 262.136C377.487 262.838 378.009 263.36 378.711 263.36ZM377.919 273.944H379.503V264.53H377.919V273.944ZM386.708 264.35C385.484 264.35 384.422 264.926 383.702 265.934V264.53H382.208V273.944H383.792V267.968C383.792 266.42 384.512 265.754 386.222 265.754C387.824 265.754 388.526 266.384 388.526 267.878V273.944H390.11V268.058C390.11 265.88 388.67 264.35 386.708 264.35ZM399.291 264.53V265.862C398.661 264.98 397.473 264.368 396.303 264.368C393.909 264.368 392.127 266.312 392.127 268.94C392.127 271.586 393.927 273.584 396.285 273.584C397.383 273.584 398.391 273.116 399.201 272.216V274.034C399.201 275.798 398.517 276.446 396.645 276.446C394.719 276.446 394.071 275.906 394.053 274.304H392.433C392.469 276.176 394.251 277.85 396.645 277.85C399.111 277.85 400.785 276.194 400.785 274.214V264.53H399.291ZM396.555 272.198C394.683 272.198 393.873 271.388 393.873 269.498V268.382C393.873 266.546 394.683 265.772 396.555 265.772C398.409 265.772 399.201 266.546 399.201 268.382V269.498C399.201 271.388 398.409 272.198 396.555 272.198ZM417.073 270.848L419.359 267.41H417.559L415.813 270.11H415.453L413.293 267.626C414.715 267.032 415.921 265.682 415.921 264.152C415.921 262.406 414.499 260.84 412.339 260.84C410.179 260.84 408.685 262.406 408.685 264.152C408.685 265.16 409.099 266.078 410.071 266.834C408.505 267.41 407.137 268.508 407.137 270.344C407.137 272.684 409.117 274.124 411.205 274.124C413.401 274.124 414.535 272.846 415.471 271.622H415.831L417.793 273.944H419.683L417.073 270.848ZM410.395 263.738C410.395 262.766 410.971 262.244 412.303 262.244C413.635 262.244 414.211 262.658 414.211 263.63V264.674C414.211 265.592 413.743 266.15 412.573 266.492H411.853C410.827 266.15 410.395 265.592 410.395 264.674V263.738ZM411.205 272.72C409.675 272.72 408.847 272.216 408.847 271.046V269.642C408.847 268.742 409.459 268.166 410.845 267.896H411.565L414.265 270.956C413.419 272.234 412.591 272.72 411.205 272.72ZM430.142 274.124C432.644 274.124 434.66 272.36 434.66 270.146C434.66 268.22 433.454 267.122 430.934 266.744L430.07 266.618C428.036 266.312 427.478 265.916 427.478 264.8V264.188C427.478 262.91 428.27 262.298 429.926 262.298C431.852 262.298 432.518 262.91 432.59 264.764H434.48C434.156 262.37 432.392 260.84 429.926 260.84C427.676 260.84 425.786 262.532 425.786 264.566C425.786 266.402 427.208 267.806 429.458 268.13L430.322 268.256C432.518 268.58 432.968 268.868 432.968 269.912V270.632C432.968 272.018 432.05 272.666 430.142 272.666C428.036 272.666 427.316 272.018 427.226 270.02H425.336C425.642 272.486 427.55 274.124 430.142 274.124ZM440.458 264.35C438.46 264.35 436.894 265.772 436.588 267.716H438.208C438.28 266.276 438.766 265.754 440.404 265.754C441.97 265.754 442.438 266.294 442.438 267.716V268.562H439.828C437.794 268.562 436.354 269.66 436.354 271.208C436.354 272.828 437.848 274.124 439.738 274.124C440.962 274.124 441.952 273.674 442.528 272.882V273.944H444.022V267.806C444.022 265.736 442.6 264.35 440.458 264.35ZM440.062 272.72C438.658 272.72 438.064 272.342 438.064 271.46V270.956C438.064 270.254 438.496 269.894 439.378 269.894H442.438V271.064C442.438 272.216 441.718 272.72 440.062 272.72ZM446.579 273.944H448.163V261.02H446.579V273.944ZM458.951 269.714V269.048C458.951 266.402 457.097 264.35 454.721 264.35C452.165 264.35 450.239 266.582 450.239 269.426C450.239 272.18 452.147 274.124 454.721 274.124C456.485 274.124 458.285 272.828 458.915 271.046H457.079C456.935 272.216 456.233 272.72 454.721 272.72C452.813 272.72 452.003 271.964 452.003 270.128V269.714H458.951ZM454.739 265.754C456.521 265.754 457.187 266.456 457.187 268.148V268.382H452.003V268.184C452.003 266.492 452.867 265.754 454.739 265.754ZM464.467 274.124C466.573 274.124 468.193 272.72 468.193 271.136C468.193 269.714 467.185 268.742 465.475 268.562L463.747 268.382C462.811 268.292 462.415 267.968 462.415 267.302V266.942C462.415 266.114 463.009 265.754 464.377 265.754C465.835 265.754 466.357 266.15 466.411 267.338H468.085C467.851 265.466 466.249 264.35 464.341 264.35C462.451 264.35 460.813 265.736 460.813 267.284C460.813 268.724 461.749 269.678 463.441 269.858L465.205 270.038C466.195 270.146 466.609 270.434 466.609 271.1V271.496C466.609 272.324 465.943 272.72 464.431 272.72C462.811 272.72 462.235 272.342 462.163 271.136H460.489C460.687 272.9 462.289 274.124 464.467 274.124ZM319.036 298.944H326.434V297.504H320.656V292.986H325.768V291.546H320.656V287.46H326.308V286.02H319.036V298.944ZM335.073 292.23C336.315 291.672 337.143 290.592 337.143 289.44C337.143 287.514 335.361 286.02 333.075 286.02H328.809V298.944H333.255C335.631 298.944 337.557 297.306 337.557 295.254C337.557 293.94 336.567 292.752 335.073 292.23ZM333.093 287.46C334.443 287.46 335.397 288.126 335.397 289.08V289.926C335.397 290.88 334.443 291.546 333.093 291.546H330.429V287.46H333.093ZM335.811 295.722C335.811 296.748 334.767 297.504 333.309 297.504H330.429V292.986H333.309C334.767 292.986 335.811 293.742 335.811 294.768V295.722ZM340.112 298.944H341.732V286.02H340.112V298.944ZM347.328 298.944H348.948V287.496H352.71V286.02H343.566V287.496H347.328V298.944ZM354.543 298.944H358.575C361.689 298.944 364.119 296.1 364.119 292.482C364.119 288.864 361.689 286.02 358.575 286.02H354.543V298.944ZM356.163 297.504V287.46H358.557C360.825 287.46 362.283 289.008 362.283 291.42V293.562C362.283 295.956 360.825 297.504 358.557 297.504H356.163ZM374.067 298.944H375.795L372.015 286.02H369.135L365.301 298.944H366.957L368.055 294.966H372.951L374.067 298.944ZM368.469 293.526L370.143 287.46H370.863L372.555 293.526H368.469Z" fill="black"/>
<path d="M542.682 67.2123C543.888 66.6363 544.608 65.6643 544.608 64.4583C544.608 62.6223 543.078 60.8403 540.54 60.8403C538.326 60.8403 536.616 62.4423 536.4 64.4583H538.092C538.092 62.9103 538.65 62.2443 540.54 62.2443C542.196 62.2443 542.898 62.7663 542.898 64.0083V64.9083C542.898 66.0963 542.196 66.6363 540.558 66.6363H538.47V67.9683H540.612C542.52 67.9683 543.33 68.5623 543.33 69.8763V70.7763C543.33 72.1083 542.502 72.7023 540.576 72.7023C538.398 72.7023 537.768 71.9823 537.768 70.3263H536.04C536.22 72.5403 537.93 74.1243 540.576 74.1243C543.186 74.1243 545.04 72.2163 545.04 70.3263C545.04 68.9043 544.122 67.7703 542.682 67.2123ZM554.569 67.2123C555.829 66.6363 556.585 65.6103 556.585 64.3683C556.585 62.3523 554.821 60.8403 552.391 60.8403C549.961 60.8403 548.197 62.3523 548.197 64.3683C548.197 65.6103 548.953 66.6363 550.213 67.2123C548.719 67.7883 547.801 68.9043 547.801 70.3263C547.801 72.5043 549.709 74.1243 552.391 74.1243C555.073 74.1243 556.981 72.5223 556.981 70.3263C556.981 68.9043 556.063 67.7883 554.569 67.2123ZM549.943 64.0443C549.943 62.7843 550.681 62.2443 552.391 62.2443C554.101 62.2443 554.839 62.7843 554.839 64.0443V64.8363C554.839 66.0963 554.101 66.6363 552.391 66.6363C550.681 66.6363 549.943 66.0963 549.943 64.8363V64.0443ZM555.253 70.7403C555.253 72.1083 554.389 72.7023 552.391 72.7023C550.393 72.7023 549.529 72.1083 549.529 70.7403V69.9483C549.529 68.5623 550.393 67.9683 552.391 67.9683C554.389 67.9683 555.253 68.5623 555.253 69.9483V70.7403ZM559.756 76.4103H561.178L561.97 73.7643V71.5683H560.188V73.7643L559.756 76.4103ZM569.212 65.3943C568.942 65.3943 568.672 65.4303 568.42 65.4843L572.236 61.0203H570.238L566.152 65.8443C565.126 67.0683 564.46 68.1663 564.46 69.6963C564.46 72.2523 566.44 74.1243 569.194 74.1243C571.948 74.1243 573.91 72.2523 573.91 69.6963C573.91 67.2303 571.894 65.3943 569.212 65.3943ZM572.2 70.0923C572.2 71.9463 571.318 72.7023 569.194 72.7023C567.07 72.7023 566.188 71.9463 566.188 70.0923V69.3003C566.188 67.4283 567.07 66.6363 569.194 66.6363C571.318 66.6363 572.2 67.4283 572.2 69.3003V70.0923ZM581.095 65.3943C580.825 65.3943 580.555 65.4303 580.303 65.4843L584.119 61.0203H582.121L578.035 65.8443C577.009 67.0683 576.343 68.1663 576.343 69.6963C576.343 72.2523 578.323 74.1243 581.077 74.1243C583.831 74.1243 585.793 72.2523 585.793 69.6963C585.793 67.2303 583.777 65.3943 581.095 65.3943ZM584.083 70.0923C584.083 71.9463 583.201 72.7023 581.077 72.7023C578.953 72.7023 578.071 71.9463 578.071 70.0923V69.3003C578.071 67.4283 578.953 66.6363 581.077 66.6363C583.201 66.6363 584.083 67.4283 584.083 69.3003V70.0923ZM592.59 60.8403C589.89 60.8403 587.964 62.6763 587.964 65.1783C587.964 67.5723 589.944 69.3183 592.626 69.3183C592.914 69.3183 593.22 69.2823 593.49 69.2103L589.53 73.9443H591.51L595.542 68.9403C596.532 67.7163 597.234 66.8163 597.234 65.1783C597.234 62.6763 595.254 60.8403 592.59 60.8403ZM595.524 65.5743C595.524 67.3923 594.66 68.1663 592.644 68.1663C590.574 68.1663 589.674 67.3923 589.674 65.5743V64.8003C589.674 63.0183 590.574 62.2443 592.644 62.2443C594.66 62.2443 595.524 63.0183 595.524 64.8003V65.5743ZM536.796 98.9443H545.274V97.4143H538.38V96.6943L542.34 93.6703C544.122 92.3023 545.022 90.9703 545.022 89.5123C545.022 87.5143 543.456 85.8403 540.882 85.8403C538.488 85.8403 536.814 87.3703 536.454 89.6743H538.164C538.164 87.9823 539.028 87.2443 540.882 87.2443C542.718 87.2443 543.294 87.8563 543.294 89.2963V89.9443C543.294 90.8623 542.61 91.5823 541.152 92.7343L536.796 96.1363V98.9443ZM548.049 101.41H549.471L550.263 98.7643V96.5683H548.481V98.7643L548.049 101.41ZM559.575 92.2123C560.781 91.6363 561.501 90.6643 561.501 89.4583C561.501 87.6223 559.971 85.8403 557.433 85.8403C555.219 85.8403 553.509 87.4423 553.293 89.4583H554.985C554.985 87.9103 555.543 87.2443 557.433 87.2443C559.089 87.2443 559.791 87.7663 559.791 89.0083V89.9083C559.791 91.0963 559.089 91.6363 557.451 91.6363H555.363V92.9683H557.505C559.413 92.9683 560.223 93.5623 560.223 94.8763V95.7763C560.223 97.1083 559.395 97.7023 557.469 97.7023C555.291 97.7023 554.661 96.9823 554.661 95.3263H552.933C553.113 97.5403 554.823 99.1243 557.469 99.1243C560.079 99.1243 561.933 97.2163 561.933 95.3263C561.933 93.9043 561.015 92.7703 559.575 92.2123ZM571.282 92.2123C572.488 91.6363 573.208 90.6643 573.208 89.4583C573.208 87.6223 571.678 85.8403 569.14 85.8403C566.926 85.8403 565.216 87.4423 565 89.4583H566.692C566.692 87.9103 567.25 87.2443 569.14 87.2443C570.796 87.2443 571.498 87.7663 571.498 89.0083V89.9083C571.498 91.0963 570.796 91.6363 569.158 91.6363H567.07V92.9683H569.212C571.12 92.9683 571.93 93.5623 571.93 94.8763V95.7763C571.93 97.1083 571.102 97.7023 569.176 97.7023C566.998 97.7023 566.368 96.9823 566.368 95.3263H564.64C564.82 97.5403 566.53 99.1243 569.176 99.1243C571.786 99.1243 573.64 97.2163 573.64 95.3263C573.64 93.9043 572.722 92.7703 571.282 92.2123ZM577.103 98.9443H585.581V97.4143H578.687V96.6943L582.647 93.6703C584.429 92.3023 585.329 90.9703 585.329 89.5123C585.329 87.5143 583.763 85.8403 581.189 85.8403C578.795 85.8403 577.121 87.3703 576.761 89.6743H578.471C578.471 87.9823 579.335 87.2443 581.189 87.2443C583.025 87.2443 583.601 87.8563 583.601 89.2963V89.9443C583.601 90.8623 582.917 91.5823 581.459 92.7343L577.103 96.1363V98.9443ZM588.356 101.41H589.778L590.57 98.7643V96.5683H588.788V98.7643L588.356 101.41ZM598.032 90.3223C596.988 90.3223 595.944 90.7903 595.224 91.5283V87.5503H601.794V86.0203H593.82V93.5443H595.206C595.44 92.2843 596.124 91.7443 597.924 91.7443C599.832 91.7443 600.66 92.4283 600.66 94.0843V95.4343C600.66 97.0723 599.832 97.6843 597.924 97.6843C596.106 97.6843 595.422 97.2883 595.224 95.8843H593.478C593.802 97.8463 595.62 99.1243 597.87 99.1243C600.912 99.1243 602.37 97.1983 602.37 94.7143C602.37 92.3743 600.696 90.3223 598.032 90.3223ZM609.59 99.1243C612.578 99.1243 614.45 96.3703 614.45 92.5003C614.45 88.6123 612.542 85.8403 609.59 85.8403C606.638 85.8403 604.73 88.6123 604.73 92.5003C604.73 96.3703 606.602 99.1243 609.59 99.1243ZM609.59 97.7023C607.43 97.7023 606.512 96.5683 606.512 93.9583V91.0423C606.512 88.3783 607.43 87.2443 609.59 87.2443C611.75 87.2443 612.668 88.3783 612.668 91.0423V93.9583C612.668 96.5683 611.75 97.7023 609.59 97.7023ZM623.111 98.9443H624.695V94.6243H627.035V93.2923H624.695V88.9723H623.111V93.2923H618.809V86.0203H617.225V94.6243H623.111V98.9443ZM535.896 123.944H545.04V122.414H541.26V111.02H536.31V112.55H539.676V122.414H535.896V123.944ZM551.301 124.124C554.289 124.124 556.161 121.37 556.161 117.5C556.161 113.612 554.253 110.84 551.301 110.84C548.349 110.84 546.441 113.612 546.441 117.5C546.441 121.37 548.313 124.124 551.301 124.124ZM551.301 122.702C549.141 122.702 548.223 121.568 548.223 118.958V116.042C548.223 113.378 549.141 112.244 551.301 112.244C553.461 112.244 554.379 113.378 554.379 116.042V118.958C554.379 121.568 553.461 122.702 551.301 122.702ZM559.889 123.944H561.689L566.513 113.18V111.02H557.423V112.55H564.929V113.27L559.889 123.944ZM567.121 126.41H568.543L569.335 123.764V121.568H567.553V123.764L567.121 126.41ZM576.67 123.944H578.254V119.624H580.594V118.292H578.254V113.972H576.67V118.292H572.368V111.02H570.784V119.624H576.67V123.944ZM582.566 123.944H591.71V122.414H587.93V111.02H582.98V112.55H586.346V122.414H582.566V123.944ZM599.258 123.944H600.842V119.624H603.182V118.292H600.842V113.972H599.258V118.292H594.956V111.02H593.372V119.624H599.258V123.944ZM536.796 148.944H545.274V147.414H538.38V146.694L542.34 143.67C544.122 142.302 545.022 140.97 545.022 139.512C545.022 137.514 543.456 135.84 540.882 135.84C538.488 135.84 536.814 137.37 536.454 139.674H538.164C538.164 137.982 539.028 137.244 540.882 137.244C542.718 137.244 543.294 137.856 543.294 139.296V139.944C543.294 140.862 542.61 141.582 541.152 142.734L536.796 146.136V148.944ZM548.049 151.41H549.471L550.263 148.764V146.568H548.481V148.764L548.049 151.41ZM553.689 148.944H562.167V147.414H555.273V146.694L559.233 143.67C561.015 142.302 561.915 140.97 561.915 139.512C561.915 137.514 560.349 135.84 557.775 135.84C555.381 135.84 553.707 137.37 553.347 139.674H555.057C555.057 137.982 555.921 137.244 557.775 137.244C559.611 137.244 560.187 137.856 560.187 139.296V139.944C560.187 140.862 559.503 141.582 558.045 142.734L553.689 146.136V148.944ZM564.672 148.944H573.816V147.414H570.036V136.02H565.086V137.55H568.452V147.414H564.672V148.944ZM580.401 140.322C579.357 140.322 578.313 140.79 577.593 141.528V137.55H584.163V136.02H576.189V143.544H577.575C577.809 142.284 578.493 141.744 580.293 141.744C582.201 141.744 583.029 142.428 583.029 144.084V145.434C583.029 147.072 582.201 147.684 580.293 147.684C578.475 147.684 577.791 147.288 577.593 145.884H575.847C576.171 147.846 577.989 149.124 580.239 149.124C583.281 149.124 584.739 147.198 584.739 144.714C584.739 142.374 583.065 140.322 580.401 140.322ZM587.442 151.41H588.864L589.656 148.764V146.568H587.874V148.764L587.442 151.41ZM593.081 148.944H601.559V147.414H594.665V146.694L598.625 143.67C600.407 142.302 601.307 140.97 601.307 139.512C601.307 137.514 599.741 135.84 597.167 135.84C594.773 135.84 593.099 137.37 592.739 139.674H594.449C594.449 137.982 595.313 137.244 597.167 137.244C599.003 137.244 599.579 137.856 599.579 139.296V139.944C599.579 140.862 598.895 141.582 597.437 142.734L593.081 146.136V148.944ZM610.85 142.212C612.056 141.636 612.776 140.664 612.776 139.458C612.776 137.622 611.246 135.84 608.708 135.84C606.494 135.84 604.784 137.442 604.568 139.458H606.26C606.26 137.91 606.818 137.244 608.708 137.244C610.364 137.244 611.066 137.766 611.066 139.008V139.908C611.066 141.096 610.364 141.636 608.726 141.636H606.638V142.968H608.78C610.688 142.968 611.498 143.562 611.498 144.876V145.776C611.498 147.108 610.67 147.702 608.744 147.702C606.566 147.702 605.936 146.982 605.936 145.326H604.208C604.388 147.54 606.098 149.124 608.744 149.124C611.354 149.124 613.208 147.216 613.208 145.326C613.208 143.904 612.29 142.77 610.85 142.212ZM620.883 140.322C619.839 140.322 618.795 140.79 618.075 141.528V137.55H624.645V136.02H616.671V143.544H618.057C618.291 142.284 618.975 141.744 620.775 141.744C622.683 141.744 623.511 142.428 623.511 144.084V145.434C623.511 147.072 622.683 147.684 620.775 147.684C618.957 147.684 618.273 147.288 618.075 145.884H616.329C616.653 147.846 618.471 149.124 620.721 149.124C623.763 149.124 625.221 147.198 625.221 144.714C625.221 142.374 623.547 140.322 620.883 140.322ZM535.896 173.944H545.04V172.414H541.26V161.02H536.31V162.55H539.676V172.414H535.896V173.944ZM547.68 176.41H549.102L549.894 173.764V171.568H548.112V173.764L547.68 176.41ZM557.136 165.394C556.866 165.394 556.596 165.43 556.344 165.484L560.16 161.02H558.162L554.076 165.844C553.05 167.068 552.384 168.166 552.384 169.696C552.384 172.252 554.364 174.124 557.118 174.124C559.872 174.124 561.834 172.252 561.834 169.696C561.834 167.23 559.818 165.394 557.136 165.394ZM560.124 170.092C560.124 171.946 559.242 172.702 557.118 172.702C554.994 172.702 554.112 171.946 554.112 170.092V169.3C554.112 167.428 554.994 166.636 557.118 166.636C559.242 166.636 560.124 167.428 560.124 169.3V170.092ZM569.414 165.322C568.37 165.322 567.326 165.79 566.606 166.528V162.55H573.176V161.02H565.202V168.544H566.588C566.822 167.284 567.506 166.744 569.306 166.744C571.214 166.744 572.042 167.428 572.042 169.084V170.434C572.042 172.072 571.214 172.684 569.306 172.684C567.488 172.684 566.804 172.288 566.606 170.884H564.86C565.184 172.846 567.002 174.124 569.252 174.124C572.294 174.124 573.752 172.198 573.752 169.714C573.752 167.374 572.078 165.322 569.414 165.322ZM578.048 173.944H579.848L584.672 163.18V161.02H575.582V162.55H583.088V163.27L578.048 173.944ZM585.279 176.41H586.701L587.493 173.764V171.568H585.711V173.764L585.279 176.41ZM594.719 174.124C597.707 174.124 599.579 171.37 599.579 167.5C599.579 163.612 597.671 160.84 594.719 160.84C591.767 160.84 589.859 163.612 589.859 167.5C589.859 171.37 591.731 174.124 594.719 174.124ZM594.719 172.702C592.559 172.702 591.641 171.568 591.641 168.958V166.042C591.641 163.378 592.559 162.244 594.719 162.244C596.879 162.244 597.797 163.378 597.797 166.042V168.958C597.797 171.568 596.879 172.702 594.719 172.702ZM602.714 173.944H611.192V172.414H604.298V171.694L608.258 168.67C610.04 167.302 610.94 165.97 610.94 164.512C610.94 162.514 609.374 160.84 606.8 160.84C604.406 160.84 602.732 162.37 602.372 164.674H604.082C604.082 162.982 604.946 162.244 606.8 162.244C608.636 162.244 609.212 162.856 609.212 164.296V164.944C609.212 165.862 608.528 166.582 607.07 167.734L602.714 171.136V173.944ZM620.483 167.212C621.689 166.636 622.409 165.664 622.409 164.458C622.409 162.622 620.879 160.84 618.341 160.84C616.127 160.84 614.417 162.442 614.201 164.458H615.893C615.893 162.91 616.451 162.244 618.341 162.244C619.997 162.244 620.699 162.766 620.699 164.008V164.908C620.699 166.096 619.997 166.636 618.359 166.636H616.271V167.968H618.413C620.321 167.968 621.131 168.562 621.131 169.876V170.776C621.131 172.108 620.303 172.702 618.377 172.702C616.199 172.702 615.569 171.982 615.569 170.326H613.841C614.021 172.54 615.731 174.124 618.377 174.124C620.987 174.124 622.841 172.216 622.841 170.326C622.841 168.904 621.923 167.77 620.483 167.212ZM541.008 190.322C539.964 190.322 538.92 190.79 538.2 191.528V187.55H544.77V186.02H536.796V193.544H538.182C538.416 192.284 539.1 191.744 540.9 191.744C542.808 191.744 543.636 192.428 543.636 194.084V195.434C543.636 197.072 542.808 197.684 540.9 197.684C539.082 197.684 538.398 197.288 538.2 195.884H536.454C536.778 197.846 538.596 199.124 540.846 199.124C543.888 199.124 545.346 197.198 545.346 194.714C545.346 192.374 543.672 190.322 541.008 190.322ZM554.205 198.944H555.789V194.624H558.129V193.292H555.789V188.972H554.205V193.292H549.903V186.02H548.319V194.624H554.205V198.944ZM564.889 199.124C567.877 199.124 569.749 196.37 569.749 192.5C569.749 188.612 567.841 185.84 564.889 185.84C561.937 185.84 560.029 188.612 560.029 192.5C560.029 196.37 561.901 199.124 564.889 199.124ZM564.889 197.702C562.729 197.702 561.811 196.568 561.811 193.958V191.042C561.811 188.378 562.729 187.244 564.889 187.244C567.049 187.244 567.967 188.378 567.967 191.042V193.958C567.967 196.568 567.049 197.702 564.889 197.702ZM572.166 201.41H573.588L574.38 198.764V196.568H572.598V198.764L572.166 201.41ZM577.806 198.944H586.284V197.414H579.39V196.694L583.35 193.67C585.132 192.302 586.032 190.97 586.032 189.512C586.032 187.514 584.466 185.84 581.892 185.84C579.498 185.84 577.824 187.37 577.464 189.674H579.174C579.174 187.982 580.038 187.244 581.892 187.244C583.728 187.244 584.304 187.856 584.304 189.296V189.944C584.304 190.862 583.62 191.582 582.162 192.734L577.806 196.136V198.944ZM593.577 199.124C596.565 199.124 598.437 196.37 598.437 192.5C598.437 188.612 596.529 185.84 593.577 185.84C590.625 185.84 588.717 188.612 588.717 192.5C588.717 196.37 590.589 199.124 593.577 199.124ZM593.577 197.702C591.417 197.702 590.499 196.568 590.499 193.958V191.042C590.499 188.378 591.417 187.244 593.577 187.244C595.737 187.244 596.655 188.378 596.655 191.042V193.958C596.655 196.568 595.737 197.702 593.577 197.702ZM605.352 185.84C602.652 185.84 600.726 187.676 600.726 190.178C600.726 192.572 602.706 194.318 605.388 194.318C605.676 194.318 605.982 194.282 606.252 194.21L602.292 198.944H604.272L608.304 193.94C609.294 192.716 609.996 191.816 609.996 190.178C609.996 187.676 608.016 185.84 605.352 185.84ZM608.286 190.574C608.286 192.392 607.422 193.166 605.406 193.166C603.336 193.166 602.436 192.392 602.436 190.574V189.8C602.436 188.018 603.336 187.244 605.406 187.244C607.422 187.244 608.286 188.018 608.286 189.8V190.574ZM536.796 223.944H545.274V222.414H538.38V221.694L542.34 218.67C544.122 217.302 545.022 215.97 545.022 214.512C545.022 212.514 543.456 210.84 540.882 210.84C538.488 210.84 536.814 212.37 536.454 214.674H538.164C538.164 212.982 539.028 212.244 540.882 212.244C542.718 212.244 543.294 212.856 543.294 214.296V214.944C543.294 215.862 542.61 216.582 541.152 217.734L536.796 221.136V223.944ZM554.205 223.944H555.789V219.624H558.129V218.292H555.789V213.972H554.205V218.292H549.903V211.02H548.319V219.624H554.205V223.944ZM560.371 226.41H561.793L562.585 223.764V221.568H560.803V223.764L560.371 226.41ZM570.047 215.322C569.003 215.322 567.959 215.79 567.239 216.528V212.55H573.809V211.02H565.835V218.544H567.221C567.455 217.284 568.139 216.744 569.939 216.744C571.847 216.744 572.675 217.428 572.675 219.084V220.434C572.675 222.072 571.847 222.684 569.939 222.684C568.121 222.684 567.437 222.288 567.239 220.884H565.493C565.817 222.846 567.635 224.124 569.885 224.124C572.927 224.124 574.385 222.198 574.385 219.714C574.385 217.374 572.711 215.322 570.047 215.322ZM583.784 217.212C585.044 216.636 585.8 215.61 585.8 214.368C585.8 212.352 584.036 210.84 581.606 210.84C579.176 210.84 577.412 212.352 577.412 214.368C577.412 215.61 578.168 216.636 579.428 217.212C577.934 217.788 577.016 218.904 577.016 220.326C577.016 222.504 578.924 224.124 581.606 224.124C584.288 224.124 586.196 222.522 586.196 220.326C586.196 218.904 585.278 217.788 583.784 217.212ZM579.158 214.044C579.158 212.784 579.896 212.244 581.606 212.244C583.316 212.244 584.054 212.784 584.054 214.044V214.836C584.054 216.096 583.316 216.636 581.606 216.636C579.896 216.636 579.158 216.096 579.158 214.836V214.044ZM584.468 220.74C584.468 222.108 583.604 222.702 581.606 222.702C579.608 222.702 578.744 222.108 578.744 220.74V219.948C578.744 218.562 579.608 217.968 581.606 217.968C583.604 217.968 584.468 218.562 584.468 219.948V220.74ZM591.797 218.526C593.831 218.526 595.397 216.852 595.397 214.692C595.397 212.532 593.831 210.858 591.797 210.858C589.763 210.858 588.197 212.532 588.197 214.692C588.197 216.852 589.763 218.526 591.797 218.526ZM594.137 223.944H595.703L600.905 211.02H599.339L594.137 223.944ZM591.797 217.23C590.447 217.23 589.853 216.654 589.853 215.304V214.08C589.853 212.73 590.447 212.154 591.797 212.154C593.147 212.154 593.741 212.73 593.741 214.08V215.304C593.741 216.654 593.147 217.23 591.797 217.23ZM603.245 224.088C605.279 224.088 606.845 222.414 606.845 220.254C606.845 218.094 605.279 216.42 603.245 216.42C601.211 216.42 599.645 218.094 599.645 220.254C599.645 222.414 601.211 224.088 603.245 224.088ZM603.245 222.792C601.895 222.792 601.301 222.216 601.301 220.866V219.642C601.301 218.292 601.895 217.716 603.245 217.716C604.595 217.716 605.189 218.292 605.189 219.642V220.866C605.189 222.216 604.595 222.792 603.245 222.792ZM535.896 248.944H545.04V247.414H541.26V236.02H536.31V237.55H539.676V247.414H535.896V248.944ZM553.299 242.212C554.505 241.636 555.225 240.664 555.225 239.458C555.225 237.622 553.695 235.84 551.157 235.84C548.943 235.84 547.233 237.442 547.017 239.458H548.709C548.709 237.91 549.267 237.244 551.157 237.244C552.813 237.244 553.515 237.766 553.515 239.008V239.908C553.515 241.096 552.813 241.636 551.175 241.636H549.087V242.968H551.229C553.137 242.968 553.947 243.562 553.947 244.876V245.776C553.947 247.108 553.119 247.702 551.193 247.702C549.015 247.702 548.385 246.982 548.385 245.326H546.657C546.837 247.54 548.547 249.124 551.193 249.124C553.803 249.124 555.657 247.216 555.657 245.326C555.657 243.904 554.739 242.77 553.299 242.212ZM565.006 242.212C566.212 241.636 566.932 240.664 566.932 239.458C566.932 237.622 565.402 235.84 562.864 235.84C560.65 235.84 558.94 237.442 558.724 239.458H560.416C560.416 237.91 560.974 237.244 562.864 237.244C564.52 237.244 565.222 237.766 565.222 239.008V239.908C565.222 241.096 564.52 241.636 562.882 241.636H560.794V242.968H562.936C564.844 242.968 565.654 243.562 565.654 244.876V245.776C565.654 247.108 564.826 247.702 562.9 247.702C560.722 247.702 560.092 246.982 560.092 245.326H558.364C558.544 247.54 560.254 249.124 562.9 249.124C565.51 249.124 567.364 247.216 567.364 245.326C567.364 243.904 566.446 242.77 565.006 242.212ZM570.197 251.41H571.619L572.411 248.764V246.568H570.629V248.764L570.197 251.41ZM575.289 248.944H584.433V247.414H580.653V236.02H575.703V237.55H579.069V247.414H575.289V248.944ZM591.98 248.944H593.564V244.624H595.904V243.292H593.564V238.972H591.98V243.292H587.678V236.02H586.094V244.624H591.98V248.944ZM602.593 240.394C602.323 240.394 602.053 240.43 601.801 240.484L605.617 236.02H603.619L599.533 240.844C598.507 242.068 597.841 243.166 597.841 244.696C597.841 247.252 599.821 249.124 602.575 249.124C605.329 249.124 607.291 247.252 607.291 244.696C607.291 242.23 605.275 240.394 602.593 240.394ZM605.581 245.092C605.581 246.946 604.699 247.702 602.575 247.702C600.451 247.702 599.569 246.946 599.569 245.092V244.3C599.569 242.428 600.451 241.636 602.575 241.636C604.699 241.636 605.581 242.428 605.581 244.3V245.092ZM542.322 273.944H543.906V269.624H546.246V268.292H543.906V263.972H542.322V268.292H538.02V261.02H536.436V269.624H542.322V273.944ZM555.004 267.212C556.21 266.636 556.93 265.664 556.93 264.458C556.93 262.622 555.4 260.84 552.862 260.84C550.648 260.84 548.938 262.442 548.722 264.458H550.414C550.414 262.91 550.972 262.244 552.862 262.244C554.518 262.244 555.22 262.766 555.22 264.008V264.908C555.22 266.096 554.518 266.636 552.88 266.636H550.792V267.968H552.934C554.842 267.968 555.652 268.562 555.652 269.876V270.776C555.652 272.108 554.824 272.702 552.898 272.702C550.72 272.702 550.09 271.982 550.09 270.326H548.362C548.542 272.54 550.252 274.124 552.898 274.124C555.508 274.124 557.362 272.216 557.362 270.326C557.362 268.904 556.444 267.77 555.004 267.212ZM560.195 276.41H561.617L562.409 273.764V271.568H560.627V273.764L560.195 276.41ZM569.635 274.124C572.623 274.124 574.495 271.37 574.495 267.5C574.495 263.612 572.587 260.84 569.635 260.84C566.683 260.84 564.775 263.612 564.775 267.5C564.775 271.37 566.647 274.124 569.635 274.124ZM569.635 272.702C567.475 272.702 566.557 271.568 566.557 268.958V266.042C566.557 263.378 567.475 262.244 569.635 262.244C571.795 262.244 572.713 263.378 572.713 266.042V268.958C572.713 271.568 571.795 272.702 569.635 272.702ZM581.446 265.394C581.176 265.394 580.906 265.43 580.654 265.484L584.47 261.02H582.472L578.386 265.844C577.36 267.068 576.694 268.166 576.694 269.696C576.694 272.252 578.674 274.124 581.428 274.124C584.182 274.124 586.144 272.252 586.144 269.696C586.144 267.23 584.128 265.394 581.446 265.394ZM584.434 270.092C584.434 271.946 583.552 272.702 581.428 272.702C579.304 272.702 578.422 271.946 578.422 270.092V269.3C578.422 267.428 579.304 266.636 581.428 266.636C583.552 266.636 584.434 267.428 584.434 269.3V270.092ZM593.329 265.394C593.059 265.394 592.789 265.43 592.537 265.484L596.353 261.02H594.355L590.269 265.844C589.243 267.068 588.577 268.166 588.577 269.696C588.577 272.252 590.557 274.124 593.311 274.124C596.065 274.124 598.027 272.252 598.027 269.696C598.027 267.23 596.011 265.394 593.329 265.394ZM596.317 270.092C596.317 271.946 595.435 272.702 593.311 272.702C591.187 272.702 590.305 271.946 590.305 270.092V269.3C590.305 267.428 591.187 266.636 593.311 266.636C595.435 266.636 596.317 267.428 596.317 269.3V270.092ZM542.682 292.212C543.888 291.636 544.608 290.664 544.608 289.458C544.608 287.622 543.078 285.84 540.54 285.84C538.326 285.84 536.616 287.442 536.4 289.458H538.092C538.092 287.91 538.65 287.244 540.54 287.244C542.196 287.244 542.898 287.766 542.898 289.008V289.908C542.898 291.096 542.196 291.636 540.558 291.636H538.47V292.968H540.612C542.52 292.968 543.33 293.562 543.33 294.876V295.776C543.33 297.108 542.502 297.702 540.576 297.702C538.398 297.702 537.768 296.982 537.768 295.326H536.04C536.22 297.54 537.93 299.124 540.576 299.124C543.186 299.124 545.04 297.216 545.04 295.326C545.04 293.904 544.122 292.77 542.682 292.212ZM552.391 299.124C555.379 299.124 557.251 296.37 557.251 292.5C557.251 288.612 555.343 285.84 552.391 285.84C549.439 285.84 547.531 288.612 547.531 292.5C547.531 296.37 549.403 299.124 552.391 299.124ZM552.391 297.702C550.231 297.702 549.313 296.568 549.313 293.958V291.042C549.313 288.378 550.231 287.244 552.391 287.244C554.551 287.244 555.469 288.378 555.469 291.042V293.958C555.469 296.568 554.551 297.702 552.391 297.702ZM560.386 298.944H568.864V297.414H561.97V296.694L565.93 293.67C567.712 292.302 568.612 290.97 568.612 289.512C568.612 287.514 567.046 285.84 564.472 285.84C562.078 285.84 560.404 287.37 560.044 289.674H561.754C561.754 287.982 562.618 287.244 564.472 287.244C566.308 287.244 566.884 287.856 566.884 289.296V289.944C566.884 290.862 566.2 291.582 564.742 292.734L560.386 296.136V298.944ZM571.639 301.41H573.061L573.853 298.764V296.568H572.071V298.764L571.639 301.41ZM581.095 290.394C580.825 290.394 580.555 290.43 580.303 290.484L584.119 286.02H582.121L578.035 290.844C577.009 292.068 576.343 293.166 576.343 294.696C576.343 297.252 578.323 299.124 581.077 299.124C583.831 299.124 585.793 297.252 585.793 294.696C585.793 292.23 583.777 290.394 581.095 290.394ZM584.083 295.092C584.083 296.946 583.201 297.702 581.077 297.702C578.953 297.702 578.071 296.946 578.071 295.092V294.3C578.071 292.428 578.953 291.636 581.077 291.636C583.201 291.636 584.083 292.428 584.083 294.3V295.092ZM595.047 292.212C596.253 291.636 596.973 290.664 596.973 289.458C596.973 287.622 595.443 285.84 592.905 285.84C590.691 285.84 588.981 287.442 588.765 289.458H590.457C590.457 287.91 591.015 287.244 592.905 287.244C594.561 287.244 595.263 287.766 595.263 289.008V289.908C595.263 291.096 594.561 291.636 592.923 291.636H590.835V292.968H592.977C594.885 292.968 595.695 293.562 595.695 294.876V295.776C595.695 297.108 594.867 297.702 592.941 297.702C590.763 297.702 590.133 296.982 590.133 295.326H588.405C588.585 297.54 590.295 299.124 592.941 299.124C595.551 299.124 597.405 297.216 597.405 295.326C597.405 293.904 596.487 292.77 595.047 292.212ZM604.648 285.84C601.948 285.84 600.022 287.676 600.022 290.178C600.022 292.572 602.002 294.318 604.684 294.318C604.972 294.318 605.278 294.282 605.548 294.21L601.588 298.944H603.568L607.6 293.94C608.59 292.716 609.292 291.816 609.292 290.178C609.292 287.676 607.312 285.84 604.648 285.84ZM607.582 290.574C607.582 292.392 606.718 293.166 604.702 293.166C602.632 293.166 601.732 292.392 601.732 290.574V289.8C601.732 288.018 602.632 287.244 604.702 287.244C606.718 287.244 607.582 288.018 607.582 289.8V290.574Z" fill="black" fill-opacity="0.5"/>
<rect width="222.348" height="58.8916" rx="8" transform="matrix(1 0 0 -1 56.1421 251)" fill="#2F2F2F"/>
<path d="M73.0785 221.108H74.7185V208.348H75.6185L78.6185 221.108H81.8985L84.9385 208.348H85.8385V221.108H87.5185V206.748H83.5785L80.6585 219.508H79.9385L77.0185 206.748H73.0785V221.108ZM94.6133 210.448C92.3933 210.448 90.6533 212.028 90.3133 214.188H92.1133C92.1933 212.588 92.7333 212.008 94.5533 212.008C96.2933 212.008 96.8133 212.608 96.8133 214.188V215.128H93.9133C91.6533 215.128 90.0533 216.348 90.0533 218.068C90.0533 219.868 91.7133 221.308 93.8133 221.308C95.1733 221.308 96.2733 220.808 96.9133 219.928V221.108H98.5733V214.288C98.5733 211.988 96.9933 210.448 94.6133 210.448ZM94.1733 219.748C92.6133 219.748 91.9533 219.328 91.9533 218.348V217.788C91.9533 217.008 92.4333 216.608 93.4133 216.608H96.8133V217.908C96.8133 219.188 96.0133 219.748 94.1733 219.748ZM103.075 212.608V210.648H101.415V221.108H103.175V214.728C103.175 213.308 103.815 212.668 105.235 212.668H106.855V210.448C105.235 210.648 103.895 211.408 103.075 212.608ZM108.798 221.108H110.558V216.608H111.958L115.178 221.108H117.418L113.398 215.788L117.418 210.648H115.338L111.958 215.128H110.558V206.748H108.798V221.108ZM128.247 216.408V215.668C128.247 212.728 126.187 210.448 123.547 210.448C120.707 210.448 118.567 212.928 118.567 216.088C118.567 219.148 120.687 221.308 123.547 221.308C125.507 221.308 127.507 219.868 128.207 217.888H126.167C126.007 219.188 125.227 219.748 123.547 219.748C121.427 219.748 120.527 218.908 120.527 216.868V216.408H128.247ZM123.567 212.008C125.547 212.008 126.287 212.788 126.287 214.668V214.928H120.527V214.708C120.527 212.828 121.487 212.008 123.567 212.008ZM134.6 221.208H136V219.628H134.4C133.6 219.628 133.2 219.228 133.2 218.428V212.128H136.2V210.648H133.2V206.748H131.44V210.648H129.16V212.128H131.44V218.228C131.44 220.008 132.7 221.208 134.6 221.208ZM139.385 209.348C140.145 209.348 140.725 208.768 140.725 207.988C140.725 207.188 140.145 206.628 139.385 206.628C138.605 206.628 138.025 207.188 138.025 207.988C138.025 208.768 138.605 209.348 139.385 209.348ZM138.505 221.108H140.265V210.648H138.505V221.108ZM148.271 210.448C146.911 210.448 145.731 211.088 144.931 212.208V210.648H143.271V221.108H145.031V214.468C145.031 212.748 145.831 212.008 147.731 212.008C149.511 212.008 150.291 212.708 150.291 214.368V221.108H152.051V214.568C152.051 212.148 150.451 210.448 148.271 210.448ZM162.252 210.648V212.128C161.552 211.148 160.232 210.468 158.932 210.468C156.272 210.468 154.292 212.628 154.292 215.548C154.292 218.488 156.292 220.708 158.912 220.708C160.132 220.708 161.252 220.188 162.152 219.188V221.208C162.152 223.168 161.392 223.888 159.312 223.888C157.172 223.888 156.452 223.288 156.432 221.508H154.632C154.672 223.588 156.652 225.448 159.312 225.448C162.052 225.448 163.912 223.608 163.912 221.408V210.648H162.252ZM159.212 219.168C157.132 219.168 156.232 218.268 156.232 216.168V214.928C156.232 212.888 157.132 212.028 159.212 212.028C161.272 212.028 162.152 212.888 162.152 214.928V216.168C162.152 218.268 161.272 219.168 159.212 219.168ZM176.709 210.448C175.449 210.448 174.189 211.108 173.429 212.128V206.748H171.669V221.108H173.329V219.508C174.189 220.668 175.369 221.308 176.629 221.308C179.269 221.308 181.389 218.868 181.389 215.828C181.389 212.928 179.229 210.448 176.709 210.448ZM179.429 216.688C179.429 218.828 178.529 219.748 176.429 219.748C174.329 219.748 173.429 218.828 173.429 216.688V215.088C173.429 212.928 174.329 212.008 176.429 212.008C178.529 212.008 179.429 212.928 179.429 215.088V216.688ZM190.261 210.648V217.308C190.261 219.008 189.481 219.748 187.681 219.748C186.001 219.748 185.281 219.048 185.281 217.408V210.648H183.521V216.988C183.521 219.568 185.101 221.308 187.421 221.308C188.601 221.308 189.681 220.728 190.361 219.768V221.108H192.021V210.648H190.261ZM202.288 206.748V212.108C201.448 211.048 200.308 210.448 199.088 210.448C196.448 210.448 194.328 212.888 194.328 215.928C194.328 218.828 196.488 221.308 199.008 221.308C200.328 221.308 201.648 220.568 202.388 219.488V221.108H204.048V206.748H202.288ZM202.288 216.668C202.288 218.828 201.388 219.748 199.288 219.748C197.188 219.748 196.288 218.828 196.288 216.668V215.068C196.288 212.928 197.188 212.008 199.288 212.008C201.388 212.008 202.288 212.928 202.288 215.068V216.668ZM214.4 210.648V212.128C213.7 211.148 212.38 210.468 211.08 210.468C208.42 210.468 206.44 212.628 206.44 215.548C206.44 218.488 208.44 220.708 211.06 220.708C212.28 220.708 213.4 220.188 214.3 219.188V221.208C214.3 223.168 213.54 223.888 211.46 223.888C209.32 223.888 208.6 223.288 208.58 221.508H206.78C206.82 223.588 208.8 225.448 211.46 225.448C214.2 225.448 216.06 223.608 216.06 221.408V210.648H214.4ZM211.36 219.168C209.28 219.168 208.38 218.268 208.38 216.168V214.928C208.38 212.888 209.28 212.028 211.36 212.028C213.42 212.028 214.3 212.888 214.3 214.928V216.168C214.3 218.268 213.42 219.168 211.36 219.168ZM228.032 216.408V215.668C228.032 212.728 225.972 210.448 223.332 210.448C220.492 210.448 218.352 212.928 218.352 216.088C218.352 219.148 220.472 221.308 223.332 221.308C225.292 221.308 227.292 219.868 227.992 217.888H225.952C225.792 219.188 225.012 219.748 223.332 219.748C221.212 219.748 220.312 218.908 220.312 216.868V216.408H228.032ZM223.352 212.008C225.332 212.008 226.072 212.788 226.072 214.668V214.928H220.312V214.708C220.312 212.828 221.272 212.008 223.352 212.008ZM234.386 221.208H235.786V219.628H234.186C233.386 219.628 232.986 219.228 232.986 218.428V212.128H235.986V210.648H232.986V206.748H231.226V210.648H228.946V212.128H231.226V218.228C231.226 220.008 232.486 221.208 234.386 221.208ZM238.37 223.848H239.95L240.83 220.908V218.468H238.85V220.908L238.37 223.848ZM258.562 216.888C258.562 214.748 257.222 213.528 254.422 213.108L253.462 212.968C251.202 212.628 250.582 212.188 250.582 210.948V210.268C250.582 208.848 251.462 208.168 253.302 208.168C255.442 208.168 256.182 208.848 256.262 210.908H258.362C258.042 208.568 256.482 206.968 254.242 206.628V205.148H252.682V206.588C250.462 206.868 248.702 208.608 248.702 210.688C248.702 212.728 250.282 214.288 252.782 214.648L253.742 214.788C256.182 215.148 256.682 215.468 256.682 216.628V217.428C256.682 218.968 255.662 219.688 253.542 219.688C251.202 219.688 250.402 218.968 250.302 216.748H248.202C248.502 219.208 250.242 220.928 252.682 221.248V222.708H254.242V221.268C256.682 220.968 258.562 219.128 258.562 216.888Z" fill="white"/>
<g filter="url(#filter0_f_1303_1848)">
<rect x="49" y="225" width="440.582" height="286.538" rx="8" fill="black" fill-opacity="0.1"/>
</g>
<rect x="39" y="235" width="440.582" height="286.538" rx="8" fill="white"/>
<path d="M87.4528 259.64H82.7728V274H84.5728V268.86H87.5128C90.0728 268.86 92.1928 266.8 92.1928 264.26C92.1928 261.7 90.0728 259.64 87.4528 259.64ZM90.2528 264.88C90.2528 266.44 89.2728 267.26 87.3728 267.26H84.5728V261.24H87.3328C89.2528 261.24 90.2528 262.06 90.2528 263.62V264.88ZM94.4883 274H96.2483V259.64H94.4883V274ZM103.214 263.34C100.994 263.34 99.2539 264.92 98.9139 267.08H100.714C100.794 265.48 101.334 264.9 103.154 264.9C104.894 264.9 105.414 265.5 105.414 267.08V268.02H102.514C100.254 268.02 98.6539 269.24 98.6539 270.96C98.6539 272.76 100.314 274.2 102.414 274.2C103.774 274.2 104.874 273.7 105.514 272.82V274H107.174V267.18C107.174 264.88 105.594 263.34 103.214 263.34ZM102.774 272.64C101.214 272.64 100.554 272.22 100.554 271.24V270.68C100.554 269.9 101.034 269.5 102.014 269.5H105.414V270.8C105.414 272.08 104.614 272.64 102.774 272.64ZM115.016 263.34C113.656 263.34 112.476 263.98 111.676 265.1V263.54H110.016V274H111.776V267.36C111.776 265.64 112.576 264.9 114.476 264.9C116.256 264.9 117.036 265.6 117.036 267.26V274H118.796V267.46C118.796 265.04 117.196 263.34 115.016 263.34Z" fill="#070707"/>
<path d="M185.494 274H187.294V267.78H192.754V266.18H187.294V261.22H193.354V259.64H185.494V274ZM198.943 263.34C196.723 263.34 194.983 264.92 194.643 267.08H196.443C196.523 265.48 197.063 264.9 198.883 264.9C200.623 264.9 201.143 265.5 201.143 267.08V268.02H198.243C195.983 268.02 194.383 269.24 194.383 270.96C194.383 272.76 196.043 274.2 198.143 274.2C199.503 274.2 200.603 273.7 201.243 272.82V274H202.903V267.18C202.903 264.88 201.323 263.34 198.943 263.34ZM198.503 272.64C196.943 272.64 196.283 272.22 196.283 271.24V270.68C196.283 269.9 196.763 269.5 197.743 269.5H201.143V270.8C201.143 272.08 200.343 272.64 198.503 272.64ZM209.845 274.2C212.085 274.2 214.065 272.42 214.425 270.08H212.545C212.425 271.92 211.645 272.64 209.805 272.64C207.845 272.64 207.005 271.72 207.005 269.56V267.96C207.005 265.82 207.845 264.9 209.805 264.9C211.645 264.9 212.425 265.62 212.545 267.46H214.425C214.065 265.12 212.085 263.34 209.845 263.34C207.125 263.34 205.045 265.7 205.045 268.76C205.045 271.82 207.145 274.2 209.845 274.2ZM220.766 274.1H222.166V272.52H220.566C219.766 272.52 219.366 272.12 219.366 271.32V265.02H222.366V263.54H219.366V259.64H217.606V263.54H215.326V265.02H217.606V271.12C217.606 272.9 218.866 274.1 220.766 274.1Z" fill="#070707"/>
<rect x="55" y="251" width="12" height="32" rx="6" fill="#F2753A"/>
<rect x="157.722" y="251" width="12" height="32" rx="6" fill="#864DFE"/>
<path d="M62.0285 321.764C62.9665 321.316 63.5265 320.56 63.5265 319.622C63.5265 318.194 62.3365 316.808 60.3625 316.808C58.6405 316.808 57.3105 318.054 57.1425 319.622H58.4585C58.4585 318.418 58.8925 317.9 60.3625 317.9C61.6505 317.9 62.1965 318.306 62.1965 319.272V319.972C62.1965 320.896 61.6505 321.316 60.3765 321.316H58.7525V322.352H60.4185C61.9025 322.352 62.5325 322.814 62.5325 323.836V324.536C62.5325 325.572 61.8885 326.034 60.3905 326.034C58.6965 326.034 58.2065 325.474 58.2065 324.186H56.8625C57.0025 325.908 58.3325 327.14 60.3905 327.14C62.4205 327.14 63.8625 325.656 63.8625 324.186C63.8625 323.08 63.1485 322.198 62.0285 321.764ZM69.58 327.14C71.904 327.14 73.36 324.998 73.36 321.988C73.36 318.964 71.876 316.808 69.58 316.808C67.284 316.808 65.8 318.964 65.8 321.988C65.8 324.998 67.256 327.14 69.58 327.14ZM69.58 326.034C67.9 326.034 67.186 325.152 67.186 323.122V320.854C67.186 318.782 67.9 317.9 69.58 317.9C71.26 317.9 71.974 318.782 71.974 320.854V323.122C71.974 325.152 71.26 326.034 69.58 326.034ZM78.8221 327.14C81.1461 327.14 82.6021 324.998 82.6021 321.988C82.6021 318.964 81.1181 316.808 78.8221 316.808C76.5261 316.808 75.0421 318.964 75.0421 321.988C75.0421 324.998 76.4981 327.14 78.8221 327.14ZM78.8221 326.034C77.1421 326.034 76.4281 325.152 76.4281 323.122V320.854C76.4281 318.782 77.1421 317.9 78.8221 317.9C80.5021 317.9 81.2161 318.782 81.2161 320.854V323.122C81.2161 325.152 80.5021 326.034 78.8221 326.034ZM84.5923 327H85.8523V322.366H86.6923L90.0243 327H91.6203L87.6723 321.722L91.5223 316.948H90.0803L86.6923 321.246H85.8523V316.948H84.5923V327Z" fill="#646464"/>
<path d="M57.4505 375H64.0445V373.81H58.6825V373.25L61.7625 370.898C63.1485 369.834 63.8485 368.798 63.8485 367.664C63.8485 366.11 62.6305 364.808 60.6285 364.808C58.7665 364.808 57.4645 365.998 57.1845 367.79H58.5145C58.5145 366.474 59.1865 365.9 60.6285 365.9C62.0565 365.9 62.5045 366.376 62.5045 367.496V368C62.5045 368.714 61.9725 369.274 60.8385 370.17L57.4505 372.816V375ZM69.7167 375.14C72.0407 375.14 73.4967 372.998 73.4967 369.988C73.4967 366.964 72.0127 364.808 69.7167 364.808C67.4207 364.808 65.9367 366.964 65.9367 369.988C65.9367 372.998 67.3927 375.14 69.7167 375.14ZM69.7167 374.034C68.0367 374.034 67.3227 373.152 67.3227 371.122V368.854C67.3227 366.782 68.0367 365.9 69.7167 365.9C71.3967 365.9 72.1107 366.782 72.1107 368.854V371.122C72.1107 373.152 71.3967 374.034 69.7167 374.034ZM78.9589 375.14C81.2829 375.14 82.7389 372.998 82.7389 369.988C82.7389 366.964 81.2549 364.808 78.9589 364.808C76.6629 364.808 75.1789 366.964 75.1789 369.988C75.1789 372.998 76.6349 375.14 78.9589 375.14ZM78.9589 374.034C77.2789 374.034 76.5649 373.152 76.5649 371.122V368.854C76.5649 366.782 77.2789 365.9 78.9589 365.9C80.6389 365.9 81.3529 366.782 81.3529 368.854V371.122C81.3529 373.152 80.6389 374.034 78.9589 374.034ZM84.7291 375H85.9891V370.366H86.8291L90.1611 375H91.7571L87.8091 369.722L91.6591 364.948H90.2171L86.8291 369.246H85.9891V364.948H84.7291V375Z" fill="#646464"/>
<path d="M56.7505 423H63.8625V421.81H60.9225V412.948H57.0725V414.138H59.6905V421.81H56.7505V423ZM68.7323 423.14C71.0563 423.14 72.5123 420.998 72.5123 417.988C72.5123 414.964 71.0283 412.808 68.7323 412.808C66.4363 412.808 64.9523 414.964 64.9523 417.988C64.9523 420.998 66.4083 423.14 68.7323 423.14ZM68.7323 422.034C67.0523 422.034 66.3383 421.152 66.3383 419.122V416.854C66.3383 414.782 67.0523 413.9 68.7323 413.9C70.4123 413.9 71.1263 414.782 71.1263 416.854V419.122C71.1263 421.152 70.4123 422.034 68.7323 422.034ZM77.9745 423.14C80.2985 423.14 81.7545 420.998 81.7545 417.988C81.7545 414.964 80.2705 412.808 77.9745 412.808C75.6785 412.808 74.1945 414.964 74.1945 417.988C74.1945 420.998 75.6505 423.14 77.9745 423.14ZM77.9745 422.034C76.2945 422.034 75.5805 421.152 75.5805 419.122V416.854C75.5805 414.782 76.2945 413.9 77.9745 413.9C79.6545 413.9 80.3685 414.782 80.3685 416.854V419.122C80.3685 421.152 79.6545 422.034 77.9745 422.034ZM83.7447 423H85.0047V418.366H85.8447L89.1767 423H90.7727L86.8247 417.722L90.6747 412.948H89.2327L85.8447 417.246H85.0047V412.948H83.7447V423Z" fill="#646464"/>
<path d="M60.4745 471.14C62.7985 471.14 64.2545 468.998 64.2545 465.988C64.2545 462.964 62.7705 460.808 60.4745 460.808C58.1785 460.808 56.6945 462.964 56.6945 465.988C56.6945 468.998 58.1505 471.14 60.4745 471.14ZM60.4745 470.034C58.7945 470.034 58.0805 469.152 58.0805 467.122V464.854C58.0805 462.782 58.7945 461.9 60.4745 461.9C62.1545 461.9 62.8685 462.782 62.8685 464.854V467.122C62.8685 469.152 62.1545 470.034 60.4745 470.034Z" fill="#646464"/>
<rect opacity="0.1" x="113.854" y="369" width="338.555" height="1" fill="#070707"/>
<rect opacity="0.1" x="113.854" y="417" width="338.555" height="1" fill="#070707"/>
<rect opacity="0.1" x="113.854" y="465" width="338.555" height="1" fill="#070707"/>
<rect opacity="0.1" x="113.854" y="321" width="338.555" height="1" fill="#070707"/>
<path d="M130.854 416H114.854V465H130.854V416Z" fill="#864DFE"/>
<path d="M146.854 429H130.854V465H146.854V429Z" fill="#F2753A"/>
<path d="M186.854 407H170.854V465H186.854V407Z" fill="#864DFE"/>
<path d="M202.854 402H186.854V465H202.854V402Z" fill="#F2753A"/>
<path d="M242.608 393H226.854V465H242.608V393Z" fill="#864DFE"/>
<path d="M258.854 379H242.608V465H258.854V379Z" fill="#F2753A"/>
<path d="M298.854 379H282.854V465H298.854V379Z" fill="#864DFE"/>
<path d="M314.854 379H298.854V465H314.854V379Z" fill="#F2753A"/>
<path d="M354.854 370H338.854V465H354.854V370Z" fill="#864DFE"/>
<path d="M370.854 344H354.854V465H370.854V344Z" fill="#F2753A"/>
<path d="M410.854 338H394.854V465H410.854V338Z" fill="#864DFE"/>
<path d="M426.854 331H410.854V465H426.854V331Z" fill="#F2753A"/>
<path d="M120.8 482.14C122.592 482.14 123.908 480.824 123.908 479.018V471.948H122.648V478.878C122.648 480.446 122.158 481.006 120.8 481.006C119.316 481.006 118.882 480.53 118.882 478.878H117.58C117.58 480.768 118.924 482.14 120.8 482.14ZM128.802 474.538C127.248 474.538 126.03 475.644 125.792 477.156H127.052C127.108 476.036 127.486 475.63 128.76 475.63C129.978 475.63 130.342 476.05 130.342 477.156V477.814H128.312C126.73 477.814 125.61 478.668 125.61 479.872C125.61 481.132 126.772 482.14 128.242 482.14C129.194 482.14 129.964 481.79 130.412 481.174V482H131.574V477.226C131.574 475.616 130.468 474.538 128.802 474.538ZM128.494 481.048C127.402 481.048 126.94 480.754 126.94 480.068V479.676C126.94 479.13 127.276 478.85 127.962 478.85H130.342V479.76C130.342 480.656 129.782 481.048 128.494 481.048ZM137.064 474.538C136.112 474.538 135.286 474.986 134.726 475.77V474.678H133.564V482H134.796V477.352C134.796 476.148 135.356 475.63 136.686 475.63C137.932 475.63 138.478 476.12 138.478 477.282V482H139.71V477.422C139.71 475.728 138.59 474.538 137.064 474.538Z" fill="#646464"/>
<path d="M174.452 482H175.712V477.646H179.534V476.526H175.712V473.054H179.954V471.948H174.452V482ZM187.53 478.71V478.192C187.53 476.134 186.088 474.538 184.24 474.538C182.252 474.538 180.754 476.274 180.754 478.486C180.754 480.628 182.238 482.14 184.24 482.14C185.612 482.14 187.012 481.132 187.502 479.746H186.074C185.962 480.656 185.416 481.048 184.24 481.048C182.756 481.048 182.126 480.46 182.126 479.032V478.71H187.53ZM184.254 475.63C185.64 475.63 186.158 476.176 186.158 477.492V477.674H182.126V477.52C182.126 476.204 182.798 475.63 184.254 475.63ZM192.675 474.538C191.793 474.538 190.911 475 190.379 475.714V471.948H189.147V482H190.309V480.88C190.911 481.692 191.737 482.14 192.619 482.14C194.467 482.14 195.951 480.432 195.951 478.304C195.951 476.274 194.439 474.538 192.675 474.538ZM194.579 478.906C194.579 480.404 193.949 481.048 192.479 481.048C191.009 481.048 190.379 480.404 190.379 478.906V477.786C190.379 476.274 191.009 475.63 192.479 475.63C193.949 475.63 194.579 476.274 194.579 477.786V478.906Z" fill="#646464"/>
<path d="M230.502 482H231.65V473.068H232.28L234.38 482H236.676L238.804 473.068H239.434V482H240.61V471.948H237.852L235.808 480.88H235.304L233.26 471.948H230.502V482ZM245.576 474.538C244.022 474.538 242.804 475.644 242.566 477.156H243.826C243.882 476.036 244.26 475.63 245.534 475.63C246.752 475.63 247.116 476.05 247.116 477.156V477.814H245.086C243.504 477.814 242.384 478.668 242.384 479.872C242.384 481.132 243.546 482.14 245.016 482.14C245.968 482.14 246.738 481.79 247.186 481.174V482H248.348V477.226C248.348 475.616 247.242 474.538 245.576 474.538ZM245.268 481.048C244.176 481.048 243.714 480.754 243.714 480.068V479.676C243.714 479.13 244.05 478.85 244.736 478.85H247.116V479.76C247.116 480.656 246.556 481.048 245.268 481.048ZM251.499 476.05V474.678H250.337V482H251.569V477.534C251.569 476.54 252.017 476.092 253.011 476.092H254.145V474.538C253.011 474.678 252.073 475.21 251.499 476.05Z" fill="#646464"/>
<path d="M294.353 482H295.697L292.757 471.948H290.517L287.535 482H288.823L289.677 478.906H293.485L294.353 482ZM289.999 477.786L291.301 473.068H291.861L293.177 477.786H289.999ZM300.836 474.538C299.912 474.538 298.988 475.056 298.47 475.812V474.678H297.308V484.898H298.54V480.978C299.128 481.72 299.926 482.14 300.78 482.14C302.628 482.14 304.112 480.432 304.112 478.304C304.112 476.274 302.6 474.538 300.836 474.538ZM302.74 478.906C302.74 480.404 302.11 481.048 300.64 481.048C299.17 481.048 298.54 480.404 298.54 478.906V477.786C298.54 476.274 299.17 475.63 300.64 475.63C302.11 475.63 302.74 476.274 302.74 477.786V478.906ZM306.878 476.05V474.678H305.716V482H306.948V477.534C306.948 476.54 307.396 476.092 308.39 476.092H309.524V474.538C308.39 474.678 307.452 475.21 306.878 476.05Z" fill="#646464"/>
<path d="M342.36 482H343.508V473.068H344.138L346.238 482H348.534L350.662 473.068H351.292V482H352.468V471.948H349.71L347.666 480.88H347.162L345.118 471.948H342.36V482ZM357.434 474.538C355.88 474.538 354.662 475.644 354.424 477.156H355.684C355.74 476.036 356.118 475.63 357.392 475.63C358.61 475.63 358.974 476.05 358.974 477.156V477.814H356.944C355.362 477.814 354.242 478.668 354.242 479.872C354.242 481.132 355.404 482.14 356.874 482.14C357.826 482.14 358.596 481.79 359.044 481.174V482H360.206V477.226C360.206 475.616 359.1 474.538 357.434 474.538ZM357.126 481.048C356.034 481.048 355.572 480.754 355.572 480.068V479.676C355.572 479.13 355.908 478.85 356.594 478.85H358.974V479.76C358.974 480.656 358.414 481.048 357.126 481.048ZM363.863 484.898H365.193L368.245 474.678H366.901L365.095 480.964H364.535L362.841 474.678H361.497L363.667 482H364.773L363.863 484.898Z" fill="#646464"/>
<path d="M403.595 482.14C405.387 482.14 406.703 480.824 406.703 479.018V471.948H405.443V478.878C405.443 480.446 404.953 481.006 403.595 481.006C402.111 481.006 401.677 480.53 401.677 478.878H400.375C400.375 480.768 401.719 482.14 403.595 482.14ZM413.431 474.678V479.34C413.431 480.53 412.885 481.048 411.625 481.048C410.449 481.048 409.945 480.558 409.945 479.41V474.678H408.713V479.116C408.713 480.922 409.819 482.14 411.443 482.14C412.269 482.14 413.025 481.734 413.501 481.062V482H414.663V474.678H413.431ZM420.269 474.538C419.317 474.538 418.491 474.986 417.931 475.77V474.678H416.769V482H418.001V477.352C418.001 476.148 418.561 475.63 419.891 475.63C421.137 475.63 421.683 476.12 421.683 477.282V482H422.915V477.422C422.915 475.728 421.795 474.538 420.269 474.538Z" fill="#646464"/>
<defs>
<filter id="filter0_f_1303_1848" x="29" y="205" width="480.582" height="326.538" filterUnits="userSpaceOnUse" color-interpolation-filters="sRGB">
<feFlood flood-opacity="0" result="BackgroundImageFix"/>
<feBlend mode="normal" in="SourceGraphic" in2="BackgroundImageFix" result="shape"/>
<feGaussianBlur stdDeviation="10" result="effect1_foregroundBlur_1303_1848"/>
</filter>
</defs>
</svg>
